<svg width="15" height="20" viewBox="0 0 15 20" fill="none" xmlns="http://www.w3.org/2000/svg">
<path d="M2.44429 0.528029L3.81704 0.11455C4.44193 -0.0739759 5.11408 -0.0286519 5.708 0.242062C6.30193 0.512775 6.77704 0.990375 7.04465 1.58571L7.8989 3.48605C8.12908 3.99799 8.1932 4.56915 8.08227 5.11939C7.97133 5.66962 7.6909 6.17131 7.28033 6.55406L5.78768 7.94583C5.76981 7.96357 5.75476 7.98393 5.74302 8.0062C5.58673 8.32541 5.82406 9.178 6.5675 10.4664C7.40603 11.9185 8.05354 12.4924 8.35372 12.404L10.3128 11.8044C10.8493 11.6406 11.4236 11.6487 11.9553 11.8277C12.4869 12.0067 12.9492 12.3476 13.2774 12.8026L14.4914 14.4838C14.8725 15.0116 15.0491 15.6599 14.9882 16.3082C14.9274 16.9564 14.6333 17.5605 14.1606 18.0082L13.1162 18.9965C12.753 19.3405 12.3119 19.5915 11.8307 19.7282C11.3494 19.8649 10.8423 19.8831 10.3525 19.7812C7.44407 19.1759 4.83833 16.834 2.51293 12.8067C0.186697 8.77692 -0.538545 5.34505 0.395917 2.52265C0.552341 2.05013 0.820205 1.6222 1.17688 1.27503C1.53355 0.927861 1.96772 0.671643 2.44429 0.528029ZM2.80402 1.71554C2.51806 1.80167 2.25704 1.95536 2.04301 2.16364C1.82898 2.37191 1.66822 2.62865 1.57433 2.91215C0.768874 5.34423 1.42134 8.43374 3.58797 12.1865C5.75294 15.9367 8.09985 18.0455 10.6064 18.5664C10.9003 18.6274 11.2045 18.6164 11.4933 18.5343C11.782 18.4523 12.0465 18.3016 12.2644 18.0951L13.308 17.1077C13.5626 16.8667 13.7211 16.5414 13.754 16.1923C13.7868 15.8433 13.6918 15.4941 13.4866 15.2098L12.2727 13.5278C12.096 13.2829 11.8471 13.0993 11.5609 13.003C11.2747 12.9066 10.9655 12.9021 10.6766 12.9903L8.71262 13.5915C7.626 13.9148 6.60388 13.0093 5.49411 11.0858C4.55386 9.45834 4.22804 8.2824 4.62994 7.46124C4.70822 7.30136 4.81242 7.1605 4.94253 7.03866L6.43518 5.64689C6.65635 5.4408 6.80742 5.17062 6.86719 4.87429C6.92696 4.57795 6.89243 4.27034 6.76845 3.99463L5.91337 2.09511C5.76928 1.77447 5.5134 1.51723 5.19353 1.37145C4.87365 1.22566 4.51164 1.20129 4.17511 1.30289L2.80402 1.71554Z" fill="white"/>
</svg>
