<svg width="20" height="15" viewBox="0 0 20 15" fill="none" xmlns="http://www.w3.org/2000/svg">
<path d="M17.2452 4.31023V4.30466C17.2452 2.71767 15.9588 1.43117 14.3717 1.43117H7.43446L5.84048 0.157209C5.71314 0.055444 5.55498 0 5.39197 0H2.87349C1.2865 0 0 1.2865 0 2.87349V11.4939C0 13.081 1.2865 14.3674 2.87349 14.3674H16.1638C17.1212 14.3674 17.9637 13.7358 18.2324 12.8169L19.9121 7.06993C20.3153 5.6904 19.2808 4.31023 17.8435 4.31023H17.2452ZM2.87349 1.43674H5.14018L6.73415 2.7107C6.86148 2.81247 7.01964 2.86791 7.18265 2.86791H14.3717C15.1653 2.86791 15.8085 3.51116 15.8085 4.30466V4.31023H4.66924C3.71142 4.31023 2.86853 4.9424 2.60033 5.86191L1.43674 9.85139V2.87349C1.43674 2.08 2.08 1.43674 2.87349 1.43674ZM3.97961 6.2642C4.06902 5.9577 4.34997 5.74697 4.66924 5.74697H17.8435C18.3226 5.74697 18.6675 6.20703 18.533 6.66688L16.8533 12.4139C16.7638 12.7202 16.4829 12.9307 16.1638 12.9307H2.99305C2.51413 12.9307 2.16931 12.4709 2.30342 12.0112L3.97961 6.2642Z" fill="black"/>
</svg>
