<svg width="22" height="22" viewBox="0 0 22 22" fill="none" xmlns="http://www.w3.org/2000/svg">
<path d="M7.25 13.708L9.76758 8.75153C9.78115 8.72482 9.80854 8.70801 9.8385 8.70801C9.86927 8.70801 9.89727 8.72576 9.91042 8.75357L12.25 13.708M8.5 12.458H10.7917M14.5417 13.708V8.70801M19.9583 14.5413H21M7.66667 20.1663V21.208" stroke="black" stroke-width="1.5" stroke-linecap="round"/>
<path d="M2.04167 14.542H1" stroke="black" stroke-width="1.5" stroke-linecap="round" stroke-linejoin="round"/>
<path d="M7.66699 2.04167V1" stroke="black" stroke-width="1.5" stroke-linecap="round"/>
<path d="M19.958 7.66699H20.9997" stroke="black" stroke-width="1.5" stroke-linecap="round" stroke-linejoin="round"/>
<path d="M14.3333 20.1667V21.2083M19.9583 11.2083H21M10.7917 20.1667V21.2083M2.04167 11.2083H1M10.7917 2.04167V1" stroke="black" stroke-width="1.5" stroke-linecap="round"/>
<path d="M2.04167 7.66699H1" stroke="black" stroke-width="1.5" stroke-linecap="round" stroke-linejoin="round"/>
<path d="M14.333 2.04167V1" stroke="black" stroke-width="1.5" stroke-linecap="round"/>
<path d="M15.7917 4.33301H6.20833C5.05774 4.33301 4.125 5.26575 4.125 6.41634V15.9997C4.125 17.1503 5.05774 18.083 6.20833 18.083H15.7917C16.9423 18.083 17.875 17.1503 17.875 15.9997V6.41634C17.875 5.26575 16.9423 4.33301 15.7917 4.33301Z" stroke="black" stroke-width="1.5"/>
</svg>
