<svg width="22" height="17" viewBox="0 0 22 17" fill="none" xmlns="http://www.w3.org/2000/svg">
<path d="M3.75 4.0625C3.75 3.31658 4.04632 2.60121 4.57376 2.07376C5.10121 1.54632 5.81658 1.25 6.5625 1.25C7.30842 1.25 8.02379 1.54632 8.55124 2.07376C9.07868 2.60121 9.375 3.31658 9.375 4.0625C9.375 4.80842 9.07868 5.52379 8.55124 6.05124C8.02379 6.57868 7.30842 6.875 6.5625 6.875C5.81658 6.875 5.10121 6.57868 4.57376 6.05124C4.04632 5.52379 3.75 4.80842 3.75 4.0625ZM6.5625 0C5.48506 0 4.45175 0.428012 3.68988 1.18988C2.92801 1.95175 2.5 2.98506 2.5 4.0625C2.5 5.13994 2.92801 6.17325 3.68988 6.93512C4.45175 7.69699 5.48506 8.125 6.5625 8.125C7.63994 8.125 8.67325 7.69699 9.43512 6.93512C10.197 6.17325 10.625 5.13994 10.625 4.0625C10.625 2.98506 10.197 1.95175 9.43512 1.18988C8.67325 0.428012 7.63994 0 6.5625 0ZM13.6713 14.5563C14.3438 14.8313 15.19 15 16.25 15C18.6012 15 19.9012 14.165 20.5863 13.2075C20.9444 12.7055 21.1686 12.1203 21.2375 11.5075C21.2436 11.4506 21.2478 11.3935 21.25 11.3363V11.25C21.25 11.0038 21.2015 10.76 21.1073 10.5325C21.013 10.305 20.8749 10.0983 20.7008 9.92417C20.5267 9.75006 20.32 9.61195 20.0925 9.51773C19.865 9.4235 19.6212 9.375 19.375 9.375H13.5875C13.8875 9.7375 14.1125 10.1613 14.2438 10.625H19.375C19.5408 10.625 19.6997 10.6908 19.8169 10.8081C19.9342 10.9253 20 11.0842 20 11.25V11.3175L19.9938 11.38C19.9468 11.7766 19.8006 12.1549 19.5688 12.48C19.16 13.0538 18.2725 13.75 16.25 13.75C15.335 13.75 14.6525 13.6075 14.1412 13.3988C14.0387 13.7487 13.89 14.1438 13.6713 14.5563ZM0 11.875C0 11.212 0.263392 10.5761 0.732233 10.1072C1.20107 9.63839 1.83696 9.375 2.5 9.375H10.625C11.288 9.375 11.9239 9.63839 12.3928 10.1072C12.8616 10.5761 13.125 11.212 13.125 11.875V11.98L13.1225 12.03L13.11 12.1987C13.0214 13.0088 12.7337 13.7844 12.2725 14.4562C11.3962 15.725 9.70375 16.875 6.5625 16.875C3.42125 16.875 1.72875 15.725 0.8525 14.4575C0.391123 13.7853 0.103393 13.0093 0.015 12.1987C0.00786884 12.126 0.00286675 12.053 0 11.98V11.875ZM1.25 11.95V11.9725L1.25875 12.0763C1.32658 12.6754 1.54032 13.2489 1.88125 13.7463C2.49 14.6262 3.76625 15.625 6.5625 15.625C9.35875 15.625 10.635 14.6262 11.2437 13.7463C11.5847 13.2489 11.7984 12.6754 11.8663 12.0763C11.8713 12.0288 11.8737 11.9942 11.8737 11.9725L11.875 11.9513V11.875C11.875 11.5435 11.7433 11.2255 11.5089 10.9911C11.2745 10.7567 10.9565 10.625 10.625 10.625H2.5C2.16848 10.625 1.85054 10.7567 1.61612 10.9911C1.3817 11.2255 1.25 11.5435 1.25 11.875V11.95ZM14.375 5C14.375 4.50272 14.5725 4.02581 14.9242 3.67417C15.2758 3.32254 15.7527 3.125 16.25 3.125C16.7473 3.125 17.2242 3.32254 17.5758 3.67417C17.9275 4.02581 18.125 4.50272 18.125 5C18.125 5.49728 17.9275 5.97419 17.5758 6.32583C17.2242 6.67746 16.7473 6.875 16.25 6.875C15.7527 6.875 15.2758 6.67746 14.9242 6.32583C14.5725 5.97419 14.375 5.49728 14.375 5ZM16.25 1.875C15.4212 1.875 14.6263 2.20424 14.0403 2.79029C13.4542 3.37634 13.125 4.1712 13.125 5C13.125 5.8288 13.4542 6.62366 14.0403 7.20971C14.6263 7.79576 15.4212 8.125 16.25 8.125C17.0788 8.125 17.8737 7.79576 18.4597 7.20971C19.0458 6.62366 19.375 5.8288 19.375 5C19.375 4.1712 19.0458 3.37634 18.4597 2.79029C17.8737 2.20424 17.0788 1.875 16.25 1.875Z" fill="white"/>
</svg>
