<svg width="21" height="20" viewBox="0 0 21 20" fill="none" xmlns="http://www.w3.org/2000/svg">
<path d="M13.635 10.5C13.515 10.5 13.39 10.48 13.27 10.44C13.0446 10.3683 12.8481 10.2261 12.7095 10.0344C12.5709 9.8427 12.4974 9.61156 12.5 9.375V7.97C11.37 7.79 10.5 6.805 10.5 5.625V2.375C10.5 1.065 11.565 0 12.875 0H18.625C19.935 0 21 1.065 21 2.375V5.625C21 6.935 19.935 8 18.625 8H16.065L14.525 10.05C14.305 10.34 13.98 10.5 13.635 10.5ZM12.875 1.25C12.255 1.25 11.75 1.755 11.75 2.375V5.625C11.75 6.245 12.255 6.75 12.875 6.75H13.75V9L15.44 6.75H18.63C19.25 6.75 19.755 6.245 19.755 5.625V2.375C19.755 1.755 19.25 1.25 18.63 1.25H12.875ZM6.5 11.75C4.43 11.75 2.75 10.07 2.75 8C2.75 5.93 4.43 4.25 6.5 4.25C8.57 4.25 10.25 5.93 10.25 8C10.25 10.07 8.57 11.75 6.5 11.75ZM6.5 5.5C5.12 5.5 4 6.62 4 8C4 9.38 5.12 10.5 6.5 10.5C7.88 10.5 9 9.38 9 8C9 6.62 7.88 5.5 6.5 5.5ZM0 15.395C0 15.44 0.0749998 20 6.5 20C12.925 20 13 15.44 13 15.395V14.875C13 13.84 12.16 13 11.125 13H1.875C0.84 13 0 13.84 0 14.875V15.395ZM1.25 14.875C1.25 14.53 1.53 14.25 1.875 14.25H11.125C11.47 14.25 11.75 14.53 11.75 14.875V15.39C11.75 15.525 11.64 18.75 6.5 18.75C1.36 18.75 1.25 15.525 1.25 15.395V14.875Z" fill="black"/>
</svg>
