<svg width="20" height="22" viewBox="0 0 20 22" fill="none" xmlns="http://www.w3.org/2000/svg">
<path d="M20 12.0003V16.0003H16V14.667H17.5938C17.309 14.2364 16.934 13.9066 16.4688 13.6774C16.0035 13.4482 15.5139 13.3337 15 13.3337C14.625 13.3337 14.2569 13.3962 13.8958 13.5212C13.5347 13.6462 13.2153 13.8267 12.9375 14.0628C12.6597 14.2989 12.434 14.5802 12.2604 14.9066C12.0868 15.233 12 15.5975 12 16.0003H10.6667C10.6667 15.41 10.7847 14.8719 11.0208 14.3857C11.2569 13.8996 11.5799 13.476 11.9896 13.1149C12.3993 12.7538 12.8611 12.4795 13.375 12.292C13.8889 12.1045 14.4306 12.0073 15 12.0003C15.3611 12.0003 15.7153 12.0385 16.0625 12.1149C16.4097 12.1913 16.7431 12.3128 17.0625 12.4795C17.3819 12.6462 17.6771 12.8406 17.9479 13.0628C18.2188 13.285 18.4583 13.5524 18.6667 13.8649V12.0003H20ZM15.6667 20.0003C16.0417 20.0003 16.4062 19.9378 16.7604 19.8128C17.1146 19.6878 17.434 19.5073 17.7188 19.2712C18.0035 19.035 18.2326 18.7538 18.4062 18.4274C18.5799 18.101 18.6667 17.7364 18.6667 17.3337H20C20 17.9239 19.8819 18.4621 19.6458 18.9482C19.4097 19.4344 19.0868 19.858 18.6771 20.2191C18.2674 20.5802 17.8056 20.8545 17.2917 21.042C16.7778 21.2295 16.2361 21.3267 15.6667 21.3337C15.3056 21.3337 14.9514 21.2955 14.6042 21.2191C14.2569 21.1427 13.9236 21.0212 13.6042 20.8545C13.2847 20.6878 12.9896 20.4934 12.7188 20.2712C12.4479 20.0489 12.2083 19.7816 12 19.4691V21.3337H10.6667V17.3337H14.6667V18.667H13.0729C13.3576 19.0975 13.7326 19.4274 14.1979 19.6566C14.6632 19.8857 15.1528 20.0003 15.6667 20.0003ZM13.3333 8.00033C12.7847 8.00033 12.2674 8.10449 11.7812 8.31283C11.2951 8.52116 10.8715 8.80588 10.5104 9.16699C10.1493 9.5281 9.86458 9.95171 9.65625 10.4378C9.44792 10.9239 9.34028 11.4413 9.33333 11.9899C9.33333 12.6357 9.19097 13.2399 8.90625 13.8024C8.62153 14.3649 8.21528 14.8406 7.6875 15.2295C8 15.3892 8.29514 15.5767 8.57292 15.792C8.85069 16.0073 9.10417 16.2469 9.33333 16.5107L8.27083 17.3337C7.89583 16.91 7.45486 16.5837 6.94792 16.3545C6.44097 16.1253 5.90278 16.0073 5.33333 16.0003C4.77778 16.0003 4.26042 16.1045 3.78125 16.3128C3.30208 16.5212 2.87847 16.8059 2.51042 17.167C2.14236 17.5281 1.85417 17.9552 1.64583 18.4482C1.4375 18.9413 1.33333 19.4587 1.33333 20.0003H0C0 19.4934 0.0694444 19.0038 0.208333 18.5316C0.347222 18.0594 0.545139 17.6114 0.802083 17.1878C1.05903 16.7642 1.37153 16.3892 1.73958 16.0628C2.10764 15.7364 2.51736 15.4552 2.96875 15.2191C2.45486 14.8441 2.05556 14.3753 1.77083 13.8128C1.48611 13.2503 1.34028 12.6462 1.33333 12.0003C1.33333 11.4517 1.4375 10.9344 1.64583 10.4482C1.85417 9.96213 2.13889 9.53852 2.5 9.17741C2.86111 8.8163 3.28472 8.5281 3.77083 8.31283C4.25694 8.09755 4.77778 7.99338 5.33333 8.00033C5.97222 8.00033 6.57292 8.14269 7.13542 8.42741C7.69792 8.71213 8.17014 9.11491 8.55208 9.63574C8.81597 9.11491 9.15278 8.64963 9.5625 8.23991C9.97222 7.83019 10.441 7.48991 10.9688 7.21908C10.4549 6.84408 10.0556 6.37533 9.77083 5.81283C9.48611 5.25033 9.34028 4.64616 9.33333 4.00033C9.33333 3.45171 9.4375 2.93435 9.64583 2.44824C9.85417 1.96213 10.1389 1.53852 10.5 1.17741C10.8611 0.816298 11.2847 0.528103 11.7708 0.312826C12.2569 0.0975477 12.7778 -0.00661892 13.3333 0.000325521C13.8819 0.000325521 14.3993 0.104492 14.8854 0.312826C15.3715 0.521159 15.7951 0.805881 16.1562 1.16699C16.5174 1.5281 16.8056 1.95519 17.0208 2.44824C17.2361 2.9413 17.3403 3.45866 17.3333 4.00033C17.3333 4.63921 17.191 5.23991 16.9062 5.80241C16.6215 6.36491 16.2188 6.83713 15.6979 7.21908C16.3924 7.5663 16.9792 8.03852 17.4583 8.63574C17.9375 9.23296 18.2778 9.91005 18.4792 10.667H17.0833C16.9444 10.2712 16.75 9.91005 16.5 9.58366C16.25 9.25727 15.9618 8.97602 15.6354 8.73991C15.309 8.5038 14.9514 8.32324 14.5625 8.19824C14.1736 8.07324 13.7639 8.00727 13.3333 8.00033ZM13.3333 1.33366C12.9653 1.33366 12.6215 1.4031 12.3021 1.54199C11.9826 1.68088 11.6979 1.87185 11.4479 2.11491C11.1979 2.35796 11.0069 2.63921 10.875 2.95866C10.7431 3.2781 10.6736 3.62533 10.6667 4.00033C10.6667 4.36838 10.7361 4.71213 10.875 5.03158C11.0139 5.35102 11.2049 5.63574 11.4479 5.88574C11.691 6.13574 11.9722 6.32671 12.2917 6.45866C12.6111 6.5906 12.9583 6.66005 13.3333 6.66699C13.7014 6.66699 14.0451 6.59755 14.3646 6.45866C14.684 6.31977 14.9688 6.1288 15.2188 5.88574C15.4688 5.64269 15.6597 5.36144 15.7917 5.04199C15.9236 4.72255 15.9931 4.37533 16 4.00033C16 3.63227 15.9306 3.28852 15.7917 2.96908C15.6528 2.64963 15.4618 2.36491 15.2188 2.11491C14.9757 1.86491 14.6944 1.67394 14.375 1.54199C14.0556 1.41005 13.7083 1.3406 13.3333 1.33366ZM5.33333 14.667C5.70139 14.667 6.04514 14.5975 6.36458 14.4587C6.68403 14.3198 6.96875 14.1288 7.21875 13.8857C7.46875 13.6427 7.65972 13.3614 7.79167 13.042C7.92361 12.7225 7.99306 12.3753 8 12.0003C8 11.6323 7.93056 11.285 7.79167 10.9587C7.65278 10.6323 7.46528 10.351 7.22917 10.1149C6.99306 9.8788 6.70833 9.68783 6.375 9.54199C6.04167 9.39616 5.69444 9.32671 5.33333 9.33366C4.96528 9.33366 4.62153 9.4031 4.30208 9.54199C3.98264 9.68088 3.69792 9.87185 3.44792 10.1149C3.19792 10.358 3.00694 10.6392 2.875 10.9587C2.74306 11.2781 2.67361 11.6253 2.66667 12.0003C2.66667 12.3684 2.73611 12.7121 2.875 13.0316C3.01389 13.351 3.20486 13.6357 3.44792 13.8857C3.69097 14.1357 3.97222 14.3267 4.29167 14.4587C4.61111 14.5906 4.95833 14.66 5.33333 14.667Z" fill="white"/>
</svg>
