<svg width="25" height="25" viewBox="0 0 25 25" fill="none" xmlns="http://www.w3.org/2000/svg">
<path d="M24.7455 12.7782C24.7455 11.7504 24.6613 11.0004 24.479 10.2227H12.6253V14.8615H19.5832C19.4429 16.0143 18.6854 17.7504 17.002 18.917L16.9784 19.0724L20.7263 21.947L20.986 21.9727C23.3707 19.7921 24.7455 16.5837 24.7455 12.7782Z" fill="#4285F4"/>
<path d="M12.6253 24.9995C16.034 24.9995 18.8957 23.8883 20.986 21.9717L17.002 18.9161C15.9359 19.6522 14.505 20.1661 12.6253 20.1661C9.28661 20.1661 6.45296 17.9856 5.44285 14.9717L5.29479 14.9841L1.39764 17.9703L1.34668 18.1105C3.42281 22.1938 7.68735 24.9995 12.6253 24.9995Z" fill="#34A853"/>
<path d="M5.44283 14.9714C5.1763 14.1936 5.02205 13.3602 5.02205 12.4991C5.02205 11.638 5.1763 10.8047 5.4288 10.0269L5.42175 9.86124L1.47577 6.82715L1.34666 6.88795C0.490987 8.58242 0 10.4852 0 12.4991C0 14.513 0.490987 16.4157 1.34666 18.1102L5.44283 14.9714Z" fill="#FBBC05"/>
<path d="M12.6253 4.83331C14.996 4.83331 16.5951 5.8472 17.507 6.69448L21.0701 3.25001C18.8818 1.23612 16.034 0 12.6253 0C7.68735 0 3.42281 2.80554 1.34668 6.88885L5.42882 10.0278C6.45296 7.0139 9.28661 4.83331 12.6253 4.83331Z" fill="#EB4335"/>
</svg>
