<svg width="23" height="19" viewBox="0 0 23 19" fill="none" xmlns="http://www.w3.org/2000/svg">
<path d="M15 17.3333H8V5.2C8 5.01435 8.07375 4.8363 8.20502 4.70502C8.3363 4.57375 8.51435 4.5 8.7 4.5H14.3C14.4857 4.5 14.6637 4.57375 14.795 4.70502C14.9263 4.8363 15 5.01435 15 5.2V17.3333ZM15 1H8H15ZM21.3 17.3333H15V12.7833C15 12.5977 15.0737 12.4196 15.205 12.2884C15.3363 12.1571 15.5143 12.0833 15.7 12.0833H21.3C21.4857 12.0833 21.6637 12.1571 21.795 12.2884C21.9263 12.4196 22 12.5977 22 12.7833V16.6333C22 16.819 21.9263 16.997 21.795 17.1283C21.6637 17.2596 21.4857 17.3333 21.3 17.3333ZM8 17.3333V10.45C8 10.2643 7.92625 10.0863 7.79498 9.95503C7.6637 9.82375 7.48565 9.75 7.3 9.75H1.7C1.51435 9.75 1.3363 9.82375 1.20503 9.95503C1.07375 10.0863 1 10.2643 1 10.45V16.6333C1 16.819 1.07375 16.997 1.20503 17.1283C1.3363 17.2596 1.51435 17.3333 1.7 17.3333H8Z" fill="white"/>
<path d="M15 17.3333H8M15 17.3333V5.2C15 5.01435 14.9263 4.8363 14.795 4.70502C14.6637 4.57375 14.4857 4.5 14.3 4.5H8.7C8.51435 4.5 8.3363 4.57375 8.20502 4.70502C8.07375 4.8363 8 5.01435 8 5.2V17.3333M15 17.3333H21.3C21.4857 17.3333 21.6637 17.2596 21.795 17.1283C21.9263 16.997 22 16.819 22 16.6333V12.7833C22 12.5977 21.9263 12.4196 21.795 12.2884C21.6637 12.1571 21.4857 12.0833 21.3 12.0833H15.7C15.5143 12.0833 15.3363 12.1571 15.205 12.2884C15.0737 12.4196 15 12.5977 15 12.7833V17.3333ZM8 17.3333V10.45C8 10.2643 7.92625 10.0863 7.79498 9.95503C7.6637 9.82375 7.48565 9.75 7.3 9.75H1.7C1.51435 9.75 1.3363 9.82375 1.20503 9.95503C1.07375 10.0863 1 10.2643 1 10.45V16.6333C1 16.819 1.07375 16.997 1.20503 17.1283C1.3363 17.2596 1.51435 17.3333 1.7 17.3333H8ZM15 1H8" stroke="black" stroke-width="1.5" stroke-linecap="round" stroke-linejoin="round"/>
</svg>
