<svg width="22" height="25" viewBox="0 0 22 25" fill="none" xmlns="http://www.w3.org/2000/svg">
<path d="M7.32162 19.3918V20.3114C7.32162 21.287 7.70917 22.2226 8.399 22.9124C9.08883 23.6023 10.0244 23.9898 11 23.9898C11.9756 23.9898 12.9112 23.6023 13.601 22.9124C14.2908 22.2226 14.6784 21.287 14.6784 20.3114V19.3918M2.74699 9.27628C2.74547 8.18565 2.95982 7.10551 3.3777 6.09811C3.79557 5.09071 4.4087 4.17598 5.18175 3.40664C5.95479 2.63731 6.87247 2.02858 7.88187 1.61556C8.89127 1.20254 9.97243 0.993388 11.063 1.00016C15.6138 1.03399 19.2539 4.81663 19.2539 9.38018V10.1959C19.2539 14.3129 20.1153 16.7019 20.8739 18.0076C20.9556 18.1471 20.9991 18.3057 21 18.4674C21.0009 18.6291 20.9591 18.7882 20.8788 18.9286C20.7986 19.069 20.6828 19.1857 20.543 19.267C20.4033 19.3484 20.2446 19.3914 20.0829 19.3918H1.91712C1.75541 19.3914 1.59667 19.3484 1.45692 19.267C1.31716 19.1856 1.20133 19.0689 1.12111 18.9285C1.04089 18.7881 0.999121 18.629 1.00001 18.4673C1.00091 18.3056 1.04443 18.1469 1.1262 18.0074C1.88524 16.7016 2.74698 14.3127 2.74698 10.1959L2.74699 9.27628Z" stroke="black" stroke-width="1.5" stroke-linecap="round" stroke-linejoin="round"/>
</svg>
