<svg width="24" height="22" viewBox="0 0 24 22" fill="none" xmlns="http://www.w3.org/2000/svg">
<path d="M21.4062 4.62891H17.5C17.2656 4.62891 17.1094 4.47266 17.1094 4.23828C17.1094 4.00391 17.2656 3.84766 17.5 3.84766H21.4062C21.6406 3.84766 21.7969 4.00391 21.7969 4.23828C21.7969 4.47266 21.6406 4.62891 21.4062 4.62891ZM19.8437 6.19141H17.5C17.2656 6.19141 17.1094 6.03516 17.1094 5.80078C17.1094 5.56641 17.2656 5.41016 17.5 5.41016H19.8437C20.0781 5.41016 20.2344 5.56641 20.2344 5.80078C20.2344 6.03516 20.0781 6.19141 19.8437 6.19141ZM8.59375 15.8008H8.4375C8.20312 15.7227 5.9375 14.6289 5.9375 13.1445V11.5039C5.9375 11.2695 6.09375 11.1133 6.32812 11.1133C6.5625 11.1133 6.71875 11.2695 6.71875 11.5039V13.1445C6.71875 13.9258 7.96875 14.707 8.59375 15.0195C9.21875 14.707 10.4687 13.9258 10.4687 13.1445V11.5039C10.4687 11.2695 10.625 11.1133 10.8594 11.1133C11.0937 11.1133 11.25 11.2695 11.25 11.5039V13.1445C11.25 14.6289 8.98437 15.6445 8.75 15.8008H8.59375Z" fill="black"/>
<path d="M8.59375 12.4414C6.01562 12.4414 3.90625 10.332 3.90625 7.75391V6.58203C3.90625 6.34766 4.0625 6.19141 4.29688 6.19141C4.53125 6.19141 4.6875 6.34766 4.6875 6.58203V7.75391C4.6875 9.94141 6.40625 11.6602 8.59375 11.6602C10.7812 11.6602 12.5 9.94141 12.5 7.75391V6.58203C12.5 6.34766 12.6562 6.19141 12.8906 6.19141C13.125 6.19141 13.2812 6.34766 13.2812 6.58203V7.75391C13.2812 10.332 11.1719 12.4414 8.59375 12.4414Z" fill="black"/>
<path d="M12.8904 6.81606H12.6561C12.4217 6.81606 12.2654 6.65981 12.2654 6.42543C12.2654 6.19106 12.4217 6.03481 12.5779 6.03481L13.2811 4.08168C13.3592 3.76918 13.2811 3.37856 13.0467 3.14418C12.8123 2.83168 12.4217 2.67543 12.1092 2.67543C11.8748 2.67543 11.7186 2.51918 11.7186 2.28481C11.7186 1.81606 11.4842 1.34731 11.1717 1.03481C10.8592 0.722309 10.3904 0.644184 9.92169 0.722309L5.23419 1.50356C4.84357 1.58168 4.45294 1.81606 4.21857 2.12856C3.98419 2.51918 3.82794 2.90981 3.90607 3.37856L4.60919 6.03481C4.76544 6.03481 4.92169 6.19106 4.92169 6.42543C4.92169 6.65981 4.76544 6.81606 4.53107 6.81606H4.29669C4.14044 6.81606 3.98419 6.65981 3.90607 6.50356L3.12482 3.53481C2.96857 2.90981 3.12482 2.28481 3.51544 1.73793C3.90607 1.19106 4.45294 0.878559 5.07794 0.800434L9.76544 0.0191838C10.4686 -0.0589412 11.0936 0.0973089 11.6404 0.566059C12.1092 0.956684 12.3436 1.50356 12.4217 2.05043C12.8904 2.05043 13.2811 2.28481 13.5936 2.67543C13.9842 3.14418 14.1404 3.76918 13.9842 4.31606L13.2029 6.50356C13.2029 6.65981 13.0467 6.81606 12.8904 6.81606Z" fill="black"/>
<path d="M12.8125 6.81597H12.5781C12.0312 6.81597 11.4844 6.34721 11.4844 5.72221V4.55034C10.0781 5.56596 8.20312 5.95659 6.48438 5.64409L5.85938 5.48784C5.78125 5.48784 5.625 5.64409 5.625 5.80034C5.625 6.34722 5.15625 6.89409 4.53125 6.89409H4.375C4.14062 6.89409 3.98438 6.73784 3.98438 6.50346C3.98438 6.26909 4.14062 6.11284 4.375 6.11284H4.60938C4.76562 6.11284 4.92188 5.95659 4.92188 5.80034C4.92188 5.25347 5.39062 4.70659 6.01562 4.70659L6.79688 4.86284C8.35938 5.17534 10 4.78472 11.25 3.84722C11.4844 3.69097 11.7969 3.69097 12.0312 3.76909C12.2656 3.84722 12.4219 4.15971 12.4219 4.39409V5.72221C12.4219 5.87846 12.5781 6.03472 12.7344 6.03472H12.9688C13.2031 6.03472 13.3594 6.19097 13.3594 6.42534C13.3594 6.65972 13.0469 6.81597 12.8125 6.81597ZM16.7969 21.0347H0.390625C0.15625 21.0347 0 20.8785 0 20.6441V17.7535C0 16.191 1.01562 14.7847 2.5 14.2378L6.17187 12.9878C6.40625 12.9097 6.5625 13.066 6.64062 13.2222C6.71875 13.4566 6.5625 13.6128 6.40625 13.691L2.73438 14.941C1.5625 15.4097 0.78125 16.5035 0.78125 17.7535V20.2535H16.4062V17.7535C16.4062 16.5035 15.625 15.4097 14.4531 15.0191L10.7812 13.7691C10.5469 13.691 10.4688 13.4566 10.5469 13.3003C10.625 13.066 10.8594 12.9878 11.0156 13.066L14.6875 14.316C16.1719 14.7847 17.1875 16.191 17.1875 17.8316V20.6441C17.1875 20.8785 17.0312 21.0347 16.7969 21.0347Z" fill="black"/>
<path d="M16.7969 21.0352H12.8906C12.6562 21.0352 12.5 20.8789 12.5 20.6445V20.0195C12.5 17.832 14.1406 15.957 16.3281 15.7227C16.4844 15.7227 16.6406 15.8008 16.7188 15.8789C17.0312 16.4258 17.2656 17.1289 17.2656 17.7539V20.6445C17.1875 20.8789 17.0312 21.0352 16.7969 21.0352ZM13.2812 20.2539H16.4062V17.7539C16.4062 17.3633 16.3281 16.8945 16.0938 16.5039C14.4531 16.8164 13.2812 18.3008 13.2812 20.0195V20.2539ZM4.29688 21.0352H0.390625C0.15625 21.0352 0 20.8789 0 20.6445V17.7539C0 17.1289 0.15625 16.4258 0.546875 15.8789C0.625 15.7227 0.78125 15.6445 0.9375 15.7227C3.04688 15.957 4.6875 17.832 4.6875 20.0195V20.6445C4.6875 20.8789 4.53125 21.0352 4.29688 21.0352ZM0.78125 20.2539H3.90625V20.0195C3.90625 18.3008 2.65625 16.8945 1.01562 16.5039C0.859375 16.8945 0.78125 17.3633 0.78125 17.7539V20.2539ZM12.5 10.5664H9.76562C9.53125 10.5664 9.375 10.4102 9.375 10.1758C9.375 9.94141 9.53125 9.78516 9.76562 9.78516H12.5C13.3594 9.78516 14.0625 9.08203 14.0625 8.22266V6.89453C14.0625 6.66016 14.2188 6.50391 14.4531 6.50391C14.6875 6.50391 14.8438 6.66016 14.8438 6.89453V8.22266C14.8438 9.47266 13.75 10.5664 12.5 10.5664ZM4.29688 8.53516H3.51562C2.89062 8.53516 2.34375 7.98828 2.34375 7.36328V6.58203C2.34375 5.95703 2.89062 5.41016 3.51562 5.41016H3.90625C4.14062 5.41016 4.29688 5.56641 4.29688 5.80078C4.29688 6.03516 4.14062 6.19141 3.90625 6.19141H3.51562C3.28125 6.19141 3.125 6.34766 3.125 6.58203V7.36328C3.125 7.59766 3.28125 7.75391 3.51562 7.75391H3.90625V6.97266C3.90625 6.73828 4.0625 6.58203 4.29688 6.58203C4.53125 6.58203 4.6875 6.73828 4.6875 6.97266V8.14453C4.6875 8.37891 4.53125 8.53516 4.29688 8.53516Z" fill="black"/>
<path d="M13.6719 8.53516H12.8906C12.6562 8.53516 12.5 8.37891 12.5 8.14453V6.97266C12.5 6.73828 12.6562 6.58203 12.8906 6.58203C13.125 6.58203 13.2812 6.73828 13.2812 6.97266V7.75391H13.6719C13.9062 7.75391 14.0625 7.59766 14.0625 7.36328V6.58203C14.0625 6.34766 13.9062 6.19141 13.6719 6.19141H13.2812C13.0469 6.19141 12.8906 6.03516 12.8906 5.80078C12.8906 5.56641 13.0469 5.41016 13.2812 5.41016H13.6719C14.2969 5.41016 14.8438 5.95703 14.8438 6.58203V7.36328C14.8438 7.98828 14.2969 8.53516 13.6719 8.53516ZM17.5781 9.31641C17.5 9.31641 17.4219 9.31641 17.4219 9.23828C17.2656 9.16016 17.1875 9.08203 17.1875 8.92578V7.75391H16.7969C16.1719 7.75391 15.625 7.20703 15.625 6.58203V3.45703C15.625 2.83203 16.1719 2.28516 16.7969 2.28516H22.2656C22.8906 2.28516 23.4375 2.83203 23.4375 3.45703V6.58203C23.4375 7.20703 22.8906 7.75391 22.2656 7.75391H20.0781L17.8125 9.23828C17.7344 9.31641 17.6562 9.31641 17.5781 9.31641ZM16.7969 3.06641C16.5625 3.06641 16.4062 3.22266 16.4062 3.45703V6.58203C16.4062 6.81641 16.5625 6.97266 16.7969 6.97266H17.5781C17.8125 6.97266 17.9688 7.12891 17.9688 7.36328V8.22266L19.6875 7.05078C19.7656 6.97266 19.8438 6.97266 19.9219 6.97266H22.2656C22.5 6.97266 22.6562 6.81641 22.6562 6.58203V3.45703C22.6562 3.22266 22.5 3.06641 22.2656 3.06641H16.7969Z" fill="black"/>
</svg>
