<svg width="20" height="25" viewBox="0 0 20 25" fill="none" xmlns="http://www.w3.org/2000/svg">
<path d="M18.75 11.2503H11.7675L13.3837 9.63401C13.6114 9.39826 13.7374 9.08251 13.7346 8.75476C13.7317 8.42702 13.6002 8.1135 13.3685 7.88174C13.1367 7.64998 12.8232 7.51852 12.4955 7.51567C12.1677 7.51282 11.852 7.63882 11.6162 7.86651L7.86623 11.6165C7.63189 11.8509 7.50024 12.1688 7.50024 12.5003C7.50024 12.8317 7.63189 13.1496 7.86623 13.384L11.6162 17.134C11.852 17.3617 12.1677 17.4877 12.4955 17.4848C12.8232 17.482 13.1367 17.3505 13.3685 17.1188C13.6002 16.887 13.7317 16.5735 13.7346 16.2457C13.7374 15.918 13.6114 15.6023 13.3837 15.3665L11.7675 13.7503H18.75C19.0815 13.7503 19.3994 13.6186 19.6338 13.3841C19.8683 13.1497 20 12.8318 20 12.5003C20 12.1687 19.8683 11.8508 19.6338 11.6164C19.3994 11.382 19.0815 11.2503 18.75 11.2503Z" fill="#6563FF"/>
<path d="M11.7675 13.75L13.3837 15.3662C13.5031 15.4815 13.5983 15.6195 13.6639 15.772C13.7294 15.9245 13.7638 16.0885 13.7653 16.2545C13.7667 16.4204 13.7351 16.585 13.6723 16.7387C13.6094 16.8923 13.5166 17.0318 13.3992 17.1492C13.2819 17.2666 13.1423 17.3594 12.9887 17.4222C12.835 17.4851 12.6705 17.5167 12.5045 17.5153C12.3385 17.5138 12.1745 17.4794 12.022 17.4138C11.8695 17.3483 11.7315 17.2531 11.6162 17.1337L7.86624 13.3837C7.6319 13.1493 7.50025 12.8314 7.50025 12.5C7.50025 12.1685 7.6319 11.8506 7.86624 11.6162L11.6162 7.86624C11.852 7.63854 12.1677 7.51255 12.4955 7.51539C12.8232 7.51824 13.1367 7.6497 13.3685 7.88146C13.6003 8.11322 13.7317 8.42674 13.7346 8.75448C13.7374 9.08223 13.6114 9.39798 13.3837 9.63373L11.7675 11.25H17.5V3.74999C17.499 2.75574 17.1036 1.80249 16.4005 1.09944C15.6975 0.396399 14.7442 0.000992767 13.75 0H3.74999C2.75574 0.000992767 1.80249 0.396399 1.09944 1.09944C0.396399 1.80249 0.000992767 2.75574 0 3.74999V21.25C0.000992767 22.2442 0.396399 23.1975 1.09944 23.9005C1.80249 24.6036 2.75574 24.999 3.74999 25H13.75C14.7442 24.999 15.6975 24.6036 16.4005 23.9005C17.1036 23.1975 17.499 22.2442 17.5 21.25V13.75H11.7675Z" fill="#B2B1FF"/>
</svg>
