<svg width="18" height="19" viewBox="0 0 18 19" fill="none" xmlns="http://www.w3.org/2000/svg">
<path d="M16.154 10.5289C15.8171 10.2818 15.6158 9.88486 15.6158 9.46665C15.6158 9.04844 15.8171 8.65149 16.1535 8.40482L17.7101 7.2636C17.9582 7.08119 18.0608 6.76032 17.9639 6.46781C17.5632 5.26374 16.9295 4.16553 16.0798 3.20293C15.8752 2.97233 15.5454 2.89955 15.2632 3.02336L13.5105 3.7941C13.1287 3.96233 12.684 3.93823 12.3216 3.72889C11.9596 3.52002 11.7167 3.14764 11.6709 2.73227L11.4601 0.808025C11.4266 0.501809 11.1988 0.2523 10.8973 0.190396C9.67008 -0.0605311 8.38048 -0.0647839 7.13152 0.18567C6.82814 0.24663 6.59989 0.496139 6.56634 0.803772L6.35747 2.71573C6.31164 3.13158 6.06874 3.50395 5.70582 3.71282C5.34384 3.92169 4.90059 3.94673 4.51734 3.77803L2.75519 3.00304C2.47544 2.87923 2.14465 2.95106 1.94003 3.1812C1.08754 4.14001 0.45101 5.23681 0.0460309 6.43993C-0.0522605 6.73197 0.0498113 7.05473 0.298848 7.23761L1.84552 8.37174C2.18292 8.61936 2.38423 9.0163 2.38423 9.43451C2.38423 9.85272 2.18292 10.2497 1.84646 10.4963L0.289869 11.6376C0.0417778 11.82 -0.0607664 12.1408 0.0361073 12.4333C0.436834 13.6374 1.07053 14.7356 1.92018 15.6982C2.1248 15.9293 2.45559 16.0026 2.73676 15.8778L4.48946 15.1071C4.87129 14.9388 5.31549 14.9629 5.67841 15.1723C6.04039 15.3811 6.28328 15.7535 6.32912 16.1689L6.53988 18.0931C6.57343 18.3993 6.8012 18.6489 7.10269 18.7108C7.72363 18.8374 8.36158 18.9017 9 18.9017C9.62283 18.9017 10.2513 18.8388 10.868 18.715C11.1714 18.6541 11.3996 18.4045 11.4332 18.0969L11.6425 16.185C11.6884 15.7691 11.9313 15.3967 12.2942 15.1879C12.6562 14.9795 13.0999 14.9549 13.4827 15.1227L15.2448 15.8976C15.5255 16.0219 15.8554 15.9501 16.06 15.7195C16.9125 14.7607 17.549 13.6639 17.954 12.4608C18.0523 12.1687 17.9502 11.846 17.7012 11.6631L16.154 10.5289ZM9 12.7585C7.1731 12.7585 5.69212 11.2775 5.69212 9.45058C5.69212 7.62368 7.1731 6.1427 9 6.1427C10.8269 6.1427 12.3079 7.62368 12.3079 9.45058C12.3079 11.2775 10.8269 12.7585 9 12.7585Z" fill="white"/>
</svg>
