<svg width="18" height="18" viewBox="0 0 18 18" fill="none" xmlns="http://www.w3.org/2000/svg">
<path d="M10.3779 16.2791H7.12207V17.5H10.3779V16.2791ZM1.22093 10.3779V7.12212H1.03028e-06V10.3779H1.22093ZM16.279 10.0222V10.3779H17.4999V10.0222H16.279ZM11.1031 2.73573L14.3255 5.63584L15.1419 4.72747L11.9203 1.82737L11.1031 2.73573ZM17.4999 10.0222C17.4999 8.64746 17.5122 7.77653 17.1662 6.99839L16.0503 7.49572C16.2668 7.98246 16.279 8.54002 16.279 10.0222H17.4999ZM14.3255 5.63584C15.4268 6.62723 15.8338 7.00979 16.0503 7.49572L17.1662 6.99839C16.8195 6.21944 16.1643 5.64724 15.1419 4.72747L14.3255 5.63584ZM7.14649 1.22097C8.43416 1.22097 8.92009 1.23074 9.3523 1.39679L9.7902 0.257254C9.09672 -0.00972202 8.34137 4.54066e-05 7.14649 4.54066e-05V1.22097ZM11.9203 1.82818C11.0364 1.03295 10.4837 0.522602 9.7902 0.257254L9.35311 1.39679C9.78613 1.56283 10.1508 1.87864 11.1031 2.73573L11.9203 1.82818ZM7.12207 16.2791C5.56987 16.2791 4.46778 16.2774 3.63022 16.1651C2.8122 16.0552 2.34011 15.8485 1.99581 15.5042L1.13302 16.367C1.74186 16.9774 2.5143 17.2469 3.46825 17.3755C4.40429 17.5016 5.60487 17.5 7.12207 17.5V16.2791ZM1.03028e-06 10.3779C1.03028e-06 11.8951 -0.00162687 13.0949 0.124536 14.0317C0.25314 14.9857 0.523372 15.7581 1.13221 16.3678L1.99499 15.505C1.65151 15.1599 1.44476 14.6878 1.33488 13.869C1.22256 13.033 1.22093 11.9301 1.22093 10.3779H1.03028e-06ZM10.3779 17.5C11.8951 17.5 13.0948 17.5016 14.0317 17.3755C14.9857 17.2469 15.7581 16.9766 16.3677 16.3678L15.505 15.505C15.1598 15.8485 14.6877 16.0552 13.8689 16.1651C13.033 16.2774 11.9301 16.2791 10.3779 16.2791V17.5ZM16.279 10.3779C16.279 11.9301 16.2774 13.033 16.1651 13.8698C16.0552 14.6878 15.8484 15.1599 15.5041 15.5042L16.3669 16.367C16.9774 15.7581 17.2468 14.9857 17.3754 14.0317C17.5016 13.0957 17.4999 11.8951 17.4999 10.3779H16.279ZM1.22093 7.12212C1.22093 5.56991 1.22256 4.46782 1.33488 3.63027C1.44476 2.81225 1.65151 2.34015 1.99581 1.99585L1.13302 1.13307C0.522558 1.7419 0.25314 2.51434 0.124536 3.46829C-0.00162687 4.40433 1.03028e-06 5.60491 1.03028e-06 7.12212H1.22093ZM7.14649 4.54066e-05C5.62033 4.54066e-05 4.41487 -0.00158249 3.47476 0.12458C2.51674 0.253184 1.74186 0.523416 1.13221 1.13225L1.99499 1.99504C2.34011 1.65155 2.81302 1.44481 3.63673 1.33493C4.47755 1.2226 5.58615 1.22097 7.14649 1.22097V4.54066e-05Z" fill="white"/>
<path d="M9.56396 1.01758V3.05246C9.56396 4.97094 9.56397 5.93059 10.1598 6.5264C10.7556 7.12221 11.7152 7.12221 13.6337 7.12221H16.8895" fill="white"/>
<path d="M9.56396 1.01758V3.05246C9.56396 4.97094 9.56397 5.93059 10.1598 6.5264C10.7556 7.12221 11.7152 7.12221 13.6337 7.12221H16.8895" stroke="black" stroke-width="1.5"/>
</svg>
