<svg width="250" height="50" viewBox="0 0 250 50" fill="none" xmlns="http://www.w3.org/2000/svg">
<rect x="0.5" y="0.5" width="249" height="49" rx="9.5" fill="black" stroke="#B8B7BB"/>
<path d="M142.584 32H140.428L139.68 29.646H133.278L132.552 32H130.396L135.61 16.6H137.37L142.584 32ZM136.468 19.372L133.85 27.842H139.13L136.468 19.372ZM150.259 21.594C153.163 21.594 155.165 23.772 155.165 26.94C155.165 30.042 153.075 32.264 150.149 32.264C148.587 32.264 147.179 31.472 146.519 30.218V36.686H144.627V21.858H146.519V23.662C147.179 22.386 148.631 21.594 150.259 21.594ZM149.885 30.548C151.843 30.548 153.251 29.052 153.251 26.94C153.251 24.828 151.843 23.31 149.885 23.31C147.861 23.31 146.431 24.806 146.431 26.94C146.431 29.052 147.861 30.548 149.885 30.548ZM163.257 21.594C166.161 21.594 168.163 23.772 168.163 26.94C168.163 30.042 166.073 32.264 163.147 32.264C161.585 32.264 160.177 31.472 159.517 30.218V36.686H157.625V21.858H159.517V23.662C160.177 22.386 161.629 21.594 163.257 21.594ZM162.883 30.548C164.841 30.548 166.249 29.052 166.249 26.94C166.249 24.828 164.841 23.31 162.883 23.31C160.859 23.31 159.429 24.806 159.429 26.94C159.429 29.052 160.859 30.548 162.883 30.548ZM172.537 32H170.623V16.6H172.537V32ZM184.819 26.368C184.819 26.742 184.819 27.028 184.775 27.49H176.921C176.965 29.448 178.175 30.592 180.111 30.592C181.453 30.592 182.377 30.064 182.795 29.096H184.709C184.357 30.966 182.487 32.264 180.111 32.264C176.987 32.264 175.029 30.196 175.029 26.918C175.029 23.706 177.009 21.594 180.023 21.594C182.883 21.594 184.819 23.574 184.819 26.368ZM176.921 26.016H182.949C182.949 24.234 181.849 23.134 180.001 23.134C178.153 23.134 177.009 24.3 176.921 26.016Z" fill="white"/>
<path d="M98.8537 14.9872C99.3262 14.4426 99.6865 13.81 99.9139 13.1258C100.141 12.4415 100.231 11.7191 100.179 11C98.7279 11.1171 97.3813 11.7994 96.4289 12.8999C95.9728 13.4273 95.6272 14.0409 95.4125 14.7043C95.1978 15.3677 95.1184 16.0675 95.179 16.7621C95.8866 16.768 96.5861 16.611 97.2233 16.3032C97.8605 15.9954 98.4184 15.5452 98.8537 14.9872ZM102.004 24.2866C102.012 23.3289 102.264 22.389 102.737 21.5558C103.209 20.7226 103.886 20.0235 104.703 19.5244C104.187 18.781 103.505 18.1681 102.711 17.7341C101.917 17.3002 101.033 17.0573 100.129 17.0246C98.1788 16.8246 96.3789 18.162 95.3414 18.162C94.304 18.162 92.8416 17.0496 91.2167 17.0746C90.1545 17.1096 89.1194 17.4193 88.2125 17.9735C87.3056 18.5277 86.5578 19.3075 86.0421 20.2369C83.8422 24.0616 85.4796 29.7488 87.6795 32.836C88.6794 34.3484 89.9293 36.0608 91.5792 35.9983C93.2291 35.9358 93.7666 34.9734 95.6789 34.9734C97.5913 34.9734 98.1788 35.9983 99.8037 35.9608C101.429 35.9233 102.578 34.4109 103.628 32.8985C104.372 31.8005 104.953 30.6007 105.353 29.3363C104.363 28.9138 103.518 28.2105 102.922 27.3131C102.327 26.4156 102.008 25.3635 102.004 24.2866Z" fill="white"/>
</svg>
