<svg width="35" height="35" viewBox="0 0 35 35" fill="none" xmlns="http://www.w3.org/2000/svg">
<g filter="url(#filter0_i_133_344)">
<circle cx="17.5" cy="17.5" r="17.5" transform="matrix(-1 0 0 1 35 0)" fill="black"/>
</g>
<path d="M21.9853 12.2748L20.3659 10.6554C20.0575 10.347 19.5948 10.347 19.2863 10.6554C18.9779 10.9639 18.9779 11.4266 19.2863 11.735L19.5948 12.0435H16.3561C15.8934 12.0435 15.585 12.3519 15.585 12.8146C15.585 13.2772 15.8934 13.5857 16.3561 13.5857H19.5948L19.2863 13.8941C18.9779 14.2026 18.9779 14.6653 19.2863 14.9737C19.5948 15.2822 20.0575 15.2822 20.3659 14.9737L21.9853 13.3544C22.2937 13.0459 22.2937 12.5832 21.9853 12.2748Z" fill="#A3D86B"/>
<path d="M21.1366 17.9811L22.7559 19.6004C23.0644 19.9089 23.527 19.9089 23.8355 19.6004C24.1439 19.292 24.1439 18.8293 23.8355 18.5208L23.527 18.2124H26.8429C27.3055 18.2124 27.614 17.904 27.614 17.4413C27.614 16.9786 27.3055 16.6702 26.8429 16.6702H23.6042L23.9126 16.3617C24.2211 16.0533 24.2211 15.5906 23.9126 15.2821C23.6042 14.9737 23.1415 14.9737 22.833 15.2821L21.2137 16.9015C20.9052 17.2099 20.9052 17.6726 21.1366 17.9811Z" fill="#FF9E68"/>
<path d="M23.2966 22.6849L21.6001 20.9885C21.3688 20.7571 20.9061 20.68 20.5977 20.9113L18.9012 22.068C18.2843 22.4536 17.5132 22.3765 16.9734 21.9138L12.7323 17.6726C12.1925 17.1329 12.1154 16.3617 12.578 15.7448L13.7347 14.0484C13.9661 13.7399 13.8889 13.3544 13.6576 13.0459L11.8069 11.2724C11.4985 10.9639 11.0358 10.9639 10.7274 11.2724L9.26223 12.7375C8.49111 13.5086 8.18267 14.5882 8.414 15.6677C8.87667 17.4413 9.7249 18.9835 11.0358 20.2944L14.1974 23.456C15.5083 24.7669 17.0505 25.6152 18.8241 26.0778C19.9037 26.3092 20.9832 26.0007 21.7544 25.2296L23.2195 23.7645C23.605 23.456 23.605 22.9934 23.2966 22.6849Z" fill="#13134D"/>
<path d="M22.1396 24.9212L23.2963 23.7645C23.6047 23.456 23.6047 22.9934 23.2963 22.6849L21.5998 20.9885C21.3685 20.7571 20.9058 20.68 20.5974 20.9113L19.1322 21.8367L22.1396 24.9212ZM12.6548 15.4364L13.6573 13.9713C13.8886 13.6628 13.8115 13.2773 13.5802 12.9688L11.8066 11.2724C11.4981 10.9639 11.0355 10.9639 10.727 11.2724L9.64746 12.3519L12.6548 15.4364Z" fill="#33A0EE"/>
<path d="M19.5952 26.5405C19.2867 26.5405 19.0554 26.5405 18.747 26.4634C16.8963 26.0007 15.2769 25.0754 13.966 23.7645L10.8044 20.6029C9.49352 19.292 8.56818 17.5955 8.10551 15.8219C7.79706 14.6653 8.18262 13.3544 9.03085 12.5061L10.496 11.041C10.9586 10.5783 11.6527 10.5783 12.1153 11.041L13.8118 12.7375C14.1973 13.123 14.2745 13.7399 13.966 14.2026L12.8093 15.8991C12.5009 16.3617 12.578 16.9786 12.9636 17.3642L17.2047 21.6053C17.5903 21.9909 18.2072 22.068 18.6698 21.7596L20.3663 20.6029C20.829 20.2944 21.4459 20.3715 21.8314 20.7571L23.5279 22.4536C23.9906 22.9162 23.9906 23.6102 23.5279 24.0729L22.0628 25.538C21.4459 26.2321 20.5205 26.5405 19.5952 26.5405ZM11.2671 11.4266C11.19 11.4266 11.0358 11.4266 10.9586 11.5037L9.49352 12.9688C8.79951 13.6628 8.56818 14.5882 8.79951 15.5135C9.18507 17.21 10.1104 18.7522 11.3442 19.9089L14.5058 23.0705C15.7396 24.3043 17.2818 25.1525 18.9012 25.6152C19.8265 25.8465 20.829 25.538 21.4459 24.9211L22.911 23.456C23.0652 23.3018 23.0652 23.0705 22.911 22.9162L21.2145 21.2198C21.0603 21.0656 20.9061 21.0656 20.7519 21.1427L19.1325 22.2993C18.3614 22.8391 17.3589 22.6849 16.6649 22.068L12.4238 17.8269C11.8069 17.21 11.6527 16.1304 12.1924 15.3593L13.3491 13.6628C13.4262 13.5086 13.4262 13.2772 13.272 13.2001L11.5755 11.5037C11.4984 11.4266 11.4213 11.4266 11.2671 11.4266Z" fill="#40455A"/>
<path d="M12.6543 15.6677C12.5772 15.6677 12.4229 15.6677 12.3458 15.5906L9.64692 12.8917C9.49269 12.7375 9.49269 12.5061 9.64692 12.3519C9.80114 12.1977 10.0325 12.1977 10.1867 12.3519L12.9627 15.0508C13.117 15.2051 13.117 15.4364 12.9627 15.5906C12.8856 15.6677 12.7314 15.6677 12.6543 15.6677ZM21.9077 24.9983C21.8306 24.9983 21.6764 24.9983 21.5993 24.9212L18.9003 22.1451C18.7461 21.9909 18.7461 21.7596 18.9003 21.6053C19.0546 21.4511 19.2859 21.4511 19.4401 21.6053L22.139 24.3043C22.2933 24.4585 22.2933 24.6898 22.139 24.844C22.139 24.9212 22.0619 24.9983 21.9077 24.9983ZM19.8257 15.5906C19.5172 15.5906 19.2088 15.4364 18.9775 15.2822C18.7461 15.0508 18.669 14.7424 18.669 14.4339C18.669 14.2797 18.669 14.1255 18.7461 13.9713H16.3557C15.7388 13.9713 15.199 13.4315 15.199 12.8146C15.199 12.1977 15.7388 11.6579 16.3557 11.6579H18.7461C18.669 11.5037 18.669 11.3495 18.669 11.1952C18.669 10.8868 18.8232 10.5783 18.9775 10.347C19.4401 9.88433 20.2112 9.88433 20.5968 10.347L22.2162 11.9664C22.4475 12.1977 22.5246 12.5061 22.5246 12.8146C22.5246 13.123 22.3704 13.4315 22.2162 13.6628L20.5968 15.2822C20.3655 15.5135 20.1341 15.5906 19.8257 15.5906ZM16.3557 12.429C16.1243 12.429 15.9701 12.5832 15.9701 12.8146C15.9701 13.0459 16.1243 13.2001 16.3557 13.2001H19.5944C19.7486 13.2001 19.9028 13.2773 19.9799 13.4315C20.057 13.5857 19.9799 13.7399 19.9028 13.817L19.5944 14.1255C19.5172 14.2026 19.5172 14.2797 19.5172 14.4339C19.5172 14.511 19.5944 14.6653 19.5944 14.7424C19.7486 14.8966 19.9799 14.8966 20.1341 14.7424L21.7535 13.123C21.8306 13.0459 21.8306 12.9688 21.8306 12.8146C21.8306 12.7375 21.7535 12.5832 21.7535 12.5061L20.1341 10.8868C19.9799 10.7326 19.7486 10.7326 19.5944 10.8868C19.5172 10.9639 19.5172 11.041 19.5172 11.1952C19.5172 11.2723 19.5944 11.4266 19.5944 11.5037L19.9028 11.8121C19.9799 11.8892 20.057 12.1206 19.9799 12.1977C19.9028 12.3519 19.7486 12.429 19.5944 12.429H16.3557ZM23.3728 20.2173C23.0644 20.2173 22.7559 20.0631 22.5246 19.9089L20.9053 18.2895C20.6739 18.0582 20.5968 17.7497 20.5968 17.4413C20.5968 17.1329 20.751 16.8244 20.9053 16.5931L22.5246 14.9737C22.9873 14.511 23.7584 14.511 24.144 14.9737C24.3753 15.2051 24.4524 15.5135 24.4524 15.8219C24.4524 15.9762 24.4524 16.1304 24.3753 16.2846H26.8429C27.4598 16.2846 27.9996 16.8244 27.9996 17.4413C27.9996 18.0582 27.4598 18.598 26.8429 18.598H24.4524C24.5295 18.7522 24.5295 18.9064 24.5295 19.0606C24.5295 19.3691 24.3753 19.6775 24.2211 19.9089C23.9897 20.1402 23.6813 20.2173 23.3728 20.2173ZM23.3728 15.4364C23.2957 15.4364 23.1415 15.5135 23.0644 15.5135L21.445 17.1329C21.3679 17.21 21.3679 17.2871 21.3679 17.4413C21.3679 17.5184 21.445 17.6726 21.445 17.7497L23.0644 19.3691C23.2186 19.5233 23.45 19.5233 23.6042 19.3691C23.6813 19.292 23.6813 19.2149 23.6813 19.0606C23.6813 18.9835 23.6042 18.8293 23.6042 18.7522L23.2957 18.4438C23.2186 18.3666 23.1415 18.1353 23.2186 18.0582C23.2957 17.904 23.45 17.8269 23.6042 17.8269H26.8429C27.0742 17.8269 27.2284 17.6726 27.2284 17.4413C27.2284 17.21 27.0742 17.0557 26.8429 17.0557H23.6042C23.45 17.0557 23.2957 16.9786 23.2186 16.8244C23.1415 16.6702 23.2186 16.516 23.2957 16.4388L23.6042 16.1304C23.6813 16.0533 23.6813 15.9762 23.6813 15.8219C23.6813 15.7448 23.6042 15.5906 23.6042 15.5135C23.5271 15.4364 23.45 15.4364 23.3728 15.4364Z" fill="#40455A"/>
<defs>
<filter id="filter0_i_133_344" x="0" y="0" width="35" height="35" filterUnits="userSpaceOnUse" color-interpolation-filters="sRGB">
<feFlood flood-opacity="0" result="BackgroundImageFix"/>
<feBlend mode="normal" in="SourceGraphic" in2="BackgroundImageFix" result="shape"/>
<feColorMatrix in="SourceAlpha" type="matrix" values="0 0 0 0 0 0 0 0 0 0 0 0 0 0 0 0 0 0 127 0" result="hardAlpha"/>
<feOffset/>
<feGaussianBlur stdDeviation="6"/>
<feComposite in2="hardAlpha" operator="arithmetic" k2="-1" k3="1"/>
<feColorMatrix type="matrix" values="0 0 0 0 1 0 0 0 0 1 0 0 0 0 1 0 0 0 0.5 0"/>
<feBlend mode="normal" in2="shape" result="effect1_innerShadow_133_344"/>
</filter>
</defs>
</svg>
