<svg width="20" height="17" viewBox="0 0 20 17" fill="none" xmlns="http://www.w3.org/2000/svg">
<path d="M13.9857 2.27476L12.3664 0.655408C12.0579 0.34696 11.5953 0.34696 11.2868 0.655408C10.9784 0.963856 10.9784 1.42653 11.2868 1.73497L11.5953 2.04342H8.35657C7.8939 2.04342 7.58545 2.35187 7.58545 2.81454C7.58545 3.27721 7.8939 3.58566 8.35657 3.58566H11.5953L11.2868 3.89411C10.9784 4.20256 10.9784 4.66523 11.2868 4.97368C11.5953 5.28212 12.0579 5.28212 12.3664 4.97368L13.9857 3.35433C14.2942 3.04588 14.2942 2.58321 13.9857 2.27476Z" fill="#A3D86B"/>
<path d="M13.1371 7.98103L14.7564 9.60038C15.0649 9.90883 15.5275 9.90883 15.836 9.60038C16.1444 9.29194 16.1444 8.82926 15.836 8.52082L15.5275 8.21237H18.8433C19.306 8.21237 19.6145 7.90392 19.6145 7.44125C19.6145 6.97858 19.306 6.67013 18.8433 6.67013H15.6046L15.9131 6.36168C16.2215 6.05324 16.2215 5.59056 15.9131 5.28212C15.6046 4.97367 15.142 4.97367 14.8335 5.28212L13.2142 6.90147C12.9057 7.20991 12.9057 7.67259 13.1371 7.98103Z" fill="#FF9E68"/>
<path d="M15.2966 12.6849L13.6001 10.9885C13.3688 10.7571 12.9061 10.68 12.5977 10.9113L10.9012 12.068C10.2843 12.4536 9.51321 12.3765 8.97342 11.9138L4.73227 7.67264C4.19249 7.13286 4.11537 6.36174 4.57805 5.74484L5.73472 4.04838C5.96606 3.73993 5.88895 3.35437 5.65761 3.04593L3.80693 1.27235C3.49848 0.963904 3.03581 0.963904 2.72736 1.27235L1.26223 2.73748C0.491114 3.5086 0.182666 4.58816 0.414002 5.66773C0.876673 7.44131 1.7249 8.98354 3.03581 10.2944L6.1974 13.456C7.5083 14.7669 9.05054 15.6152 10.8241 16.0778C11.9037 16.3092 12.9832 16.0007 13.7544 15.2296L15.2195 13.7645C15.605 13.456 15.605 12.9934 15.2966 12.6849Z" fill="#13134D"/>
<path d="M14.1396 14.9212L15.2963 13.7645C15.6047 13.456 15.6047 12.9934 15.2963 12.6849L13.5998 10.9885C13.3685 10.7571 12.9058 10.68 12.5974 10.9113L11.1322 11.8367L14.1396 14.9212ZM4.65483 5.4364L5.65728 3.97127C5.88862 3.66282 5.8115 3.27726 5.58017 2.96881L3.80659 1.27235C3.49815 0.963904 3.03548 0.963904 2.72703 1.27235L1.64746 2.35192L4.65483 5.4364Z" fill="#33A0EE"/>
<path d="M11.5952 16.5406C11.2867 16.5406 11.0554 16.5406 10.747 16.4635C8.89627 16.0008 7.27692 15.0755 5.96601 13.7646L2.80442 10.603C1.49352 9.29207 0.568179 7.59561 0.105507 5.82203C-0.202941 4.66536 0.182619 3.35445 1.03085 2.50622L2.49598 1.0411C2.95865 0.578424 3.65266 0.578424 4.11533 1.0411L5.81179 2.73756C6.19735 3.12312 6.27446 3.74001 5.96601 4.20268L4.80933 5.89915C4.50089 6.36182 4.578 6.97871 4.96356 7.36427L9.20471 11.6054C9.59027 11.991 10.2072 12.0681 10.6698 11.7597L12.3663 10.603C12.829 10.2945 13.4459 10.3716 13.8314 10.7572L15.5279 12.4537C15.9906 12.9163 15.9906 13.6103 15.5279 14.073L14.0628 15.5381C13.4459 16.2321 12.5205 16.5406 11.5952 16.5406ZM3.2671 1.42666C3.18998 1.42666 3.03576 1.42665 2.95865 1.50377L1.49352 2.96889C0.799514 3.6629 0.568178 4.58824 0.799514 5.51359C1.18507 7.21005 2.11042 8.75229 3.34421 9.90897L6.5058 13.0706C7.73959 14.3043 9.28183 15.1526 10.9012 15.6152C11.8265 15.8466 12.829 15.5381 13.4459 14.9212L14.911 13.4561C15.0652 13.3019 15.0652 13.0706 14.911 12.9163L13.2145 11.2199C13.0603 11.0656 12.9061 11.0656 12.7519 11.1428L11.1325 12.2994C10.3614 12.8392 9.35894 12.685 8.66493 12.0681L4.42377 7.82694C3.80688 7.21005 3.65266 6.13048 4.19244 5.35936L5.34912 3.6629C5.42623 3.50868 5.42623 3.27734 5.27201 3.20023L3.57554 1.50377C3.49843 1.42665 3.42132 1.42666 3.2671 1.42666Z" fill="#40455A"/>
<path d="M4.65477 5.66773C4.57766 5.66773 4.42343 5.66773 4.34632 5.59061L1.64741 2.8917C1.49318 2.73747 1.49318 2.50614 1.64741 2.35191C1.80163 2.19769 2.03297 2.19769 2.18719 2.35191L4.96322 5.05083C5.11744 5.20505 5.11744 5.43639 4.96322 5.59061C4.88611 5.66773 4.73188 5.66773 4.65477 5.66773ZM13.9082 14.9983C13.8311 14.9983 13.6769 14.9983 13.5998 14.9212L10.9008 12.1451C10.7466 11.9909 10.7466 11.7596 10.9008 11.6053C11.0551 11.4511 11.2864 11.4511 11.4406 11.6053L14.1395 14.3043C14.2938 14.4585 14.2938 14.6898 14.1395 14.844C14.1395 14.9212 14.0624 14.9983 13.9082 14.9983ZM11.8262 5.59061C11.5177 5.59061 11.2093 5.43639 10.9779 5.28217C10.7466 5.05083 10.6695 4.74238 10.6695 4.43394C10.6695 4.27971 10.6695 4.12549 10.7466 3.97126H8.35614C7.73925 3.97126 7.19946 3.43148 7.19946 2.81458C7.19946 2.19769 7.73925 1.65791 8.35614 1.65791H10.7466C10.6695 1.50368 10.6695 1.34946 10.6695 1.19524C10.6695 0.886787 10.8237 0.578339 10.9779 0.347004C11.4406 -0.115668 12.2117 -0.115668 12.5973 0.347004L14.2166 1.96635C14.448 2.19769 14.5251 2.50614 14.5251 2.81458C14.5251 3.12303 14.3709 3.43148 14.2166 3.66282L12.5973 5.28217C12.366 5.5135 12.1346 5.59061 11.8262 5.59061ZM8.35614 2.42903C8.12481 2.42903 7.97058 2.58325 7.97058 2.81458C7.97058 3.04592 8.12481 3.20014 8.35614 3.20014H11.5948C11.7491 3.20014 11.9033 3.27726 11.9804 3.43148C12.0575 3.5857 11.9804 3.73993 11.9033 3.81704L11.5948 4.12549C11.5177 4.2026 11.5177 4.27971 11.5177 4.43394C11.5177 4.51105 11.5948 4.66527 11.5948 4.74238C11.7491 4.89661 11.9804 4.89661 12.1346 4.74238L13.754 3.12303C13.8311 3.04592 13.8311 2.96881 13.8311 2.81458C13.8311 2.73747 13.754 2.58325 13.754 2.50614L12.1346 0.886787C11.9804 0.732563 11.7491 0.732563 11.5948 0.886787C11.5177 0.963899 11.5177 1.04101 11.5177 1.19524C11.5177 1.27235 11.5948 1.42657 11.5948 1.50368L11.9033 1.81213C11.9804 1.88924 12.0575 2.12058 11.9804 2.19769C11.9033 2.35191 11.7491 2.42903 11.5948 2.42903H8.35614ZM15.3733 10.2173C15.0649 10.2173 14.7564 10.0631 14.5251 9.90888L12.9057 8.28953C12.6744 8.0582 12.5973 7.74975 12.5973 7.4413C12.5973 7.13285 12.7515 6.8244 12.9057 6.59307L14.5251 4.97372C14.9878 4.51105 15.7589 4.51105 16.1444 4.97372C16.3758 5.20505 16.4529 5.5135 16.4529 5.82195C16.4529 5.97617 16.4529 6.1304 16.3758 6.28462H18.8434C19.4603 6.28462 20 6.8244 20 7.4413C20 8.0582 19.4603 8.59798 18.8434 8.59798H16.4529C16.53 8.7522 16.53 8.90643 16.53 9.06065C16.53 9.3691 16.3758 9.67755 16.2216 9.90888C15.9902 10.1402 15.6818 10.2173 15.3733 10.2173ZM15.3733 5.43639C15.2962 5.43639 15.142 5.5135 15.0649 5.5135L13.4455 7.13285C13.3684 7.20996 13.3684 7.28708 13.3684 7.4413C13.3684 7.51841 13.4455 7.67264 13.4455 7.74975L15.0649 9.3691C15.2191 9.52332 15.4504 9.52332 15.6047 9.3691C15.6818 9.29199 15.6818 9.21487 15.6818 9.06065C15.6818 8.98354 15.6047 8.82932 15.6047 8.7522L15.2962 8.44376C15.2191 8.36664 15.142 8.13531 15.2191 8.0582C15.2962 7.90397 15.4504 7.82686 15.6047 7.82686H18.8434C19.0747 7.82686 19.2289 7.67264 19.2289 7.4413C19.2289 7.20996 19.0747 7.05574 18.8434 7.05574H15.6047C15.4504 7.05574 15.2962 6.97863 15.2191 6.82441C15.142 6.67018 15.2191 6.51596 15.2962 6.43885L15.6047 6.1304C15.6818 6.05329 15.6818 5.97617 15.6818 5.82195C15.6818 5.74484 15.6047 5.59061 15.6047 5.5135C15.5276 5.43639 15.4504 5.43639 15.3733 5.43639Z" fill="#40455A"/>
</svg>
