<svg width="20" height="16" viewBox="0 0 20 16" fill="none" xmlns="http://www.w3.org/2000/svg">
<path d="M10.4296 10.0792L1.02963 4.09717C0.543667 3.77579 0.203353 3.27641 0.0819721 2.70658C-0.0394083 2.13674 0.0678548 1.54203 0.380663 1.0505C0.693472 0.558975 1.1868 0.209957 1.75442 0.0786023C2.32204 -0.052752 2.91855 0.0440657 3.41548 0.348207L10.3118 4.73658L16.5037 0.402133C16.9868 0.0747687 17.5793 -0.0494304 18.1532 0.0563609C18.7271 0.162152 19.2363 0.489443 19.5709 0.967543C19.9055 1.44564 20.0387 2.03618 19.9415 2.61161C19.8444 3.18703 19.5249 3.70116 19.0519 4.04295L10.4296 10.0792Z" fill="#EA4435"/>
<path d="M18.5185 15.5557H15.5556L15.5556 2.22233C15.5556 1.63296 15.7897 1.06773 16.2064 0.650983C16.6232 0.234235 17.1884 0.000108719 17.7778 0.000108719C18.3671 0.000108719 18.9324 0.234235 19.3491 0.650983C19.7659 1.06773 20 1.63296 20 2.22233V14.0742C20 14.4671 19.8439 14.8439 19.5661 15.1217C19.2883 15.3996 18.9114 15.5557 18.5185 15.5557Z" fill="#00AC47"/>
<path d="M19.968 1.90036C19.9614 1.85592 19.962 1.81051 19.9527 1.76614C19.9385 1.69814 19.912 1.63532 19.8917 1.56969C19.8721 1.49458 19.8484 1.42057 19.8208 1.34799C19.806 1.3128 19.7832 1.28192 19.7663 1.24769C19.7202 1.14895 19.6669 1.05375 19.6068 0.962879C19.5772 0.919842 19.5401 0.883175 19.5074 0.842434C19.4512 0.768389 19.3905 0.697907 19.3255 0.631397C19.2763 0.583471 19.2201 0.543397 19.1666 0.500212C19.1096 0.45141 19.0503 0.4055 18.9888 0.362656C18.93 0.324286 18.8657 0.29473 18.8036 0.26199C18.7381 0.227841 18.674 0.190656 18.6058 0.163397C18.54 0.136878 18.4697 0.11999 18.4009 0.0997674C18.3321 0.0795452 18.2637 0.0553229 18.193 0.0422117C18.1055 0.0281484 18.0172 0.0192443 17.9286 0.0155452C17.8723 0.0116193 17.8166 0.00176738 17.7602 0.00221182C17.6554 0.00526585 17.551 0.0157864 17.4477 0.0336933C17.406 0.0399155 17.364 0.039397 17.3226 0.0479896C17.1828 0.0906973 17.0434 0.13465 16.9044 0.179841C16.8663 0.196138 16.8329 0.22036 16.7959 0.23873C16.4197 0.414255 16.1025 0.694969 15.8824 1.04695C15.6624 1.39893 15.549 1.8071 15.556 2.22214V6.49029L19.0523 4.04266C19.3956 3.81223 19.6648 3.48724 19.8273 3.10701C19.9898 2.72677 20.0388 2.30775 19.968 1.90036Z" fill="#FFBA00"/>
<path d="M2.22222 0C2.81159 0 3.37682 0.234126 3.79357 0.650874C4.21032 1.06762 4.44444 1.63285 4.44444 2.22222V15.5556H1.48148C1.08857 15.5556 0.711748 15.3995 0.433916 15.1216C0.156084 14.8438 0 14.467 0 14.0741V2.22222C0 1.63285 0.234126 1.06762 0.650874 0.650874C1.06762 0.234126 1.63285 0 2.22222 0Z" fill="#4285F4"/>
<path d="M0.0319699 1.90039C0.0384884 1.85595 0.03797 1.81054 0.0472292 1.76617C0.0614514 1.69817 0.0878958 1.63535 0.108192 1.56972C0.127868 1.49463 0.151556 1.42065 0.179155 1.34809C0.19397 1.31291 0.216785 1.28202 0.233674 1.2478C0.279733 1.14902 0.333065 1.05379 0.393229 0.962909C0.422859 0.919872 0.459896 0.883205 0.492637 0.842464C0.548798 0.76842 0.609507 0.697938 0.674414 0.631427C0.723674 0.583501 0.779822 0.543427 0.833451 0.500242C0.890353 0.451421 0.949688 0.40551 1.01123 0.362686C1.06997 0.324316 1.13427 0.29476 1.19641 0.26202C1.26064 0.225692 1.32665 0.192613 1.39419 0.162909C1.46012 0.13639 1.53034 0.119501 1.59908 0.0992791C1.66782 0.0790569 1.73634 0.0548346 1.80701 0.0417235C1.89456 0.0276638 1.98286 0.0187598 2.07145 0.015057C2.12775 0.011131 2.18338 0.0012791 2.23982 0.00172354C2.34461 0.0047738 2.44905 0.0152943 2.55234 0.033205C2.59404 0.0394273 2.63604 0.0389087 2.67753 0.0475013C2.74923 0.0657711 2.81994 0.0877262 2.88938 0.113279C2.9592 0.131839 3.02806 0.153892 3.09567 0.179353C3.13375 0.195649 3.16716 0.219872 3.20419 0.238242C3.30021 0.283353 3.39285 0.33534 3.48138 0.393798C3.77814 0.597567 4.02085 0.870509 4.18855 1.18906C4.35624 1.5076 4.44388 1.86218 4.4439 2.22217V6.49032L0.9476 4.04283C0.604323 3.81235 0.335167 3.48735 0.172674 3.10714C0.0101814 2.72693 -0.0386896 2.30779 0.0319699 1.90039Z" fill="#C52528"/>
</svg>
