<svg width="50" height="50" viewBox="0 0 50 50" fill="none" xmlns="http://www.w3.org/2000/svg">
<path d="M39.5833 21.8749V12.4999C39.5833 10.1987 37.7179 8.33325 35.4167 8.33325H10.4167C8.11548 8.33325 6.25 10.1987 6.25 12.4999V28.8043C6.25 31.1055 8.11548 32.9709 10.4167 32.9709H13.6775V41.6666L22.3732 32.9709H22.9167M33.673 38.3151L39.1078 43.7499V38.3151H39.5833C41.8845 38.3151 43.75 36.4497 43.75 34.1485V27.0833C43.75 24.7821 41.8845 22.9166 39.5833 22.9166H27.0833C24.7821 22.9166 22.9167 24.7821 22.9167 27.0833V34.1485C22.9167 36.4497 24.7821 38.3151 27.0833 38.3151H33.673Z" stroke="white" stroke-width="2" stroke-linecap="round" stroke-linejoin="round"/>
</svg>
