<svg width="20" height="20" viewBox="0 0 20 20" fill="none" xmlns="http://www.w3.org/2000/svg">
<path d="M5.07152 19.929C4.29794 19.9204 3.53164 19.7785 2.80625 19.5096C2.27654 19.3138 1.79728 19.0021 1.40352 18.5973C0.997592 18.2043 0.685421 17.7249 0.490191 17.1947C0.221518 16.4694 0.0798389 15.7031 0.0713718 14.9297C0.0119607 13.6438 0 13.2581 0 9.9999C0 6.7417 0.0131371 6.35739 0.0707836 5.07054C0.0802781 4.29736 0.222132 3.53153 0.490191 2.80625C0.686372 2.27645 0.9981 1.797 1.40273 1.40273C1.79601 0.997173 2.27549 0.685292 2.80566 0.490191C3.53105 0.221295 4.29735 0.0794166 5.07093 0.0707836C6.35719 0.0119607 6.74346 0 9.9999 0C13.2563 0 13.6424 0.0131371 14.9293 0.0707836C15.7026 0.0802111 16.4687 0.222066 17.1941 0.490191C17.7241 0.685549 18.2034 0.997321 18.5969 1.40254C19.0022 1.79611 19.3141 2.27558 19.5096 2.80566C19.7786 3.53104 19.9205 4.29734 19.9292 5.07093C19.988 6.35778 20 6.74307 20 10.0003C20 13.2575 19.988 13.6428 19.9292 14.9297C19.9199 15.7031 19.778 16.4693 19.5096 17.1947C19.3066 17.7208 18.9957 18.1986 18.5969 18.5973C18.1982 18.996 17.7203 19.3068 17.1941 19.5096C16.4688 19.7786 15.7025 19.9205 14.9289 19.9292C13.6432 19.988 13.2567 20 9.99951 20C6.74229 20 6.357 19.9886 5.07132 19.9292" fill="url(#paint0_radial_266_6907)"/>
<path d="M5.07152 19.929C4.29794 19.9204 3.53164 19.7785 2.80625 19.5096C2.27654 19.3138 1.79728 19.0021 1.40352 18.5973C0.997592 18.2043 0.685421 17.7249 0.490191 17.1947C0.221518 16.4694 0.0798389 15.7031 0.0713718 14.9297C0.0119607 13.6438 0 13.2581 0 9.9999C0 6.7417 0.0131371 6.35739 0.0707836 5.07054C0.0802781 4.29736 0.222132 3.53153 0.490191 2.80625C0.686372 2.27645 0.9981 1.797 1.40273 1.40273C1.79601 0.997173 2.27549 0.685292 2.80566 0.490191C3.53105 0.221295 4.29735 0.0794166 5.07093 0.0707836C6.35719 0.0119607 6.74346 0 9.9999 0C13.2563 0 13.6424 0.0131371 14.9293 0.0707836C15.7026 0.0802111 16.4687 0.222066 17.1941 0.490191C17.7241 0.685549 18.2034 0.997321 18.5969 1.40254C19.0022 1.79611 19.3141 2.27558 19.5096 2.80566C19.7786 3.53104 19.9205 4.29734 19.9292 5.07093C19.988 6.35778 20 6.74307 20 10.0003C20 13.2575 19.988 13.6428 19.9292 14.9297C19.9199 15.7031 19.778 16.4693 19.5096 17.1947C19.3066 17.7208 18.9957 18.1986 18.5969 18.5973C18.1982 18.996 17.7203 19.3068 17.1941 19.5096C16.4688 19.7786 15.7025 19.9205 14.9289 19.9292C13.6432 19.988 13.2567 20 9.99951 20C6.74229 20 6.357 19.9886 5.07132 19.9292" fill="url(#paint1_radial_266_6907)"/>
<path d="M7.5445 10.0423C7.54454 9.55248 7.68983 9.07366 7.96201 8.66639C8.23419 8.25913 8.62102 7.94172 9.07359 7.75431C9.52617 7.5669 10.0242 7.51791 10.5046 7.61352C10.985 7.70914 11.4263 7.94507 11.7726 8.29148C12.1189 8.63789 12.3548 9.07923 12.4503 9.55967C12.5458 10.0401 12.4966 10.5381 12.3091 10.9906C12.1216 11.4431 11.8041 11.8299 11.3968 12.102C10.9894 12.3741 10.5106 12.5192 10.0207 12.5192C9.36394 12.5191 8.73406 12.2581 8.26968 11.7936C7.8053 11.3291 7.54445 10.6991 7.5445 10.0423ZM6.20549 10.0423C6.20549 10.7969 6.42925 11.5346 6.84848 12.162C7.2677 12.7894 7.86356 13.2784 8.56071 13.5672C9.25786 13.8559 10.025 13.9315 10.7651 13.7843C11.5052 13.6371 12.185 13.2737 12.7185 12.7401C13.2521 12.2065 13.6155 11.5267 13.7627 10.7866C13.9099 10.0466 13.8344 9.27944 13.5456 8.58229C13.2568 7.88514 12.7678 7.28928 12.1404 6.87006C11.513 6.45083 10.7753 6.22707 10.0207 6.22707C9.51971 6.22704 9.02358 6.32571 8.56068 6.51744C8.09778 6.70916 7.67718 6.99019 7.3229 7.34447C6.96861 7.69876 6.68758 8.11936 6.49586 8.58226C6.30413 9.04516 6.20546 9.54129 6.20549 10.0423ZM13.0954 6.07589C13.0953 6.25223 13.1476 6.42463 13.2455 6.57129C13.3434 6.71794 13.4826 6.83228 13.6454 6.89983C13.8083 6.96738 13.9876 6.98512 14.1605 6.95079C14.3335 6.91647 14.4924 6.83162 14.6171 6.70699C14.7419 6.58236 14.8269 6.42354 14.8613 6.25061C14.8958 6.07768 14.8782 5.89841 14.8108 5.73546C14.7434 5.57252 14.6292 5.43323 14.4826 5.3352C14.3361 5.23717 14.1637 5.18481 13.9874 5.18473C13.751 5.18483 13.5244 5.27875 13.3572 5.44584C13.19 5.61293 13.096 5.83954 13.0958 6.07589M7.0194 16.0903C6.54826 16.0851 6.08151 15.9989 5.63961 15.8354C5.31914 15.7119 5.02808 15.5226 4.78517 15.2798C4.54227 15.037 4.35289 14.746 4.22923 14.4256C4.06566 13.9837 3.97944 13.517 3.97434 13.0458C3.93826 12.2627 3.9312 12.0274 3.9312 10.0433C3.9312 8.05921 3.93904 7.82451 3.97434 7.04059C3.98005 6.5695 4.06626 6.10284 4.22923 5.6608C4.35275 5.34023 4.54207 5.0491 4.78499 4.80618C5.02791 4.56326 5.31904 4.37394 5.63961 4.25042C6.08149 4.08685 6.54825 4.00063 7.0194 3.99552C7.80253 3.95945 8.03782 3.95239 10.0211 3.95239C12.0045 3.95239 12.2399 3.96004 13.0239 3.99572C13.4949 4.00144 13.9616 4.08764 14.4036 4.25062C14.7242 4.37414 15.0153 4.56347 15.2583 4.80639C15.5012 5.04931 15.6905 5.34043 15.814 5.661C15.9776 6.10288 16.0638 6.56964 16.0689 7.04079C16.105 7.8251 16.1121 8.05921 16.1121 10.0435C16.1121 12.0278 16.1048 12.2623 16.0689 13.0462C16.0634 13.5173 15.9772 13.984 15.814 14.426C15.6904 14.7464 15.501 15.0374 15.2581 15.2802C15.0152 15.523 14.7241 15.7123 14.4036 15.8358C13.9618 15.9994 13.495 16.0856 13.0239 16.0907C12.2407 16.1268 12.0054 16.1338 10.0211 16.1338C8.03684 16.1338 7.80234 16.1266 7.0194 16.0907M6.95784 2.6577C6.34134 2.66982 5.73137 2.7865 5.15393 3.00279C4.66031 3.19364 4.21202 3.48554 3.83779 3.85976C3.46357 4.23399 3.17167 4.68228 2.98081 5.1759C2.76456 5.75335 2.64787 6.36332 2.63572 6.97981C2.59906 7.77196 2.59082 8.02529 2.59082 10.0431C2.59082 12.0609 2.59925 12.3141 2.63572 13.1064C2.64787 13.7229 2.76455 14.3329 2.98081 14.9103C3.17168 15.4039 3.46358 15.8522 3.8378 16.2264C4.21203 16.6007 4.66032 16.8926 5.15393 17.0834C5.7314 17.2996 6.34135 17.4163 6.95784 17.4285C7.75038 17.4646 8.00331 17.4734 10.0211 17.4734C12.039 17.4734 12.2921 17.465 13.0844 17.4285C13.7009 17.4164 14.3109 17.2997 14.8883 17.0834C15.382 16.8926 15.8302 16.6007 16.2045 16.2264C16.5787 15.8522 16.8706 15.4039 17.0615 14.9103C17.278 14.3329 17.3947 13.7229 17.4066 13.1064C17.4426 12.3137 17.4509 12.0609 17.4509 10.0431C17.4509 8.02529 17.4424 7.77215 17.4066 6.97981C17.3944 6.36331 17.2777 5.75334 17.0615 5.1759C16.8706 4.68238 16.5788 4.23415 16.2047 3.85994C15.8306 3.48573 15.3824 3.19377 14.8889 3.00279C14.3115 2.78636 13.7015 2.66967 13.085 2.6577C12.2927 2.62142 12.0395 2.61279 10.0221 2.61279C8.00469 2.61279 7.75096 2.62123 6.95823 2.6577" fill="white"/>
<defs>
<radialGradient id="paint0_radial_266_6907" cx="0" cy="0" r="1" gradientUnits="userSpaceOnUse" gradientTransform="translate(1.2943 19.5618) scale(25.3923)">
<stop offset="0.09" stop-color="#FA8F21"/>
<stop offset="0.78" stop-color="#D82D7E"/>
</radialGradient>
<radialGradient id="paint1_radial_266_6907" cx="0" cy="0" r="1" gradientUnits="userSpaceOnUse" gradientTransform="translate(13.8532 18.9194) scale(22.3455)">
<stop offset="0.64" stop-color="#8C3AAA" stop-opacity="0"/>
<stop offset="1" stop-color="#8C3AAA"/>
</radialGradient>
</defs>
</svg>
