<svg width="20" height="20" viewBox="0 0 20 20" fill="none" xmlns="http://www.w3.org/2000/svg">
<path d="M0.833496 9.99992C0.833496 3.33325 3.3335 0.833252 10.0002 0.833252C16.6668 0.833252 19.1668 3.33325 19.1668 9.99992C19.1668 16.6666 16.6668 19.1666 10.0002 19.1666C3.3335 19.1666 0.833496 16.6666 0.833496 9.99992Z" fill="#0076F4"/>
<path fill-rule="evenodd" clip-rule="evenodd" d="M13.5579 13.7334H7.49955C7.12231 13.7291 6.762 13.5761 6.49679 13.3078C6.23158 13.0394 6.08286 12.6774 6.08289 12.3001V9.00844L5.06622 7.26677C5.02388 7.19344 5.00155 7.11026 5.00147 7.02558C5.00138 6.9409 5.02355 6.85768 5.06574 6.78427C5.10794 6.71085 5.16868 6.6498 5.24189 6.60724C5.3151 6.56468 5.39821 6.54211 5.48289 6.54177H13.5579C13.7475 6.54067 13.9355 6.5772 14.1109 6.64926C14.2863 6.72132 14.4457 6.82747 14.5798 6.96156C14.7139 7.09565 14.82 7.25502 14.8921 7.43043C14.9641 7.60584 15.0007 7.79381 14.9996 7.98344V12.3001C14.9996 12.489 14.9622 12.6761 14.8897 12.8505C14.8171 13.025 14.7108 13.1834 14.5768 13.3166C14.4428 13.4498 14.2838 13.5552 14.109 13.6267C13.9341 13.6983 13.7468 13.7345 13.5579 13.7334Z" fill="#005CC9"/>
<path fill-rule="evenodd" clip-rule="evenodd" d="M13.5588 13.4583H7.50042C7.12172 13.4539 6.76016 13.2998 6.49472 13.0297C6.22927 12.7596 6.08153 12.3954 6.08375 12.0167V8.725L5.06709 6.98333C5.02411 6.91063 5.00129 6.82779 5.00098 6.74333C5.00067 6.65888 5.02289 6.57587 5.06534 6.50286C5.10778 6.42985 5.16893 6.36947 5.24248 6.32796C5.31602 6.28644 5.39931 6.26528 5.48375 6.26667H13.5588C13.7477 6.26557 13.935 6.30183 14.1098 6.37337C14.2847 6.44491 14.4437 6.55031 14.5777 6.68352C14.7116 6.81673 14.818 6.97511 14.8905 7.14955C14.9631 7.324 15.0004 7.51107 15.0004 7.7V12.0167C15.0015 12.2063 14.965 12.3943 14.8929 12.5697C14.8209 12.7451 14.7147 12.9045 14.5806 13.0385C14.4465 13.1726 14.2872 13.2788 14.1118 13.3508C13.9364 13.4229 13.7484 13.4594 13.5588 13.4583Z" fill="white"/>
<path d="M13.3835 7.84155H7.70853C7.49682 7.84155 7.3252 8.01318 7.3252 8.22489C7.3252 8.4366 7.49682 8.60822 7.70853 8.60822H13.3835C13.5952 8.60822 13.7669 8.4366 13.7669 8.22489C13.7669 8.01318 13.5952 7.84155 13.3835 7.84155Z" fill="#00B7FF"/>
<path d="M13.3835 9.3667H7.70853C7.49682 9.3667 7.3252 9.53832 7.3252 9.75003C7.3252 9.96174 7.49682 10.1334 7.70853 10.1334H13.3835C13.5952 10.1334 13.7669 9.96174 13.7669 9.75003C13.7669 9.53832 13.5952 9.3667 13.3835 9.3667Z" fill="#00B7FF"/>
<path d="M11.8419 10.925H7.70853C7.49682 10.925 7.3252 11.0967 7.3252 11.3084C7.3252 11.5201 7.49682 11.6917 7.70853 11.6917H11.8419C12.0536 11.6917 12.2252 11.5201 12.2252 11.3084C12.2252 11.0967 12.0536 10.925 11.8419 10.925Z" fill="#00B7FF"/>
</svg>
