<svg width="20" height="21" viewBox="0 0 20 21" fill="none" xmlns="http://www.w3.org/2000/svg">
<path d="M17.086 2.91944C15.2057 1.03791 12.7056 0.00114797 10.0418 0C4.55279 0 0.0858024 4.46556 0.0836048 9.95437C0.0829652 11.7089 0.541398 13.4216 1.41275 14.9312L0 20.0897L5.27898 18.7055C6.73344 19.4987 8.37106 19.9167 10.0376 19.9173H10.0418H10.0418C15.53 19.9173 19.9977 15.451 20 9.96244C20.0009 7.3023 18.966 4.80111 17.086 2.91944ZM10.0418 18.236H10.0386C8.55318 18.2352 7.0965 17.8364 5.82593 17.0825L5.52356 16.9032L2.3909 17.7246L3.22728 14.6714L3.03027 14.3583C2.20169 13.0409 1.76426 11.5184 1.76488 9.95501C1.76671 5.39289 5.47949 1.68139 10.045 1.68139C12.2558 1.68231 14.3338 2.54408 15.8966 4.10795C17.4593 5.67181 18.3192 7.75075 18.3186 9.96173C18.3166 14.524 14.6037 18.236 10.0418 18.236Z" fill="#E0E0E0"/>
<path d="M0.457031 19.5173L1.80525 14.5945C0.973485 13.1537 0.536077 11.5192 0.536602 9.84513C0.538783 4.60715 4.80176 0.345703 10.0396 0.345703C12.5818 0.346851 14.9678 1.3362 16.7618 3.13184C18.5561 4.92745 19.5437 7.31423 19.5426 9.85256C19.5404 15.0907 15.2772 19.3525 10.04 19.3525C10.0396 19.3525 10.0403 19.3525 10.04 19.3525H10.0358C8.44539 19.352 6.8827 18.9528 5.49477 18.1963L0.457031 19.5173Z" fill="url(#paint0_linear_266_6892)"/>
<path fill-rule="evenodd" clip-rule="evenodd" d="M7.58073 5.72836C7.3965 5.31875 7.20252 5.31055 7.02724 5.30338C6.88388 5.29723 6.71975 5.29761 6.55589 5.29761C6.39189 5.29761 6.1254 5.35924 5.90004 5.60537C5.67454 5.85149 5.03906 6.44648 5.03906 7.65659C5.03906 8.86682 5.92054 10.0362 6.0434 10.2004C6.1664 10.3644 7.74499 12.9271 10.245 13.913C12.3228 14.7323 12.7456 14.5694 13.1966 14.5284C13.6475 14.4874 14.6517 13.9335 14.8567 13.3591C15.0617 12.7849 15.0617 12.2927 15.0002 12.1898C14.9387 12.0873 14.7747 12.0258 14.5288 11.9028C14.2828 11.7798 13.0736 11.1847 12.8481 11.1027C12.6226 11.0207 12.4586 10.9797 12.2946 11.2259C12.1306 11.4719 11.6595 12.0258 11.516 12.1898C11.3725 12.3541 11.229 12.3746 10.983 12.2516C10.737 12.1283 9.94482 11.8688 9.00506 11.0309C8.27387 10.379 7.78021 9.57389 7.63672 9.32765C7.49322 9.08166 7.62133 8.94841 7.74472 8.82579C7.85516 8.7156 7.99072 8.53867 8.11371 8.39504C8.23645 8.25141 8.27745 8.14892 8.35944 7.98492C8.44144 7.82066 8.40044 7.67705 8.33894 7.55406C8.27745 7.43106 7.79943 6.21471 7.58073 5.72836Z" fill="white"/>
<path d="M17.0046 2.88789C15.1459 1.02796 12.6745 0.00311749 10.0413 0.00195312C4.61527 0.00195312 0.199564 4.41625 0.197383 9.84205C0.196744 11.5764 0.649912 13.2694 1.51126 14.7618L0.114746 19.861L5.33313 18.4927C6.77091 19.2768 8.38972 19.69 10.0371 19.6906H10.0413H10.0413C15.4665 19.6906 19.8828 15.2755 19.8852 9.84999C19.8861 7.22044 18.863 4.74796 17.0046 2.88789ZM10.0413 18.0286H10.0381C8.56974 18.0279 7.12978 17.6336 5.8738 16.8884L5.57489 16.7112L2.4782 17.5231L3.30496 14.5049L3.11022 14.1955C2.29114 12.8931 1.85874 11.3881 1.85938 9.84271C1.86117 5.33297 5.53133 1.66408 10.0444 1.66408C12.2299 1.66498 14.284 2.51685 15.8288 4.06277C17.3736 5.60869 18.2237 7.66375 18.223 9.84938C18.2211 14.3592 14.5508 18.0286 10.0413 18.0286Z" fill="white"/>
<defs>
<linearGradient id="paint0_linear_266_6892" x1="9.99984" y1="19.5173" x2="9.99984" y2="0.345735" gradientUnits="userSpaceOnUse">
<stop stop-color="#20B038"/>
<stop offset="1" stop-color="#60D66A"/>
</linearGradient>
</defs>
</svg>
