<svg width="128" height="128" viewBox="0 0 128 128" fill="none" xmlns="http://www.w3.org/2000/svg">
<path fill-rule="evenodd" clip-rule="evenodd" d="M45.9117 17.6708C46.8888 17.3322 47.9556 17.8497 48.2942 18.827C48.6328 19.8043 48.1152 20.8709 47.1379 21.2096C36.284 25.0047 27.2605 32.3698 21.3093 41.7717C15.4809 50.9795 12.5981 62.1512 13.8274 73.847C13.9024 74.5607 13.9745 75.1562 14.0433 75.6413C14.1178 76.1661 14.214 76.7578 14.3298 77.4114C14.5099 78.4297 13.8305 79.4013 12.8125 79.5814C11.7945 79.7614 10.8227 79.0823 10.6426 78.0641C10.5429 77.5017 10.4428 76.8695 10.3424 76.1629C10.2364 75.4167 10.1543 74.7727 10.0982 74.2389C8.77905 61.6882 11.8828 49.684 18.154 39.7764C24.5532 29.6656 34.2508 21.7482 45.9117 17.6708ZM28.5943 109.514C27.8117 108.84 27.7238 107.659 28.3981 106.876C29.0723 106.093 30.2534 106.006 31.036 106.68C36.1882 111.106 42.2318 114.49 48.8171 116.546C55.1506 118.524 61.9851 119.27 69.0089 118.532C74.1231 117.994 78.9651 116.714 83.4387 114.81C88.0872 112.833 92.3494 110.186 96.1183 107.005C96.9065 106.341 98.0845 106.441 98.7488 107.23C99.4132 108.018 99.3129 109.196 98.5245 109.86C94.4667 113.285 89.8881 116.13 84.9048 118.25C80.0725 120.306 74.8691 121.687 69.4008 122.261C61.8596 123.054 54.516 122.251 47.7056 120.124C40.635 117.916 34.1389 114.278 28.5943 109.514ZM116.795 78.5942C116.605 79.6106 115.627 80.2804 114.61 80.0905C113.594 79.9004 112.924 78.9223 113.114 77.9059C113.56 75.5366 113.838 73.1203 113.936 70.6725C114.032 68.2773 113.955 65.8323 113.694 63.3503C112.672 53.6214 108.946 44.8437 103.344 37.686C97.5517 30.2841 89.7494 24.5998 80.8519 21.3733C79.8798 21.024 79.3748 19.9527 79.7239 18.9806C80.0733 18.0086 81.1446 17.5033 82.1166 17.8527C91.6708 21.3175 100.054 27.4278 106.284 35.3885C112.317 43.0973 116.327 52.5283 117.423 62.9584C117.7 65.5914 117.781 68.2137 117.677 70.8096C117.571 73.4564 117.273 76.0565 116.795 78.5942Z" fill="#FFE177"/>
<path d="M118.301 104C123.473 98.8289 123.473 90.4444 118.301 85.2731C113.13 80.1018 104.745 80.1019 99.5738 85.2734C94.4025 90.4449 94.4026 98.8294 99.5741 104.001C104.746 109.172 113.13 109.172 118.301 104Z" fill="#8AC9FE"/>
<path d="M28.0911 104C33.2624 98.8284 33.2622 90.4439 28.0908 85.2726C22.9193 80.1013 14.5348 80.1014 9.36348 85.2729C4.19217 90.4444 4.19232 98.8289 9.3638 104C14.5353 109.172 22.9198 109.171 28.0911 104Z" fill="#FE646F"/>
<path d="M67.6711 29.1852C74.6708 27.0661 78.6274 19.6738 76.5083 12.6741C74.3892 5.67438 66.997 1.71783 59.9972 3.8369C52.9975 5.95598 49.041 13.3482 51.16 20.348C53.2791 27.3477 60.6714 31.3042 67.6711 29.1852Z" fill="#6CF5C2"/>
<path fill-rule="evenodd" clip-rule="evenodd" d="M63.8335 3.26953C71.1469 3.26953 77.0757 9.19828 77.0757 16.5117C77.0757 23.8252 71.1469 29.7539 63.8335 29.7539C63.4383 29.7539 63.0476 29.7356 62.6616 29.7016C69.4262 29.1082 74.7319 23.43 74.7319 16.5117C74.7319 9.5932 69.4262 3.91523 62.6616 3.3218C63.0476 3.28781 63.4383 3.26953 63.8335 3.26953Z" fill="#00E499"/>
<path d="M63.8335 94.9624C78.3957 94.9624 90.2007 83.1574 90.2007 68.5952C90.2007 54.033 78.3957 42.228 63.8335 42.228C49.2713 42.228 37.4663 54.033 37.4663 68.5952C37.4663 83.1574 49.2713 94.9624 63.8335 94.9624Z" fill="#837683"/>
<path fill-rule="evenodd" clip-rule="evenodd" d="M85.5129 68.595C85.5129 73.9887 83.8934 79.004 81.1142 83.1815C80.0417 84.7938 78.7962 86.2811 77.4047 87.6173C73.1949 91.6594 67.6458 94.3174 61.4895 94.8595C62.2618 94.9275 63.0436 94.9624 63.8335 94.9624C65.1146 94.9624 66.3746 94.871 67.6069 94.6945C67.7661 94.6718 67.9245 94.6474 68.0827 94.6219C80.6246 92.5898 90.2009 81.7108 90.2009 68.5952C90.2009 54.033 78.3959 42.228 63.8337 42.228C63.0439 42.228 62.262 42.2627 61.49 42.3307C74.9539 43.5164 85.5129 54.8226 85.5129 68.595Z" fill="#685E68"/>
<path fill-rule="evenodd" clip-rule="evenodd" d="M63.8335 71.1382C54.3354 71.1382 46.5157 78.3351 45.5253 87.5702C50.2678 92.1471 56.7218 94.9624 63.8332 94.9624C65.1143 94.9624 66.3743 94.871 67.6067 94.6945C73.2143 93.8906 78.252 91.3219 82.1403 87.5695C81.1514 78.3326 73.3329 71.1382 63.8335 71.1382Z" fill="#8AC9FE"/>
<path fill-rule="evenodd" clip-rule="evenodd" d="M61.49 71.2861C72.4503 72.679 76.8673 80.9721 77.8826 90.9108C79.4157 89.9435 80.8421 88.8225 82.1401 87.5695C81.1515 78.3323 73.333 71.1382 63.8333 71.1382C63.0397 71.1382 62.2576 71.1886 61.49 71.2861Z" fill="#60B7FF"/>
<path d="M63.8338 69.7462C68.9753 69.7462 73.1434 65.5781 73.1434 60.4366C73.1434 55.295 68.9753 51.127 63.8338 51.127C58.6922 51.127 54.5242 55.295 54.5242 60.4366C54.5242 65.5781 58.6922 69.7462 63.8338 69.7462Z" fill="#F6DCCD"/>
<path fill-rule="evenodd" clip-rule="evenodd" d="M70.7994 60.4366C70.7994 65.1812 67.25 69.0967 62.6616 69.673C63.0455 69.7213 63.4367 69.7462 63.8335 69.7462C68.975 69.7462 73.1431 65.578 73.1431 60.4366C73.1431 55.2951 68.975 51.127 63.8335 51.127C63.4367 51.127 63.0455 51.1518 62.6616 51.2001C67.25 51.7764 70.7994 55.6921 70.7994 60.4366Z" fill="#F1CBBC"/>
</svg>
