<svg width="240" height="245" viewBox="0 0 240 245" fill="none" xmlns="http://www.w3.org/2000/svg">
<g filter="url(#filter0_i_203_1450)">
<rect width="240" height="245" rx="20" fill="black" fill-opacity="0.1"/>
</g>
<rect x="0.25" y="0.25" width="239.5" height="244.5" rx="19.75" stroke="#494949" stroke-width="0.5"/>
<path d="M47.496 182.352C43.816 182.352 41.288 179.872 41.288 176.4C41.288 172.928 43.816 170.448 47.496 170.448C50.984 170.448 53.256 172.16 53.528 175.104H50.008C49.784 174.08 48.888 173.408 47.512 173.408C45.784 173.408 44.76 174.56 44.76 176.4C44.76 178.24 45.784 179.392 47.512 179.392C48.888 179.392 49.784 178.72 50.008 177.696H53.528C53.256 180.64 50.984 182.352 47.496 182.352ZM58.989 182.224C56.173 182.224 54.365 180.528 54.365 178.016C54.365 175.504 56.173 173.824 58.989 173.824C61.821 173.824 63.629 175.504 63.629 178.016C63.629 180.528 61.821 182.224 58.989 182.224ZM58.989 179.632C59.917 179.632 60.477 178.992 60.477 178.016C60.477 177.04 59.917 176.4 58.989 176.4C58.077 176.4 57.501 177.04 57.501 178.016C57.501 178.992 58.077 179.632 58.989 179.632ZM67.923 182H64.787V174.048H67.923V175.216C68.275 174.368 69.075 173.824 70.275 173.824C71.651 173.824 72.387 174.416 72.755 175.328C73.203 174.4 74.163 173.824 75.363 173.824C77.571 173.824 78.163 175.312 78.163 177.136V182H74.963V177.712C74.963 176.784 74.643 176.448 74.051 176.448C73.427 176.448 73.043 176.864 73.043 178.016V182H69.843V177.712C69.843 176.784 69.539 176.448 68.947 176.448C68.275 176.448 67.923 176.864 67.923 178.016V182ZM85.592 173.824C87.672 173.824 89.144 175.488 89.144 178.032C89.144 180.528 87.656 182.224 85.544 182.224C84.28 182.224 83.384 181.536 83.048 180.816V185.04H79.912V174.048H83.048V175.232C83.4 174.464 84.328 173.824 85.592 173.824ZM84.408 179.728C85.272 179.728 85.896 179.024 85.896 178.032C85.896 177.04 85.288 176.352 84.408 176.352C83.528 176.352 82.92 177.04 82.92 178.032C82.92 179.024 83.528 179.728 84.408 179.728ZM98.9058 177.616C98.9058 178.08 98.8898 178.336 98.8258 178.784H92.9698C93.0178 179.616 93.5938 180.064 94.4898 180.064C95.1458 180.064 95.5778 179.92 95.7378 179.52H98.7778C98.4898 181.2 96.8098 182.224 94.4898 182.224C91.6258 182.224 89.8338 180.752 89.8338 178.032C89.8338 175.36 91.6578 173.824 94.4258 173.824C97.0658 173.824 98.9058 175.344 98.9058 177.616ZM92.9698 177.056H95.7698C95.7538 176.192 95.2738 175.712 94.3938 175.712C93.5298 175.712 93.0018 176.24 92.9698 177.056ZM104.804 179.68C105.06 179.68 105.348 179.648 105.604 179.616V182C105.156 182.08 104.532 182.16 103.652 182.16C102.196 182.16 100.58 181.76 100.58 179.136V176.448H99.4119V174.048H100.58V171.728H103.716V174.048H105.524V176.448H103.716V178.48C103.716 179.488 104.244 179.68 104.804 179.68ZM108.402 173.776C107.394 173.776 106.658 172.992 106.658 172.064C106.658 171.12 107.394 170.352 108.402 170.352C109.394 170.352 110.146 171.12 110.146 172.064C110.146 172.992 109.394 173.776 108.402 173.776ZM109.97 182H106.834V174.048H109.97V182ZM116.491 179.68C116.747 179.68 117.035 179.648 117.291 179.616V182C116.843 182.08 116.219 182.16 115.339 182.16C113.883 182.16 112.267 181.76 112.267 179.136V176.448H111.099V174.048H112.267V171.728H115.403V174.048H117.211V176.448H115.403V178.48C115.403 179.488 115.931 179.68 116.491 179.68ZM120.089 173.776C119.081 173.776 118.345 172.992 118.345 172.064C118.345 171.12 119.081 170.352 120.089 170.352C121.081 170.352 121.833 171.12 121.833 172.064C121.833 172.992 121.081 173.776 120.089 173.776ZM121.657 182H118.521V174.048H121.657V182ZM128.899 182H125.891L122.435 174.048H126.003L127.395 178.592L128.787 174.048H132.339L128.899 182ZM141.156 177.616C141.156 178.08 141.14 178.336 141.076 178.784H135.22C135.268 179.616 135.844 180.064 136.74 180.064C137.396 180.064 137.828 179.92 137.988 179.52H141.028C140.74 181.2 139.06 182.224 136.74 182.224C133.876 182.224 132.084 180.752 132.084 178.032C132.084 175.36 133.908 173.824 136.676 173.824C139.316 173.824 141.156 175.344 141.156 177.616ZM135.22 177.056H138.02C138.004 176.192 137.524 175.712 136.644 175.712C135.78 175.712 135.252 176.24 135.22 177.056ZM146.18 170.8H151.588C153.988 170.8 155.748 172.576 155.748 174.976C155.748 177.376 153.988 179.136 151.588 179.136H149.508V182H146.18V170.8ZM149.508 176.56H150.884C151.732 176.56 152.372 175.888 152.372 174.976C152.372 174.064 151.732 173.392 150.9 173.392H149.508V176.56ZM159.907 182H156.771V174.048H159.907V175.824C160.195 174.592 161.107 173.888 162.195 173.888C162.467 173.888 162.595 173.904 162.787 173.936V176.896C162.483 176.848 162.307 176.832 161.987 176.832C160.579 176.832 159.907 177.616 159.907 179.328V182ZM165.527 173.776C164.519 173.776 163.783 172.992 163.783 172.064C163.783 171.12 164.519 170.352 165.527 170.352C166.519 170.352 167.271 171.12 167.271 172.064C167.271 172.992 166.519 173.776 165.527 173.776ZM167.095 182H163.959V174.048H167.095V182ZM172.784 182.224C170.016 182.224 168.224 180.576 168.224 178.016C168.224 175.456 170.016 173.824 172.784 173.824C175.312 173.824 177.008 175.12 177.216 177.216H174.08C173.936 176.64 173.52 176.4 172.784 176.4C171.904 176.4 171.36 176.96 171.36 178.016C171.36 179.072 171.904 179.632 172.784 179.632C173.52 179.632 173.936 179.392 174.08 178.832H177.216C177.008 180.928 175.312 182.224 172.784 182.224ZM179.933 173.776C178.925 173.776 178.189 172.992 178.189 172.064C178.189 171.12 178.925 170.352 179.933 170.352C180.925 170.352 181.677 171.12 181.677 172.064C181.677 172.992 180.925 173.776 179.933 173.776ZM181.501 182H178.365V174.048H181.501V182ZM186.439 182H183.303V174.048H186.439V175.216C186.855 174.304 187.751 173.824 189.015 173.824C190.967 173.824 191.927 174.928 191.927 177.152V182H188.727V177.952C188.727 176.928 188.391 176.448 187.623 176.448C186.839 176.448 186.439 176.96 186.439 178.016V182ZM199.198 175.232V174.048H202.334V181.328C202.334 182.848 201.71 183.952 200.702 184.624C199.95 185.136 198.894 185.312 197.774 185.312C196.574 185.312 195.662 185.184 194.846 184.736C193.95 184.256 193.278 183.344 193.278 182.48H196.446C196.526 182.928 196.958 183.184 197.726 183.184C198.574 183.184 199.198 182.832 199.198 181.744V180.496C198.862 181.28 197.838 181.824 196.75 181.824C194.51 181.824 193.102 180.192 193.102 177.872C193.102 175.488 194.558 173.824 196.766 173.824C197.886 173.824 198.862 174.384 199.198 175.232ZM197.838 179.6C198.766 179.6 199.326 178.864 199.326 177.92C199.326 176.976 198.766 176.24 197.838 176.24C196.958 176.24 196.35 176.944 196.35 177.92C196.35 178.896 196.958 179.6 197.838 179.6Z" fill="white"/>
<path d="M24.88 204H23.63L23.36 203.11H20.67L20.4 204H19.15L21.51 197H22.52L24.88 204ZM22.01 198.61L20.97 202.08H23.05L22.01 198.61ZM28.1401 203.08C28.3101 203.08 28.5801 203.06 28.6901 203.04V204C28.5201 204.03 28.2001 204.06 27.8801 204.06C27.3501 204.06 26.3701 203.99 26.3701 202.42V200.25H25.5801V199.34H26.3701V197.93H27.4601V199.34H28.5301V200.25H27.4601V202.17C27.4601 202.98 27.7101 203.08 28.1401 203.08ZM37.2822 204H33.2422V197H37.2822V198.03H34.3922V200.01H37.2822V201.04H34.3922V202.97H37.2822V204ZM41.2416 203.08C41.4116 203.08 41.6816 203.06 41.7916 203.04V204C41.6216 204.03 41.3016 204.06 40.9816 204.06C40.4516 204.06 39.4716 203.99 39.4716 202.42V200.25H38.6816V199.34H39.4716V197.93H40.5616V199.34H41.6316V200.25H40.5616V202.17C40.5616 202.98 40.8116 203.08 41.2416 203.08ZM47.4649 201.43C47.4649 201.62 47.4549 201.77 47.4349 202.03H43.9749C44.0049 202.77 44.4849 203.17 45.2749 203.17C45.8149 203.17 46.1349 203 46.3149 202.64H47.4149C47.2749 203.51 46.3949 204.12 45.2749 204.12C43.8049 204.12 42.8949 203.18 42.8949 201.67C42.8949 200.18 43.8149 199.22 45.2349 199.22C46.5649 199.22 47.4649 200.12 47.4649 201.43ZM43.9749 201.2H46.3949C46.3849 200.48 45.9649 200.08 45.2149 200.08C44.4449 200.08 43.9849 200.54 43.9749 201.2ZM50.1084 204H49.0184V199.34H50.1084V200.24C50.2784 199.58 50.8384 199.28 51.3484 199.28C51.5184 199.28 51.6584 199.29 51.7784 199.32V200.32C51.6084 200.3 51.5184 200.3 51.3484 200.3C50.5784 200.3 50.1084 200.88 50.1084 201.94V204ZM54.2705 204H53.1805V199.34H54.2705V199.99C54.5605 199.49 55.1005 199.22 55.7905 199.22C56.9105 199.22 57.4905 199.85 57.4905 201.07V204H56.4005V201.57C56.4005 200.58 56.1405 200.15 55.3805 200.15C54.6705 200.15 54.2705 200.62 54.2705 201.44V204ZM59.8845 198.67C59.4045 198.67 59.0745 198.31 59.0745 197.86C59.0745 197.41 59.4045 197.05 59.8845 197.05C60.3645 197.05 60.6945 197.41 60.6945 197.86C60.6945 198.31 60.3645 198.67 59.8845 198.67ZM60.4245 204H59.3445V199.34H60.4245V204ZM64.435 203.08C64.605 203.08 64.875 203.06 64.985 203.04V204C64.815 204.03 64.495 204.06 64.175 204.06C63.645 204.06 62.665 203.99 62.665 202.42V200.25H61.875V199.34H62.665V197.93H63.755V199.34H64.825V200.25H63.755V202.17C63.755 202.98 64.005 203.08 64.435 203.08ZM69.6571 201.75V199.34H70.7471V204.02C70.7471 204.75 70.5271 205.3 70.1371 205.68C69.7571 206.03 69.2171 206.22 68.5571 206.22C67.8671 206.22 67.3271 206.05 66.9571 205.74C66.6271 205.45 66.4471 205.04 66.4371 204.53H67.5371C67.5871 205.04 67.8371 205.32 68.5371 205.32C69.1871 205.32 69.6571 204.93 69.6571 203.94V203.35C69.3671 203.85 68.8471 204.12 68.1571 204.12C67.0071 204.12 66.4371 203.3 66.4371 202.18V199.34H67.5271V201.95C67.5271 202.64 67.7571 203.16 68.5371 203.16C69.2971 203.16 69.6571 202.55 69.6571 201.75ZM79.6612 204H75.7012V197H76.8512V202.92H79.6612V204ZM83.0033 204.12C81.5033 204.12 80.7133 203.04 80.7133 201.67C80.7133 200.3 81.5833 199.22 83.0333 199.22C83.6533 199.22 84.2133 199.5 84.5033 199.97V199.34H85.5833V204H84.5033V203.37C84.2133 203.84 83.5733 204.12 83.0033 204.12ZM83.1633 203.15C84.0933 203.15 84.5433 202.47 84.5433 201.67C84.5433 200.87 84.0933 200.19 83.1633 200.19C82.3133 200.19 81.8033 200.82 81.8033 201.67C81.8033 202.52 82.3133 203.15 83.1633 203.15ZM90.1313 199.22C91.4613 199.22 92.3513 200.2 92.3513 201.67C92.3513 203.11 91.4113 204.12 90.0613 204.12C89.4413 204.12 88.8513 203.82 88.5613 203.37V204H87.4813V197H88.5613V199.97C88.8513 199.52 89.4713 199.22 90.1313 199.22ZM89.9013 203.15C90.7013 203.15 91.2613 202.54 91.2613 201.67C91.2613 200.8 90.7013 200.19 89.9013 200.19C89.0813 200.19 88.5213 200.79 88.5213 201.67C88.5213 202.55 89.0813 203.15 89.9013 203.15ZM95.5292 204.12C94.3892 204.12 93.5492 203.46 93.5492 202.57H94.6392C94.6392 202.97 95.0292 203.25 95.5892 203.25C95.9992 203.25 96.2592 203.03 96.2592 202.7C96.2592 202.44 96.1492 202.28 95.6492 202.15L94.7192 201.9C94.0692 201.72 93.6992 201.25 93.6992 200.59C93.6992 199.8 94.4492 199.22 95.4892 199.22C96.6292 199.22 97.3292 199.77 97.3292 200.67H96.2592C96.2592 200.28 95.9592 200.05 95.4492 200.05C95.0592 200.05 94.7792 200.25 94.7792 200.53C94.7792 200.78 94.9292 200.95 95.3592 201.07L96.2892 201.34C96.9492 201.53 97.3692 202.01 97.3692 202.67C97.3692 203.58 96.6592 204.12 95.5292 204.12ZM99.0642 205.21C98.9342 205.21 98.7742 205.2 98.6742 205.18V204.69C98.8242 204.71 98.8942 204.71 99.1142 204.71C99.3642 204.71 99.5542 204.62 99.6742 204.47C99.8042 204.32 99.8742 204.11 99.8942 203.89C99.7842 204.02 99.6042 204.06 99.4442 204.06C99.0242 204.06 98.6742 203.76 98.6742 203.27C98.6742 202.78 99.0242 202.45 99.5042 202.45C99.9242 202.45 100.484 202.78 100.484 203.66C100.484 204.54 100.014 205.21 99.0642 205.21ZM107.272 204H106.352L104.632 199.34H105.832L106.802 202.42L107.812 199.34H108.992L110.002 202.42L110.972 199.34H112.172L110.452 204H109.532L108.402 200.68L107.272 204ZM117.443 201.43C117.443 201.62 117.433 201.77 117.413 202.03H113.953C113.983 202.77 114.463 203.17 115.253 203.17C115.793 203.17 116.113 203 116.293 202.64H117.393C117.253 203.51 116.373 204.12 115.253 204.12C113.783 204.12 112.873 203.18 112.873 201.67C112.873 200.18 113.793 199.22 115.213 199.22C116.543 199.22 117.443 200.12 117.443 201.43ZM113.953 201.2H116.373C116.363 200.48 115.943 200.08 115.193 200.08C114.423 200.08 113.963 200.54 113.953 201.2ZM124.647 199.22C125.977 199.22 126.867 200.2 126.867 201.67C126.867 203.11 125.927 204.12 124.577 204.12C123.957 204.12 123.367 203.82 123.077 203.37V206.1H121.997V199.34H123.077V199.97C123.367 199.52 123.987 199.22 124.647 199.22ZM124.417 203.15C125.217 203.15 125.777 202.54 125.777 201.67C125.777 200.8 125.217 200.19 124.417 200.19C123.597 200.19 123.037 200.79 123.037 201.67C123.037 202.55 123.597 203.15 124.417 203.15ZM129.505 204H128.415V199.34H129.505V200.24C129.675 199.58 130.235 199.28 130.745 199.28C130.915 199.28 131.055 199.29 131.175 199.32V200.32C131.005 200.3 130.915 200.3 130.745 200.3C129.975 200.3 129.505 200.88 129.505 201.94V204ZM133.117 198.67C132.637 198.67 132.307 198.31 132.307 197.86C132.307 197.41 132.637 197.05 133.117 197.05C133.597 197.05 133.927 197.41 133.927 197.86C133.927 198.31 133.597 198.67 133.117 198.67ZM133.657 204H132.577V199.34H133.657V204ZM137.667 204.12C136.127 204.12 135.207 203.04 135.207 201.67C135.207 200.3 136.127 199.22 137.667 199.22C139.207 199.22 140.127 200.3 140.127 201.67C140.127 203.04 139.207 204.12 137.667 204.12ZM137.667 203.15C138.547 203.15 139.037 202.52 139.037 201.67C139.037 200.82 138.547 200.19 137.667 200.19C136.787 200.19 136.297 200.82 136.297 201.67C136.297 202.52 136.787 203.15 137.667 203.15ZM142.763 204H141.673V199.34H142.763V200.24C142.933 199.58 143.493 199.28 144.003 199.28C144.173 199.28 144.313 199.29 144.433 199.32V200.32C144.263 200.3 144.173 200.3 144.003 200.3C143.233 200.3 142.763 200.88 142.763 201.94V204ZM146.375 198.67C145.895 198.67 145.565 198.31 145.565 197.86C145.565 197.41 145.895 197.05 146.375 197.05C146.855 197.05 147.185 197.41 147.185 197.86C147.185 198.31 146.855 198.67 146.375 198.67ZM146.915 204H145.835V199.34H146.915V204ZM150.925 203.08C151.095 203.08 151.365 203.06 151.475 203.04V204C151.305 204.03 150.985 204.06 150.665 204.06C150.135 204.06 149.155 203.99 149.155 202.42V200.25H148.365V199.34H149.155V197.93H150.245V199.34H151.315V200.25H150.245V202.17C150.245 202.98 150.495 203.08 150.925 203.08ZM153.517 198.67C153.037 198.67 152.707 198.31 152.707 197.86C152.707 197.41 153.037 197.05 153.517 197.05C153.997 197.05 154.327 197.41 154.327 197.86C154.327 198.31 153.997 198.67 153.517 198.67ZM154.057 204H152.977V199.34H154.057V204ZM159.458 204H155.308L157.828 200.26H155.518V199.34H159.638L157.108 203.09H159.458V204ZM164.916 201.43C164.916 201.62 164.906 201.77 164.886 202.03H161.426C161.456 202.77 161.936 203.17 162.726 203.17C163.266 203.17 163.586 203 163.766 202.64H164.866C164.726 203.51 163.846 204.12 162.726 204.12C161.256 204.12 160.346 203.18 160.346 201.67C160.346 200.18 161.266 199.22 162.686 199.22C164.016 199.22 164.916 200.12 164.916 201.43ZM161.426 201.2H163.846C163.836 200.48 163.416 200.08 162.666 200.08C161.896 200.08 161.436 200.54 161.426 201.2ZM170.01 198.67C169.53 198.67 169.2 198.31 169.2 197.86C169.2 197.41 169.53 197.05 170.01 197.05C170.49 197.05 170.82 197.41 170.82 197.86C170.82 198.31 170.49 198.67 170.01 198.67ZM170.55 204H169.47V199.34H170.55V204ZM173.54 204H172.45V199.34H173.54V199.99C173.83 199.49 174.37 199.22 175.06 199.22C176.18 199.22 176.76 199.85 176.76 201.07V204H175.67V201.57C175.67 200.58 175.41 200.15 174.65 200.15C173.94 200.15 173.54 200.62 173.54 201.44V204ZM179.704 204H178.614V199.34H179.704V199.99C179.994 199.49 180.534 199.22 181.224 199.22C182.344 199.22 182.924 199.85 182.924 201.07V204H181.834V201.57C181.834 200.58 181.574 200.15 180.814 200.15C180.104 200.15 179.704 200.62 179.704 201.44V204ZM186.888 204.12C185.348 204.12 184.428 203.04 184.428 201.67C184.428 200.3 185.348 199.22 186.888 199.22C188.428 199.22 189.348 200.3 189.348 201.67C189.348 203.04 188.428 204.12 186.888 204.12ZM186.888 203.15C187.768 203.15 188.258 202.52 188.258 201.67C188.258 200.82 187.768 200.19 186.888 200.19C186.008 200.19 185.518 200.82 185.518 201.67C185.518 202.52 186.008 203.15 186.888 203.15ZM192.898 204H192.018L189.998 199.34H191.168L192.458 202.54L193.748 199.34H194.918L192.898 204ZM197.962 204.12C196.462 204.12 195.672 203.04 195.672 201.67C195.672 200.3 196.542 199.22 197.992 199.22C198.612 199.22 199.172 199.5 199.462 199.97V199.34H200.542V204H199.462V203.37C199.172 203.84 198.532 204.12 197.962 204.12ZM198.122 203.15C199.052 203.15 199.502 202.47 199.502 201.67C199.502 200.87 199.052 200.19 198.122 200.19C197.272 200.19 196.762 200.82 196.762 201.67C196.762 202.52 197.272 203.15 198.122 203.15ZM204.55 203.08C204.72 203.08 204.99 203.06 205.1 203.04V204C204.93 204.03 204.61 204.06 204.29 204.06C203.76 204.06 202.78 203.99 202.78 202.42V200.25H201.99V199.34H202.78V197.93H203.87V199.34H204.94V200.25H203.87V202.17C203.87 202.98 204.12 203.08 204.55 203.08ZM207.142 198.67C206.662 198.67 206.332 198.31 206.332 197.86C206.332 197.41 206.662 197.05 207.142 197.05C207.622 197.05 207.952 197.41 207.952 197.86C207.952 198.31 207.622 198.67 207.142 198.67ZM207.682 204H206.602V199.34H207.682V204ZM211.693 204.12C210.153 204.12 209.233 203.04 209.233 201.67C209.233 200.3 210.153 199.22 211.693 199.22C213.233 199.22 214.153 200.3 214.153 201.67C214.153 203.04 213.233 204.12 211.693 204.12ZM211.693 203.15C212.573 203.15 213.063 202.52 213.063 201.67C213.063 200.82 212.573 200.19 211.693 200.19C210.813 200.19 210.323 200.82 210.323 201.67C210.323 202.52 210.813 203.15 211.693 203.15ZM216.788 204H215.698V199.34H216.788V199.99C217.078 199.49 217.618 199.22 218.308 199.22C219.428 199.22 220.008 199.85 220.008 201.07V204H218.918V201.57C218.918 200.58 218.658 200.15 217.898 200.15C217.188 200.15 216.788 200.62 216.788 201.44V204ZM222.152 205.21C222.022 205.21 221.862 205.2 221.762 205.18V204.69C221.912 204.71 221.982 204.71 222.202 204.71C222.452 204.71 222.642 204.62 222.762 204.47C222.892 204.32 222.962 204.11 222.982 203.89C222.872 204.02 222.692 204.06 222.532 204.06C222.112 204.06 221.762 203.76 221.762 203.27C221.762 202.78 222.112 202.45 222.592 202.45C223.012 202.45 223.572 202.78 223.572 203.66C223.572 204.54 223.102 205.21 222.152 205.21ZM21.81 215.12C20.27 215.12 19.35 214.04 19.35 212.67C19.35 211.3 20.27 210.22 21.81 210.22C23.35 210.22 24.27 211.3 24.27 212.67C24.27 214.04 23.35 215.12 21.81 215.12ZM21.81 214.15C22.69 214.15 23.18 213.52 23.18 212.67C23.18 211.82 22.69 211.19 21.81 211.19C20.93 211.19 20.44 211.82 20.44 212.67C20.44 213.52 20.93 214.15 21.81 214.15ZM28.0476 208.91C27.7176 208.91 27.2576 208.96 27.2576 209.64V210.34H28.4776V211.25H27.2576V215H26.1676V211.25H25.2176V210.34H26.1676V209.66C26.1676 208.16 27.2576 207.94 27.7476 207.94C28.0876 207.94 28.3276 207.98 28.4776 208.03V208.95C28.3276 208.94 28.2076 208.91 28.0476 208.91ZM32.3562 208.91C32.0262 208.91 31.5662 208.96 31.5662 209.64V210.34H32.7862V211.25H31.5662V215H30.4762V211.25H29.5262V210.34H30.4762V209.66C30.4762 208.16 31.5662 207.94 32.0562 207.94C32.3962 207.94 32.6362 207.98 32.7862 208.03V208.95C32.6362 208.94 32.5162 208.91 32.3562 208.91ZM38.2618 212.43C38.2618 212.62 38.2518 212.77 38.2318 213.03H34.7718C34.8018 213.77 35.2818 214.17 36.0718 214.17C36.6118 214.17 36.9318 214 37.1118 213.64H38.2118C38.0718 214.51 37.1918 215.12 36.0718 215.12C34.6018 215.12 33.6918 214.18 33.6918 212.67C33.6918 211.18 34.6118 210.22 36.0318 210.22C37.3618 210.22 38.2618 211.12 38.2618 212.43ZM34.7718 212.2H37.1918C37.1818 211.48 36.7618 211.08 36.0118 211.08C35.2418 211.08 34.7818 211.54 34.7718 212.2ZM40.9052 215H39.8152V210.34H40.9052V211.24C41.0752 210.58 41.6352 210.28 42.1452 210.28C42.3152 210.28 42.4552 210.29 42.5752 210.32V211.32C42.4052 211.3 42.3152 211.3 42.1452 211.3C41.3752 211.3 40.9052 211.88 40.9052 212.94V215ZM44.5173 209.67C44.0373 209.67 43.7073 209.31 43.7073 208.86C43.7073 208.41 44.0373 208.05 44.5173 208.05C44.9973 208.05 45.3273 208.41 45.3273 208.86C45.3273 209.31 44.9973 209.67 44.5173 209.67ZM45.0573 215H43.9773V210.34H45.0573V215ZM48.0478 215H46.9578V210.34H48.0478V210.99C48.3378 210.49 48.8778 210.22 49.5678 210.22C50.6878 210.22 51.2678 210.85 51.2678 212.07V215H50.1778V212.57C50.1778 211.58 49.9178 211.15 49.1578 211.15C48.4478 211.15 48.0478 211.62 48.0478 212.44V215ZM56.5519 210.97V210.34H57.6419V214.8C57.6419 215.72 57.3519 216.41 56.8019 216.81C56.4119 217.1 55.8719 217.22 55.2019 217.22C54.5819 217.22 53.9919 217.09 53.5619 216.8C53.1219 216.5 52.8419 216.05 52.8219 215.53H53.9619C54.0519 216.01 54.4419 216.32 55.1919 216.32C56.0819 216.32 56.5519 215.93 56.5519 214.88V214.37C56.2719 214.84 55.6319 215.12 55.0619 215.12C53.6119 215.12 52.7719 214.04 52.7719 212.67C52.7719 211.3 53.6919 210.22 55.0919 210.22C55.7119 210.22 56.2719 210.5 56.5519 210.97ZM55.2219 214.15C56.1119 214.15 56.6019 213.47 56.6019 212.67C56.6019 211.87 56.1119 211.19 55.2219 211.19C54.4019 211.19 53.8619 211.82 53.8619 212.67C53.8619 213.52 54.4019 214.15 55.2219 214.15ZM64.4798 215.12C62.9798 215.12 62.1898 214.04 62.1898 212.67C62.1898 211.3 63.0598 210.22 64.5098 210.22C65.1298 210.22 65.6898 210.5 65.9798 210.97V210.34H67.0598V215H65.9798V214.37C65.6898 214.84 65.0498 215.12 64.4798 215.12ZM64.6398 214.15C65.5698 214.15 66.0198 213.47 66.0198 212.67C66.0198 211.87 65.5698 211.19 64.6398 211.19C63.7898 211.19 63.2798 211.82 63.2798 212.67C63.2798 213.52 63.7898 214.15 64.6398 214.15ZM71.2878 208.91C70.9578 208.91 70.4978 208.96 70.4978 209.64V210.34H71.7178V211.25H70.4978V215H69.4078V211.25H68.4578V210.34H69.4078V209.66C69.4078 208.16 70.4978 207.94 70.9878 207.94C71.3278 207.94 71.5678 207.98 71.7178 208.03V208.95C71.5678 208.94 71.4478 208.91 71.2878 208.91ZM75.5964 208.91C75.2664 208.91 74.8064 208.96 74.8064 209.64V210.34H76.0264V211.25H74.8064V215H73.7164V211.25H72.7664V210.34H73.7164V209.66C73.7164 208.16 74.8064 207.94 75.2964 207.94C75.6364 207.94 75.8764 207.98 76.0264 208.03V208.95C75.8764 208.94 75.7564 208.91 75.5964 208.91ZM79.392 215.12C77.852 215.12 76.932 214.04 76.932 212.67C76.932 211.3 77.852 210.22 79.392 210.22C80.932 210.22 81.852 211.3 81.852 212.67C81.852 214.04 80.932 215.12 79.392 215.12ZM79.392 214.15C80.272 214.15 80.762 213.52 80.762 212.67C80.762 211.82 80.272 211.19 79.392 211.19C78.512 211.19 78.022 211.82 78.022 212.67C78.022 213.52 78.512 214.15 79.392 214.15ZM84.4873 215H83.3973V210.34H84.4873V211.24C84.6573 210.58 85.2173 210.28 85.7273 210.28C85.8973 210.28 86.0373 210.29 86.1573 210.32V211.32C85.9873 211.3 85.8973 211.3 85.7273 211.3C84.9573 211.3 84.4873 211.88 84.4873 212.94V215ZM90.8041 210.97V208H91.8841V215H90.8041V214.37C90.5141 214.84 89.8741 215.12 89.3041 215.12C87.8041 215.12 87.0141 214.04 87.0141 212.67C87.0141 211.3 87.8841 210.22 89.3341 210.22C89.9541 210.22 90.5141 210.5 90.8041 210.97ZM89.4641 214.15C90.3941 214.15 90.8441 213.47 90.8441 212.67C90.8441 211.87 90.3941 211.19 89.4641 211.19C88.6141 211.19 88.1041 211.82 88.1041 212.67C88.1041 213.52 88.6141 214.15 89.4641 214.15ZM95.722 215.12C94.222 215.12 93.432 214.04 93.432 212.67C93.432 211.3 94.302 210.22 95.752 210.22C96.372 210.22 96.932 210.5 97.222 210.97V210.34H98.302V215H97.222V214.37C96.932 214.84 96.292 215.12 95.722 215.12ZM95.882 214.15C96.812 214.15 97.262 213.47 97.262 212.67C97.262 211.87 96.812 211.19 95.882 211.19C95.032 211.19 94.522 211.82 94.522 212.67C94.522 213.52 95.032 214.15 95.882 214.15ZM102.85 210.22C104.18 210.22 105.07 211.2 105.07 212.67C105.07 214.11 104.13 215.12 102.78 215.12C102.16 215.12 101.57 214.82 101.28 214.37V215H100.2V208H101.28V210.97C101.57 210.52 102.19 210.22 102.85 210.22ZM102.62 214.15C103.42 214.15 103.98 213.54 103.98 212.67C103.98 211.8 103.42 211.19 102.62 211.19C101.8 211.19 101.24 211.79 101.24 212.67C101.24 213.55 101.8 214.15 102.62 214.15ZM107.708 215H106.618V208H107.708V215ZM113.828 212.43C113.828 212.62 113.818 212.77 113.798 213.03H110.338C110.368 213.77 110.848 214.17 111.638 214.17C112.178 214.17 112.498 214 112.678 213.64H113.778C113.638 214.51 112.758 215.12 111.638 215.12C110.168 215.12 109.258 214.18 109.258 212.67C109.258 211.18 110.178 210.22 111.598 210.22C112.928 210.22 113.828 211.12 113.828 212.43ZM110.338 212.2H112.758C112.748 211.48 112.328 211.08 111.578 211.08C110.808 211.08 110.348 211.54 110.338 212.2ZM120.012 215.12C118.872 215.12 118.032 214.46 118.032 213.57H119.122C119.122 213.97 119.512 214.25 120.072 214.25C120.482 214.25 120.742 214.03 120.742 213.7C120.742 213.44 120.632 213.28 120.132 213.15L119.202 212.9C118.552 212.72 118.182 212.25 118.182 211.59C118.182 210.8 118.932 210.22 119.972 210.22C121.112 210.22 121.812 210.77 121.812 211.67H120.742C120.742 211.28 120.442 211.05 119.932 211.05C119.542 211.05 119.262 211.25 119.262 211.53C119.262 211.78 119.412 211.95 119.842 212.07L120.772 212.34C121.432 212.53 121.852 213.01 121.852 213.67C121.852 214.58 121.142 215.12 120.012 215.12ZM125.562 215.12C124.022 215.12 123.102 214.04 123.102 212.67C123.102 211.3 124.022 210.22 125.562 210.22C127.102 210.22 128.022 211.3 128.022 212.67C128.022 214.04 127.102 215.12 125.562 215.12ZM125.562 214.15C126.442 214.15 126.932 213.52 126.932 212.67C126.932 211.82 126.442 211.19 125.562 211.19C124.682 211.19 124.192 211.82 124.192 212.67C124.192 213.52 124.682 214.15 125.562 214.15ZM130.657 215H129.567V208H130.657V215ZM134.237 215.12C133.217 215.12 132.507 214.52 132.507 213.27V210.34H133.597V213C133.597 213.75 133.837 214.19 134.547 214.19C135.377 214.19 135.677 213.64 135.677 212.97V210.34H136.767V215H135.677V214.35C135.397 214.85 134.907 215.12 134.237 215.12ZM140.773 214.08C140.943 214.08 141.213 214.06 141.323 214.04V215C141.153 215.03 140.833 215.06 140.513 215.06C139.983 215.06 139.003 214.99 139.003 213.42V211.25H138.213V210.34H139.003V208.93H140.093V210.34H141.163V211.25H140.093V213.17C140.093 213.98 140.343 214.08 140.773 214.08ZM143.365 209.67C142.885 209.67 142.555 209.31 142.555 208.86C142.555 208.41 142.885 208.05 143.365 208.05C143.845 208.05 144.175 208.41 144.175 208.86C144.175 209.31 143.845 209.67 143.365 209.67ZM143.905 215H142.825V210.34H143.905V215ZM147.915 215.12C146.375 215.12 145.455 214.04 145.455 212.67C145.455 211.3 146.375 210.22 147.915 210.22C149.455 210.22 150.375 211.3 150.375 212.67C150.375 214.04 149.455 215.12 147.915 215.12ZM147.915 214.15C148.795 214.15 149.285 213.52 149.285 212.67C149.285 211.82 148.795 211.19 147.915 211.19C147.035 211.19 146.545 211.82 146.545 212.67C146.545 213.52 147.035 214.15 147.915 214.15ZM153.011 215H151.921V210.34H153.011V210.99C153.301 210.49 153.841 210.22 154.531 210.22C155.651 210.22 156.231 210.85 156.231 212.07V215H155.141V212.57C155.141 211.58 154.881 211.15 154.121 211.15C153.411 211.15 153.011 211.62 153.011 212.44V215ZM159.715 215.12C158.575 215.12 157.735 214.46 157.735 213.57H158.825C158.825 213.97 159.215 214.25 159.775 214.25C160.185 214.25 160.445 214.03 160.445 213.7C160.445 213.44 160.335 213.28 159.835 213.15L158.905 212.9C158.255 212.72 157.885 212.25 157.885 211.59C157.885 210.8 158.635 210.22 159.675 210.22C160.815 210.22 161.515 210.77 161.515 211.67H160.445C160.445 211.28 160.145 211.05 159.635 211.05C159.245 211.05 158.965 211.25 158.965 211.53C158.965 211.78 159.115 211.95 159.545 212.07L160.475 212.34C161.135 212.53 161.555 213.01 161.555 213.67C161.555 214.58 160.845 215.12 159.715 215.12ZM168.145 215H167.225L165.505 210.34H166.705L167.675 213.42L168.685 210.34H169.865L170.875 213.42L171.845 210.34H173.045L171.325 215H170.405L169.275 211.68L168.145 215ZM174.832 209.67C174.352 209.67 174.022 209.31 174.022 208.86C174.022 208.41 174.352 208.05 174.832 208.05C175.312 208.05 175.642 208.41 175.642 208.86C175.642 209.31 175.312 209.67 174.832 209.67ZM175.372 215H174.292V210.34H175.372V215ZM179.382 214.08C179.552 214.08 179.822 214.06 179.932 214.04V215C179.762 215.03 179.442 215.06 179.122 215.06C178.592 215.06 177.612 214.99 177.612 213.42V211.25H176.822V210.34H177.612V208.93H178.702V210.34H179.772V211.25H178.702V213.17C178.702 213.98 178.952 214.08 179.382 214.08ZM184.044 210.22C185.164 210.22 185.744 210.85 185.744 212.07V215H184.654V212.57C184.654 211.58 184.394 211.15 183.634 211.15C182.924 211.15 182.524 211.62 182.524 212.44V215H181.434V208H182.524V210.99C182.814 210.49 183.354 210.22 184.044 210.22ZM189.708 215.12C188.168 215.12 187.248 214.04 187.248 212.67C187.248 211.3 188.168 210.22 189.708 210.22C191.248 210.22 192.168 211.3 192.168 212.67C192.168 214.04 191.248 215.12 189.708 215.12ZM189.708 214.15C190.588 214.15 191.078 213.52 191.078 212.67C191.078 211.82 190.588 211.19 189.708 211.19C188.828 211.19 188.338 211.82 188.338 212.67C188.338 213.52 188.828 214.15 189.708 214.15ZM195.394 215.12C194.374 215.12 193.664 214.52 193.664 213.27V210.34H194.754V213C194.754 213.75 194.994 214.19 195.704 214.19C196.534 214.19 196.834 213.64 196.834 212.97V210.34H197.924V215H196.834V214.35C196.554 214.85 196.064 215.12 195.394 215.12ZM201.929 214.08C202.099 214.08 202.369 214.06 202.479 214.04V215C202.309 215.03 201.989 215.06 201.669 215.06C201.139 215.06 200.159 214.99 200.159 213.42V211.25H199.369V210.34H200.159V208.93H201.249V210.34H202.319V211.25H201.249V213.17C201.249 213.98 201.499 214.08 201.929 214.08ZM21.67 226.12C20.22 226.12 19.35 225.12 19.35 223.67C19.35 222.22 20.22 221.22 21.67 221.22C22.97 221.22 23.78 221.93 23.88 223H22.79C22.67 222.47 22.33 222.19 21.67 222.19C20.9 222.19 20.44 222.72 20.44 223.67C20.44 224.62 20.9 225.15 21.67 225.15C22.33 225.15 22.67 224.88 22.79 224.39H23.88C23.78 225.43 22.97 226.12 21.67 226.12ZM27.642 226.12C26.102 226.12 25.182 225.04 25.182 223.67C25.182 222.3 26.102 221.22 27.642 221.22C29.182 221.22 30.102 222.3 30.102 223.67C30.102 225.04 29.182 226.12 27.642 226.12ZM27.642 225.15C28.522 225.15 29.012 224.52 29.012 223.67C29.012 222.82 28.522 222.19 27.642 222.19C26.762 222.19 26.272 222.82 26.272 223.67C26.272 224.52 26.762 225.15 27.642 225.15ZM32.7373 226H31.6473V221.34H32.7373V221.99C32.9373 221.56 33.4273 221.22 34.0373 221.22C34.8873 221.22 35.3073 221.59 35.5073 222.05C35.7273 221.58 36.2773 221.22 36.9373 221.22C38.3373 221.22 38.6173 222.18 38.6173 223.05V226H37.5273V223.26C37.5273 222.49 37.2273 222.15 36.6573 222.15C36.1073 222.15 35.6773 222.42 35.6773 223.53V226H34.5873V223.25C34.5873 222.48 34.3073 222.15 33.7373 222.15C33.1873 222.15 32.7373 222.42 32.7373 223.53V226ZM43.1176 221.22C44.4476 221.22 45.3376 222.2 45.3376 223.67C45.3376 225.11 44.3976 226.12 43.0476 226.12C42.4276 226.12 41.8376 225.82 41.5476 225.37V228.1H40.4676V221.34H41.5476V221.97C41.8376 221.52 42.4576 221.22 43.1176 221.22ZM42.8876 225.15C43.6876 225.15 44.2476 224.54 44.2476 223.67C44.2476 222.8 43.6876 222.19 42.8876 222.19C42.0676 222.19 41.5076 222.79 41.5076 223.67C41.5076 224.55 42.0676 225.15 42.8876 225.15ZM47.9755 226H46.8855V221.34H47.9755V222.24C48.1455 221.58 48.7055 221.28 49.2155 221.28C49.3855 221.28 49.5255 221.29 49.6455 221.32V222.32C49.4755 222.3 49.3855 222.3 49.2155 222.3C48.4455 222.3 47.9755 222.88 47.9755 223.94V226ZM53.0112 226.12C51.4712 226.12 50.5512 225.04 50.5512 223.67C50.5512 222.3 51.4712 221.22 53.0112 221.22C54.5512 221.22 55.4712 222.3 55.4712 223.67C55.4712 225.04 54.5512 226.12 53.0112 226.12ZM53.0112 225.15C53.8912 225.15 54.3812 224.52 54.3812 223.67C54.3812 222.82 53.8912 222.19 53.0112 222.19C52.1312 222.19 51.6412 222.82 51.6412 223.67C51.6412 224.52 52.1312 225.15 53.0112 225.15ZM58.1064 226H57.0164V221.34H58.1064V221.99C58.3064 221.56 58.7964 221.22 59.4064 221.22C60.2564 221.22 60.6764 221.59 60.8764 222.05C61.0964 221.58 61.6464 221.22 62.3064 221.22C63.7064 221.22 63.9864 222.18 63.9864 223.05V226H62.8964V223.26C62.8964 222.49 62.5964 222.15 62.0264 222.15C61.4764 222.15 61.0464 222.42 61.0464 223.53V226H59.9564V223.25C59.9564 222.48 59.6764 222.15 59.1064 222.15C58.5564 222.15 58.1064 222.42 58.1064 223.53V226ZM66.3767 220.67C65.8967 220.67 65.5667 220.31 65.5667 219.86C65.5667 219.41 65.8967 219.05 66.3767 219.05C66.8567 219.05 67.1867 219.41 67.1867 219.86C67.1867 220.31 66.8567 220.67 66.3767 220.67ZM66.9167 226H65.8367V221.34H66.9167V226ZM70.4472 226.12C69.3072 226.12 68.4672 225.46 68.4672 224.57H69.5572C69.5572 224.97 69.9472 225.25 70.5072 225.25C70.9172 225.25 71.1772 225.03 71.1772 224.7C71.1772 224.44 71.0672 224.28 70.5672 224.15L69.6372 223.9C68.9872 223.72 68.6172 223.25 68.6172 222.59C68.6172 221.8 69.3672 221.22 70.4072 221.22C71.5472 221.22 72.2472 221.77 72.2472 222.67H71.1772C71.1772 222.28 70.8772 222.05 70.3672 222.05C69.9772 222.05 69.6972 222.25 69.6972 222.53C69.6972 222.78 69.8472 222.95 70.2772 223.07L71.2072 223.34C71.8672 223.53 72.2872 224.01 72.2872 224.67C72.2872 225.58 71.5772 226.12 70.4472 226.12ZM74.4275 220.67C73.9475 220.67 73.6175 220.31 73.6175 219.86C73.6175 219.41 73.9475 219.05 74.4275 219.05C74.9075 219.05 75.2375 219.41 75.2375 219.86C75.2375 220.31 74.9075 220.67 74.4275 220.67ZM74.9675 226H73.8875V221.34H74.9675V226ZM77.958 226H76.868V221.34H77.958V221.99C78.248 221.49 78.788 221.22 79.478 221.22C80.598 221.22 81.178 221.85 81.178 223.07V226H80.088V223.57C80.088 222.58 79.828 222.15 79.068 222.15C78.358 222.15 77.958 222.62 77.958 223.44V226ZM86.462 221.97V221.34H87.552V225.8C87.552 226.72 87.262 227.41 86.712 227.81C86.322 228.1 85.782 228.22 85.112 228.22C84.492 228.22 83.902 228.09 83.472 227.8C83.032 227.5 82.752 227.05 82.732 226.53H83.872C83.962 227.01 84.352 227.32 85.102 227.32C85.992 227.32 86.462 226.93 86.462 225.88V225.37C86.182 225.84 85.542 226.12 84.972 226.12C83.522 226.12 82.682 225.04 82.682 223.67C82.682 222.3 83.602 221.22 85.002 221.22C85.622 221.22 86.182 221.5 86.462 221.97ZM85.132 225.15C86.022 225.15 86.512 224.47 86.512 223.67C86.512 222.87 86.022 222.19 85.132 222.19C84.312 222.19 83.772 222.82 83.772 223.67C83.772 224.52 84.312 225.15 85.132 225.15ZM94.56 226.12C93.02 226.12 92.1 225.04 92.1 223.67C92.1 222.3 93.02 221.22 94.56 221.22C96.1 221.22 97.02 222.3 97.02 223.67C97.02 225.04 96.1 226.12 94.56 226.12ZM94.56 225.15C95.44 225.15 95.93 224.52 95.93 223.67C95.93 222.82 95.44 222.19 94.56 222.19C93.68 222.19 93.19 222.82 93.19 223.67C93.19 224.52 93.68 225.15 94.56 225.15ZM99.6552 226H98.5652V221.34H99.6552V221.99C99.9452 221.49 100.485 221.22 101.175 221.22C102.295 221.22 102.875 221.85 102.875 223.07V226H101.785V223.57C101.785 222.58 101.525 222.15 100.765 222.15C100.055 222.15 99.6552 222.62 99.6552 223.44V226ZM111.169 221.97V221.34H112.249V228.1H111.169V225.37C110.879 225.84 110.239 226.12 109.669 226.12C108.169 226.12 107.379 225.04 107.379 223.67C107.379 222.3 108.249 221.22 109.699 221.22C110.319 221.22 110.879 221.5 111.169 221.97ZM109.829 225.15C110.759 225.15 111.209 224.47 111.209 223.67C111.209 222.87 110.759 222.19 109.829 222.19C108.979 222.19 108.469 222.82 108.469 223.67C108.469 224.52 108.979 225.15 109.829 225.15ZM115.827 226.12C114.807 226.12 114.097 225.52 114.097 224.27V221.34H115.187V224C115.187 224.75 115.427 225.19 116.137 225.19C116.967 225.19 117.267 224.64 117.267 223.97V221.34H118.357V226H117.267V225.35C116.987 225.85 116.497 226.12 115.827 226.12ZM122.193 226.12C120.693 226.12 119.903 225.04 119.903 223.67C119.903 222.3 120.773 221.22 122.223 221.22C122.843 221.22 123.403 221.5 123.693 221.97V221.34H124.773V226H123.693V225.37C123.403 225.84 122.763 226.12 122.193 226.12ZM122.353 225.15C123.283 225.15 123.733 224.47 123.733 223.67C123.733 222.87 123.283 222.19 122.353 222.19C121.503 222.19 120.993 222.82 120.993 223.67C120.993 224.52 121.503 225.15 122.353 225.15ZM127.761 226H126.671V219H127.761V226ZM130.201 220.67C129.721 220.67 129.391 220.31 129.391 219.86C129.391 219.41 129.721 219.05 130.201 219.05C130.681 219.05 131.011 219.41 131.011 219.86C131.011 220.31 130.681 220.67 130.201 220.67ZM130.741 226H129.661V221.34H130.741V226ZM134.751 225.08C134.921 225.08 135.191 225.06 135.301 225.04V226C135.131 226.03 134.811 226.06 134.491 226.06C133.961 226.06 132.981 225.99 132.981 224.42V222.25H132.191V221.34H132.981V219.93H134.071V221.34H135.141V222.25H134.071V224.17C134.071 224.98 134.321 225.08 134.751 225.08ZM139.974 223.75V221.34H141.064V226.02C141.064 226.75 140.844 227.3 140.454 227.68C140.074 228.03 139.534 228.22 138.874 228.22C138.184 228.22 137.644 228.05 137.274 227.74C136.944 227.45 136.764 227.04 136.754 226.53H137.854C137.904 227.04 138.154 227.32 138.854 227.32C139.504 227.32 139.974 226.93 139.974 225.94V225.35C139.684 225.85 139.164 226.12 138.474 226.12C137.324 226.12 136.754 225.3 136.754 224.18V221.34H137.844V223.95C137.844 224.64 138.074 225.16 138.854 225.16C139.614 225.16 139.974 224.55 139.974 223.75ZM143.708 226.08C143.238 226.08 142.868 225.69 142.868 225.23C142.868 224.77 143.238 224.39 143.708 224.39C144.178 224.39 144.558 224.77 144.558 225.23C144.558 225.69 144.178 226.08 143.708 226.08Z" fill="white"/>
<path d="M188 122.514C188 122.514 174.5 70.0136 169 69.0136C163.5 68.0136 151.5 122.514 151.5 122.514" stroke="#FFD000"/>
<g filter="url(#filter1_i_203_1450)">
<path d="M194 122H146V134L147.5 135.5L149 137H191L192.5 135.5L194 134V122Z" fill="black"/>
</g>
<path d="M193.75 122.25H146.25V133.896L147.677 135.323L149.104 136.75H190.896L192.323 135.323L193.75 133.896V122.25Z" stroke="#FFD92D" stroke-width="0.5"/>
<path d="M76 85.5136C76 85.5136 62.5 33.0136 57 32.0136C51.5 31.0136 39.5 85.5136 39.5 85.5136" stroke="#2EA300"/>
<g filter="url(#filter2_i_203_1450)">
<path d="M82 85H34V97L35.5 98.5L37 100H79L80.5 98.5L82 97V85Z" fill="black"/>
</g>
<path d="M81.75 85.25H34.25V96.8964L35.6768 98.3232L37.1036 99.75H78.8964L80.3232 98.3232L81.75 96.8964V85.25Z" stroke="#2EA300" stroke-width="0.5"/>
<g filter="url(#filter3_i_203_1450)">
<path d="M143 149.8L140 149H83.5L80 149.8V153H143V149.8Z" fill="black"/>
</g>
<path d="M143.064 149.558L143.25 149.608V149.8V153V153.25H143H80H79.75V153V149.8V149.601L79.9443 149.556L83.4443 148.756L83.4718 148.75H83.5H140H140.033L140.064 148.758L143.064 149.558Z" stroke="#494949" stroke-width="0.5"/>
<g filter="url(#filter4_i_203_1450)">
<path d="M111.5 57H110.5L105.5 149H116.5L111.5 57Z" fill="black"/>
</g>
<path d="M116.236 148.75L111.263 57.25H110.737L105.764 148.75H116.236Z" stroke="#494949" stroke-width="0.5"/>
<path d="M169.786 61.5846C169.786 61.5846 173.439 65.6216 172.286 68.0846C171.209 70.3835 169.786 71.0845 166.285 70.5846C162.785 70.0847 62.285 36.0846 57.7853 34.0846C53.2856 32.0845 55.0587 29.311 56.2852 28.0845C57.5116 26.8581 60.2852 26.0845 63.2852 26.0845" stroke="#494949" stroke-width="3"/>
<circle cx="5" cy="5" r="5" transform="matrix(-1 0 0 1 116 47)" fill="#747474"/>
<defs>
<filter id="filter0_i_203_1450" x="0" y="-5" width="240" height="250" filterUnits="userSpaceOnUse" color-interpolation-filters="sRGB">
<feFlood flood-opacity="0" result="BackgroundImageFix"/>
<feBlend mode="normal" in="SourceGraphic" in2="BackgroundImageFix" result="shape"/>
<feColorMatrix in="SourceAlpha" type="matrix" values="0 0 0 0 0 0 0 0 0 0 0 0 0 0 0 0 0 0 127 0" result="hardAlpha"/>
<feOffset dy="-5"/>
<feGaussianBlur stdDeviation="10"/>
<feComposite in2="hardAlpha" operator="arithmetic" k2="-1" k3="1"/>
<feColorMatrix type="matrix" values="0 0 0 0 1 0 0 0 0 1 0 0 0 0 1 0 0 0 0.25 0"/>
<feBlend mode="normal" in2="shape" result="effect1_innerShadow_203_1450"/>
</filter>
<filter id="filter1_i_203_1450" x="146" y="117" width="48" height="20" filterUnits="userSpaceOnUse" color-interpolation-filters="sRGB">
<feFlood flood-opacity="0" result="BackgroundImageFix"/>
<feBlend mode="normal" in="SourceGraphic" in2="BackgroundImageFix" result="shape"/>
<feColorMatrix in="SourceAlpha" type="matrix" values="0 0 0 0 0 0 0 0 0 0 0 0 0 0 0 0 0 0 127 0" result="hardAlpha"/>
<feOffset dy="-5"/>
<feGaussianBlur stdDeviation="5"/>
<feComposite in2="hardAlpha" operator="arithmetic" k2="-1" k3="1"/>
<feColorMatrix type="matrix" values="0 0 0 0 1 0 0 0 0 0.815686 0 0 0 0 0 0 0 0 1 0"/>
<feBlend mode="normal" in2="shape" result="effect1_innerShadow_203_1450"/>
</filter>
<filter id="filter2_i_203_1450" x="34" y="80" width="48" height="20" filterUnits="userSpaceOnUse" color-interpolation-filters="sRGB">
<feFlood flood-opacity="0" result="BackgroundImageFix"/>
<feBlend mode="normal" in="SourceGraphic" in2="BackgroundImageFix" result="shape"/>
<feColorMatrix in="SourceAlpha" type="matrix" values="0 0 0 0 0 0 0 0 0 0 0 0 0 0 0 0 0 0 127 0" result="hardAlpha"/>
<feOffset dy="-5"/>
<feGaussianBlur stdDeviation="5"/>
<feComposite in2="hardAlpha" operator="arithmetic" k2="-1" k3="1"/>
<feColorMatrix type="matrix" values="0 0 0 0 0.141176 0 0 0 0 0.470588 0 0 0 0 0.0117647 0 0 0 1 0"/>
<feBlend mode="normal" in2="shape" result="effect1_innerShadow_203_1450"/>
</filter>
<filter id="filter3_i_203_1450" x="79.5" y="143.5" width="64" height="10" filterUnits="userSpaceOnUse" color-interpolation-filters="sRGB">
<feFlood flood-opacity="0" result="BackgroundImageFix"/>
<feBlend mode="normal" in="SourceGraphic" in2="BackgroundImageFix" result="shape"/>
<feColorMatrix in="SourceAlpha" type="matrix" values="0 0 0 0 0 0 0 0 0 0 0 0 0 0 0 0 0 0 127 0" result="hardAlpha"/>
<feOffset dy="-5"/>
<feGaussianBlur stdDeviation="5"/>
<feComposite in2="hardAlpha" operator="arithmetic" k2="-1" k3="1"/>
<feColorMatrix type="matrix" values="0 0 0 0 1 0 0 0 0 1 0 0 0 0 1 0 0 0 0.25 0"/>
<feBlend mode="normal" in2="shape" result="effect1_innerShadow_203_1450"/>
</filter>
<filter id="filter4_i_203_1450" x="105.5" y="52" width="11" height="97" filterUnits="userSpaceOnUse" color-interpolation-filters="sRGB">
<feFlood flood-opacity="0" result="BackgroundImageFix"/>
<feBlend mode="normal" in="SourceGraphic" in2="BackgroundImageFix" result="shape"/>
<feColorMatrix in="SourceAlpha" type="matrix" values="0 0 0 0 0 0 0 0 0 0 0 0 0 0 0 0 0 0 127 0" result="hardAlpha"/>
<feOffset dy="-5"/>
<feGaussianBlur stdDeviation="5"/>
<feComposite in2="hardAlpha" operator="arithmetic" k2="-1" k3="1"/>
<feColorMatrix type="matrix" values="0 0 0 0 1 0 0 0 0 1 0 0 0 0 1 0 0 0 0.25 0"/>
<feBlend mode="normal" in2="shape" result="effect1_innerShadow_203_1450"/>
</filter>
</defs>
</svg>
