<svg width="35" height="35" viewBox="0 0 35 35" fill="none" xmlns="http://www.w3.org/2000/svg">
<g filter="url(#filter0_i_135_367)">
<circle cx="17.5" cy="17.5" r="17.5" fill="black"/>
</g>
<path d="M18.4296 20.0791L9.02963 14.0971C8.54367 13.7757 8.20335 13.2764 8.08197 12.7065C7.96059 12.1367 8.06785 11.542 8.38066 11.0504C8.69347 10.5589 9.1868 10.2099 9.75442 10.0785C10.322 9.94719 10.9185 10.044 11.4155 10.3481L18.3118 14.7365L24.5037 10.4021C24.9868 10.0747 25.5793 9.95051 26.1532 10.0563C26.7271 10.1621 27.2363 10.4894 27.5709 10.9675C27.9055 11.4456 28.0387 12.0361 27.9415 12.6115C27.8444 13.187 27.5249 13.7011 27.0519 14.0429L18.4296 20.0791Z" fill="#EA4435"/>
<path d="M26.5185 25.5555H23.5556V12.2222C23.5556 11.6328 23.7897 11.0676 24.2064 10.6509C24.6232 10.2341 25.1884 9.99999 25.7778 9.99999C26.3671 9.99999 26.9324 10.2341 27.3491 10.6509C27.7659 11.0676 28 11.6328 28 12.2222V24.0741C28 24.467 27.8439 24.8438 27.5661 25.1216C27.2883 25.3995 26.9114 25.5555 26.5185 25.5555Z" fill="#00AC47"/>
<path d="M27.968 11.9005C27.9614 11.856 27.962 11.8106 27.9527 11.7662C27.9385 11.6982 27.912 11.6354 27.8917 11.5698C27.8721 11.4947 27.8484 11.4207 27.8208 11.3481C27.806 11.3129 27.7832 11.282 27.7663 11.2478C27.7202 11.149 27.6669 11.0538 27.6068 10.963C27.5772 10.9199 27.5401 10.8833 27.5074 10.8425C27.4512 10.7685 27.3905 10.698 27.3255 10.6315C27.2763 10.5836 27.2201 10.5435 27.1666 10.5003C27.1096 10.4515 27.0503 10.4056 26.9888 10.3627C26.93 10.3244 26.8657 10.2948 26.8036 10.2621C26.7381 10.2279 26.674 10.1907 26.6058 10.1635C26.54 10.137 26.4697 10.1201 26.4009 10.0999C26.3321 10.0796 26.2637 10.0554 26.193 10.0423C26.1055 10.0282 26.0172 10.0193 25.9286 10.0156C25.8723 10.0117 25.8166 10.0019 25.7602 10.0023C25.6554 10.0054 25.551 10.0159 25.4477 10.0338C25.406 10.04 25.364 10.0395 25.3226 10.0481C25.1828 10.0908 25.0434 10.1347 24.9044 10.1799C24.8663 10.1962 24.8329 10.2205 24.7959 10.2388C24.4197 10.4143 24.1025 10.6951 23.8824 11.047C23.6624 11.399 23.549 11.8072 23.556 12.2222V16.4904L27.0523 14.0427C27.3956 13.8123 27.6648 13.4873 27.8273 13.1071C27.9898 12.7269 28.0388 12.3078 27.968 11.9005Z" fill="#FFBA00"/>
<path d="M10.2222 10C10.8116 10 11.3768 10.2341 11.7936 10.6509C12.2103 11.0676 12.4444 11.6329 12.4444 12.2222V25.5556H9.48148C9.08857 25.5556 8.71175 25.3995 8.43392 25.1216C8.15608 24.8438 8 24.467 8 24.0741V12.2222C8 11.6329 8.23413 11.0676 8.65087 10.6509C9.06762 10.2341 9.63285 10 10.2222 10Z" fill="#4285F4"/>
<path d="M8.03246 11.9005C8.03898 11.856 8.03846 11.8106 8.04772 11.7662C8.06194 11.6982 8.08838 11.6354 8.10868 11.5698C8.12836 11.4947 8.15204 11.4207 8.17964 11.3482C8.19446 11.313 8.21727 11.2821 8.23416 11.2479C8.28022 11.1491 8.33355 11.0539 8.39372 10.963C8.42335 10.9199 8.46038 10.8833 8.49312 10.8425C8.54929 10.7685 8.61 10.698 8.6749 10.6315C8.72416 10.5836 8.78031 10.5435 8.83394 10.5003C8.89084 10.4515 8.95018 10.4056 9.01172 10.3627C9.07046 10.3244 9.13475 10.2948 9.1969 10.2621C9.26113 10.2258 9.32714 10.1927 9.39468 10.163C9.46061 10.1365 9.53083 10.1196 9.59957 10.0993C9.66831 10.0791 9.73683 10.0549 9.8075 10.0418C9.89505 10.0277 9.98335 10.0188 10.0719 10.0151C10.1282 10.0112 10.1839 10.0013 10.2403 10.0018C10.3451 10.0048 10.4495 10.0154 10.5528 10.0333C10.5945 10.0395 10.6365 10.039 10.678 10.0476C10.7497 10.0658 10.8204 10.0878 10.8899 10.1133C10.9597 10.1319 11.0285 10.154 11.0962 10.1794C11.1342 10.1957 11.1676 10.2199 11.2047 10.2383C11.3007 10.2834 11.3933 10.3354 11.4819 10.3939C11.7786 10.5976 12.0213 10.8706 12.189 11.1891C12.3567 11.5077 12.4444 11.8622 12.4444 12.2222V16.4904L8.94809 14.0429C8.60481 13.8124 8.33566 13.4874 8.17316 13.1072C8.01067 12.727 7.9618 12.3078 8.03246 11.9005Z" fill="#C52528"/>
<defs>
<filter id="filter0_i_135_367" x="0" y="0" width="35" height="35" filterUnits="userSpaceOnUse" color-interpolation-filters="sRGB">
<feFlood flood-opacity="0" result="BackgroundImageFix"/>
<feBlend mode="normal" in="SourceGraphic" in2="BackgroundImageFix" result="shape"/>
<feColorMatrix in="SourceAlpha" type="matrix" values="0 0 0 0 0 0 0 0 0 0 0 0 0 0 0 0 0 0 127 0" result="hardAlpha"/>
<feOffset/>
<feGaussianBlur stdDeviation="6"/>
<feComposite in2="hardAlpha" operator="arithmetic" k2="-1" k3="1"/>
<feColorMatrix type="matrix" values="0 0 0 0 1 0 0 0 0 1 0 0 0 0 1 0 0 0 0.5 0"/>
<feBlend mode="normal" in2="shape" result="effect1_innerShadow_135_367"/>
</filter>
</defs>
</svg>
