<svg width="250" height="50" viewBox="0 0 250 50" fill="none" xmlns="http://www.w3.org/2000/svg">
<rect x="0.5" y="0.5" width="249" height="49" rx="9.5" fill="black" stroke="#B8B7BB"/>
<path d="M88.7455 23.7782C88.7455 22.7504 88.6613 22.0004 88.479 21.2227H76.6253V25.8615H83.5832C83.4429 27.0143 82.6854 28.7504 81.002 29.917L80.9784 30.0724L84.7263 32.947L84.986 32.9727C87.3707 30.7921 88.7455 27.5837 88.7455 23.7782Z" fill="#4285F4"/>
<path d="M76.6253 35.9995C80.034 35.9995 82.8957 34.8883 84.986 32.9717L81.002 29.9161C79.9359 30.6522 78.505 31.1661 76.6253 31.1661C73.2866 31.1661 70.453 28.9856 69.4428 25.9717L69.2948 25.9841L65.3976 28.9703L65.3467 29.1105C67.4228 33.1938 71.6873 35.9995 76.6253 35.9995Z" fill="#34A853"/>
<path d="M69.4428 25.9714C69.1763 25.1936 69.0221 24.3602 69.0221 23.4991C69.0221 22.638 69.1763 21.8047 69.4288 21.0269L69.4217 20.8612L65.4758 17.8271L65.3467 17.8879C64.491 19.5824 64 21.4852 64 23.4991C64 25.513 64.491 27.4157 65.3467 29.1102L69.4428 25.9714Z" fill="#FBBC05"/>
<path d="M76.6253 15.8333C78.996 15.8333 80.5951 16.8472 81.507 17.6945L85.0701 14.25C82.8818 12.2361 80.034 11 76.6253 11C71.6873 11 67.4228 13.8055 65.3467 17.8889L69.4288 21.0278C70.453 18.0139 73.2866 15.8333 76.6253 15.8333Z" fill="#EB4335"/>
<path d="M121.499 23.52H129.023V25.324H127.329C126.669 28.954 124.139 31.352 120.003 31.352C115.075 31.352 112.083 27.854 112.105 23.388C112.105 19.01 114.877 15.248 120.091 15.248C123.699 15.248 126.339 17.294 126.735 20H124.535C124.095 18.306 122.489 17.052 120.091 17.052C116.153 17.052 114.173 19.89 114.195 23.388C114.173 26.82 116.351 29.548 120.003 29.548C122.907 29.548 124.689 28.03 125.239 25.324H121.499V23.52ZM135.604 31.264C132.304 31.264 130.324 28.888 130.324 25.94C130.324 22.97 132.304 20.594 135.604 20.594C138.882 20.594 140.884 22.97 140.884 25.94C140.884 28.888 138.882 31.264 135.604 31.264ZM135.604 29.548C137.738 29.548 138.97 27.964 138.97 25.94C138.97 23.894 137.738 22.31 135.604 22.31C133.47 22.31 132.216 23.894 132.216 25.94C132.216 27.964 133.47 29.548 135.604 29.548ZM147.936 31.264C144.636 31.264 142.656 28.888 142.656 25.94C142.656 22.97 144.636 20.594 147.936 20.594C151.214 20.594 153.216 22.97 153.216 25.94C153.216 28.888 151.214 31.264 147.936 31.264ZM147.936 29.548C150.07 29.548 151.302 27.964 151.302 25.94C151.302 23.894 150.07 22.31 147.936 22.31C145.802 22.31 144.548 23.894 144.548 25.94C144.548 27.964 145.802 29.548 147.936 29.548ZM163.418 22.662V20.858H165.31V30.736C165.31 32.672 164.694 34.124 163.55 35.004C162.692 35.642 161.504 35.95 160.052 35.95C158.666 35.95 157.368 35.62 156.444 34.96C155.542 34.322 154.992 33.376 154.948 32.276H156.95C157.082 33.464 158.094 34.344 160.03 34.344C162.23 34.344 163.418 33.288 163.418 30.868V29.218C162.78 30.494 161.284 31.264 159.81 31.264C156.708 31.264 154.794 28.932 154.794 25.94C154.794 22.926 156.84 20.594 159.854 20.594C161.416 20.594 162.78 21.364 163.418 22.662ZM160.074 29.548C162.208 29.548 163.506 27.92 163.506 25.94C163.506 23.938 162.208 22.31 160.074 22.31C158.05 22.31 156.686 23.85 156.686 25.94C156.686 28.008 158.072 29.548 160.074 29.548ZM170.52 31H168.606V15.6H170.52V31ZM182.803 25.368C182.803 25.742 182.803 26.028 182.759 26.49H174.905C174.949 28.448 176.159 29.592 178.095 29.592C179.437 29.592 180.361 29.064 180.779 28.096H182.693C182.341 29.966 180.471 31.264 178.095 31.264C174.971 31.264 173.013 29.196 173.013 25.918C173.013 22.706 174.993 20.594 178.007 20.594C180.867 20.594 182.803 22.574 182.803 25.368ZM174.905 25.016H180.933C180.933 23.234 179.833 22.134 177.985 22.134C176.137 22.134 174.993 23.3 174.905 25.016Z" fill="white"/>
</svg>
