<svg width="150" height="106" viewBox="0 0 150 106" fill="none" xmlns="http://www.w3.org/2000/svg">
<path fill-rule="evenodd" clip-rule="evenodd" d="M10.05 0.455135C5.111 -1.33433 -0.0890491 2.37953 0.00115707 7.63198L0.831487 55.9795C0.883861 59.0295 2.77916 61.7435 5.62449 62.8431L12.2519 65.4044C15.684 66.7307 19.5057 65.3621 21.3586 62.3099L28.2437 67.1294L68.1866 100.057L68.396 100.229L68.6261 100.374L73.9966 103.735L74.0923 103.795L74.1912 103.85C75.972 104.834 78.2534 105.76 80.7039 105.935C83.2751 106.118 86.1347 105.459 88.4435 103.15C89.8831 101.711 90.8283 99.9639 91.2792 98.121C93.841 98.5451 97.3898 98.468 99.9342 95.9237C101.476 94.382 102.451 92.4879 102.858 90.5007C105.334 90.6579 108.28 90.1337 110.504 87.9089C112.547 85.8668 113.266 83.236 113.261 80.8429C115.331 80.4644 117.311 79.4749 118.912 77.8741C121.565 75.2213 122.539 71.5254 121.835 68.1064L130.047 64.0002C132.082 65.818 135.036 66.4522 137.748 65.4044L144.375 62.8431C147.221 61.7435 149.116 59.0295 149.168 55.9795L149.999 7.63198C150.089 2.37953 144.889 -1.33433 139.95 0.455135L115.17 9.43327C111.385 10.8046 109.399 14.8913 110.551 18.6616C105.665 20.0644 100.226 19.3133 95.2188 17.9078C87.7183 15.8023 80.1137 15.9253 72.9193 19.0834C72.7121 18.9595 72.5009 18.8405 72.2876 18.7269C70.8728 17.9731 69.106 17.3099 67.1445 16.8788C63.2417 16.0212 58.1157 15.9932 53.2218 18.565C51.1832 19.6361 48.1481 20.0055 44.74 19.7909C42.7852 19.6678 40.9031 19.3659 39.3292 19.0223C40.7262 15.1555 38.7361 10.8484 34.83 9.43327L10.05 0.455135ZM36.1159 26.8206L24.6911 54.4755L33.1545 60.3998L33.2888 60.4938L33.4154 60.598L73.2755 93.4572L78.3135 96.6109C79.4557 97.2302 80.5023 97.5702 81.2956 97.6267C81.9893 97.6762 82.2964 97.5176 82.5538 97.2604C83.4392 96.3748 83.4904 94.971 82.7071 94.0258L74.3503 87.7858C72.5072 86.4097 72.1289 83.8001 73.5049 81.9572C74.8811 80.1142 77.4908 79.7357 79.3337 81.1119L87.9903 87.5758L88.2311 87.7555L88.4435 87.9679C89.0588 88.5833 90.5333 89.431 92.1833 89.813C92.9639 89.9938 93.5668 90.0164 93.9458 89.9681C94.0349 89.9568 94.0982 89.9436 94.14 89.9328C94.9411 89.0351 94.9521 87.6807 94.173 86.7703L78.9289 74.8051C77.1196 73.385 76.8041 70.7671 78.2243 68.9578C79.6444 67.1485 82.2623 66.833 84.0716 68.2532L99.5607 80.4104L99.7573 80.5648L99.9342 80.7416C100.511 81.3188 101.67 81.9358 102.931 82.1372C104.107 82.325 104.554 82.0538 104.611 82.0191C104.619 82.0145 104.62 82.0141 104.615 82.0193C104.734 81.8995 105.027 81.4557 104.906 80.4367C104.792 79.475 104.349 78.5472 103.82 77.9686L83.3186 60.5174C81.5671 59.0265 81.3559 56.3981 82.8467 54.6466C84.3376 52.8951 86.966 52.6839 88.7175 54.1748L109.374 71.7581L109.501 71.8664L109.619 71.9845C110.559 72.9242 112.083 72.9242 113.022 71.9845C113.958 71.0491 113.962 69.5354 113.035 68.5948L90.9098 46.981C88.9192 45.0365 85.9645 44.4586 83.3879 45.5101L72.0121 50.1523C65.6735 52.7389 58.4024 50.1695 55.0963 44.1745C51.4973 37.6482 53.8701 29.4399 60.3966 25.8408L62.4907 24.6858C60.7001 24.6715 58.8349 25.0247 57.0964 25.9382C53.0605 28.059 48.2049 28.3547 44.217 28.1037C41.2049 27.9141 38.3485 27.389 36.1159 26.8206ZM113.712 26.4033C106.323 28.8108 98.7013 27.5366 92.9676 25.9271C86.3222 24.0617 80.0829 24.4961 74.336 27.6654L70.5062 29.7774L64.4188 33.1344C61.9207 34.5121 61.0123 37.654 62.39 40.1522C63.6555 42.4469 66.4387 43.4306 68.865 42.4404L80.2409 37.7981C85.889 35.4933 92.3665 36.76 96.7303 41.0229L117.262 61.0801L126.193 56.615L113.712 26.4033ZM8.34998 8.69846L31.1741 16.9678L14.4951 57.3416L9.14991 55.276L8.34998 8.69846ZM141.65 8.69846L118.826 16.9678L135.505 57.3416L140.85 55.276L141.65 8.69846ZM94.199 89.9146C94.2046 89.9125 94.2072 89.9111 94.2072 89.9111L94.2048 89.912L94.199 89.9146Z" fill="url(#paint0_linear_199_1474)"/>
<defs>
<linearGradient id="paint0_linear_199_1474" x1="74.9997" y1="0.000522928" x2="74.9997" y2="105.964" gradientUnits="userSpaceOnUse">
<stop stop-color="#00C8FF"/>
<stop offset="1" stop-color="#0077FF"/>
</linearGradient>
</defs>
</svg>
