<svg width="35" height="35" viewBox="0 0 35 35" fill="none" xmlns="http://www.w3.org/2000/svg">
<g filter="url(#filter0_i_133_348)">
<circle cx="17.5" cy="17.5" r="17.5" fill="black"/>
</g>
<path d="M13.0715 27.929C12.2979 27.9204 11.5316 27.7785 10.8062 27.5096C10.2765 27.3138 9.79728 27.0021 9.40352 26.5973C8.99759 26.2043 8.68542 25.7249 8.49019 25.1947C8.22152 24.4694 8.07984 23.7031 8.07137 22.9297C8.01196 21.6438 8 21.2581 8 17.9999C8 14.7417 8.01314 14.3574 8.07078 13.0705C8.08028 12.2974 8.22213 11.5315 8.49019 10.8062C8.68637 10.2764 8.9981 9.797 9.40273 9.40273C9.79601 8.99717 10.2755 8.68529 10.8057 8.49019C11.531 8.2213 12.2974 8.07942 13.0709 8.07078C14.3572 8.01196 14.7435 8 17.9999 8C21.2563 8 21.6424 8.01314 22.9293 8.07078C23.7026 8.08021 24.4687 8.22207 25.1941 8.49019C25.7241 8.68555 26.2034 8.99732 26.5969 9.40254C27.0022 9.79611 27.3141 10.2756 27.5096 10.8057C27.7786 11.531 27.9205 12.2973 27.9292 13.0709C27.988 14.3578 28 14.7431 28 18.0003C28 21.2575 27.988 21.6428 27.9292 22.9297C27.9199 23.7031 27.778 24.4693 27.5096 25.1947C27.3066 25.7208 26.9957 26.1986 26.5969 26.5973C26.1982 26.996 25.7203 27.3068 25.1941 27.5096C24.4688 27.7786 23.7025 27.9205 22.9289 27.9292C21.6432 27.988 21.2567 28 17.9995 28C14.7423 28 14.357 27.9886 13.0713 27.9292" fill="url(#paint0_radial_133_348)"/>
<path d="M13.0715 27.929C12.2979 27.9204 11.5316 27.7785 10.8062 27.5096C10.2765 27.3138 9.79728 27.0021 9.40352 26.5973C8.99759 26.2043 8.68542 25.7249 8.49019 25.1947C8.22152 24.4694 8.07984 23.7031 8.07137 22.9297C8.01196 21.6438 8 21.2581 8 17.9999C8 14.7417 8.01314 14.3574 8.07078 13.0705C8.08028 12.2974 8.22213 11.5315 8.49019 10.8062C8.68637 10.2764 8.9981 9.797 9.40273 9.40273C9.79601 8.99717 10.2755 8.68529 10.8057 8.49019C11.531 8.2213 12.2974 8.07942 13.0709 8.07078C14.3572 8.01196 14.7435 8 17.9999 8C21.2563 8 21.6424 8.01314 22.9293 8.07078C23.7026 8.08021 24.4687 8.22207 25.1941 8.49019C25.7241 8.68555 26.2034 8.99732 26.5969 9.40254C27.0022 9.79611 27.3141 10.2756 27.5096 10.8057C27.7786 11.531 27.9205 12.2973 27.9292 13.0709C27.988 14.3578 28 14.7431 28 18.0003C28 21.2575 27.988 21.6428 27.9292 22.9297C27.9199 23.7031 27.778 24.4693 27.5096 25.1947C27.3066 25.7208 26.9957 26.1986 26.5969 26.5973C26.1982 26.996 25.7203 27.3068 25.1941 27.5096C24.4688 27.7786 23.7025 27.9205 22.9289 27.9292C21.6432 27.988 21.2567 28 17.9995 28C14.7423 28 14.357 27.9886 13.0713 27.9292" fill="url(#paint1_radial_133_348)"/>
<path d="M15.5445 18.0424C15.5445 17.5526 15.6898 17.0738 15.962 16.6665C16.2342 16.2592 16.621 15.9418 17.0736 15.7544C17.5262 15.567 18.0242 15.518 18.5046 15.6136C18.985 15.7093 19.4263 15.9452 19.7726 16.2916C20.1189 16.638 20.3548 17.0793 20.4503 17.5598C20.5458 18.0402 20.4966 18.5382 20.3091 18.9907C20.1216 19.4433 19.8041 19.83 19.3968 20.1021C18.9894 20.3742 18.5106 20.5194 18.0207 20.5193C17.3639 20.5192 16.7341 20.2582 16.2697 19.7937C15.8053 19.3292 15.5444 18.6993 15.5445 18.0424ZM14.2055 18.0424C14.2055 18.797 14.4293 19.5347 14.8485 20.1621C15.2677 20.7895 15.8636 21.2785 16.5607 21.5673C17.2579 21.8561 18.025 21.9316 18.7651 21.7844C19.5052 21.6372 20.185 21.2738 20.7185 20.7402C21.2521 20.2067 21.6155 19.5269 21.7627 18.7868C21.9099 18.0467 21.8344 17.2796 21.5456 16.5824C21.2568 15.8853 20.7678 15.2894 20.1404 14.8702C19.513 14.451 18.7753 14.2272 18.0207 14.2272C17.5197 14.2272 17.0236 14.3258 16.5607 14.5176C16.0978 14.7093 15.6772 14.9903 15.3229 15.3446C14.9686 15.6989 14.6876 16.1195 14.4959 16.5824C14.3041 17.0453 14.2055 17.5414 14.2055 18.0424ZM21.0954 14.076C21.0953 14.2523 21.1476 14.4247 21.2455 14.5714C21.3434 14.7181 21.4826 14.8324 21.6454 14.9C21.8083 14.9675 21.9876 14.9852 22.1605 14.9509C22.3335 14.9166 22.4924 14.8317 22.6171 14.7071C22.7419 14.5825 22.8269 14.4237 22.8613 14.2507C22.8958 14.0778 22.8782 13.8985 22.8108 13.7356C22.7434 13.5726 22.6292 13.4334 22.4826 13.3353C22.3361 13.2373 22.1637 13.1849 21.9874 13.1849C21.751 13.185 21.5244 13.2789 21.3572 13.446C21.19 13.6131 21.096 13.8397 21.0958 14.076M15.0194 24.0904C14.5483 24.0853 14.0815 23.999 13.6396 23.8355C13.3191 23.712 13.0281 23.5228 12.7852 23.2799C12.5423 23.0371 12.3529 22.7462 12.2292 22.4257C12.0657 21.9839 11.9794 21.5171 11.9743 21.0459C11.9383 20.2628 11.9312 20.0275 11.9312 18.0434C11.9312 16.0593 11.939 15.8246 11.9743 15.0407C11.9801 14.5696 12.0663 14.103 12.2292 13.6609C12.3527 13.3403 12.5421 13.0492 12.785 12.8063C13.0279 12.5634 13.319 12.3741 13.6396 12.2505C14.0815 12.087 14.5482 12.0008 15.0194 11.9956C15.8025 11.9596 16.0378 11.9525 18.0211 11.9525C20.0045 11.9525 20.2399 11.9602 21.0239 11.9958C21.4949 12.0016 21.9616 12.0878 22.4036 12.2507C22.7242 12.3743 23.0153 12.5636 23.2583 12.8065C23.5012 13.0494 23.6905 13.3406 23.814 13.6611C23.9776 14.103 24.0638 14.5698 24.0689 15.0409C24.105 15.8252 24.1121 16.0593 24.1121 18.0436C24.1121 20.0279 24.1048 20.2624 24.0689 21.0463C24.0634 21.5175 23.9772 21.9841 23.814 22.4261C23.6904 22.7465 23.501 23.0375 23.2581 23.2803C23.0152 23.5231 22.7241 23.7124 22.4036 23.8359C21.9618 23.9995 21.495 24.0857 21.0239 24.0908C20.2407 24.1269 20.0054 24.134 18.0211 24.134C16.0368 24.134 15.8023 24.1267 15.0194 24.0908M14.9578 10.6578C14.3413 10.6699 13.7314 10.7866 13.1539 11.0029C12.6603 11.1938 12.212 11.4857 11.8378 11.8599C11.4636 12.2341 11.1717 12.6824 10.9808 13.176C10.7646 13.7535 10.6479 14.3634 10.6357 14.9799C10.5991 15.7721 10.5908 16.0254 10.5908 18.0432C10.5908 20.0611 10.5993 20.3142 10.6357 21.1065C10.6479 21.723 10.7646 22.333 10.9808 22.9104C11.1717 23.4041 11.4636 23.8523 11.8378 24.2266C12.212 24.6008 12.6603 24.8927 13.1539 25.0836C13.7314 25.2997 14.3414 25.4164 14.9578 25.4287C15.7504 25.4647 16.0033 25.4736 18.0211 25.4736C20.039 25.4736 20.2921 25.4651 21.0844 25.4287C21.7009 25.4165 22.3109 25.2998 22.8883 25.0836C23.382 24.8927 23.8302 24.6008 24.2045 24.2266C24.5787 23.8523 24.8706 23.4041 25.0615 22.9104C25.278 22.3331 25.3947 21.7231 25.4066 21.1065C25.4426 20.3138 25.4509 20.0611 25.4509 18.0432C25.4509 16.0254 25.4424 15.7723 25.4066 14.9799C25.3944 14.3634 25.2777 13.7535 25.0615 13.176C24.8706 12.6825 24.5788 12.2343 24.2047 11.8601C23.8306 11.4858 23.3824 11.1939 22.8889 11.0029C22.3115 10.7865 21.7015 10.6698 21.085 10.6578C20.2927 10.6215 20.0395 10.6129 18.0221 10.6129C16.0047 10.6129 15.751 10.6213 14.9582 10.6578" fill="white"/>
<defs>
<filter id="filter0_i_133_348" x="0" y="0" width="35" height="35" filterUnits="userSpaceOnUse" color-interpolation-filters="sRGB">
<feFlood flood-opacity="0" result="BackgroundImageFix"/>
<feBlend mode="normal" in="SourceGraphic" in2="BackgroundImageFix" result="shape"/>
<feColorMatrix in="SourceAlpha" type="matrix" values="0 0 0 0 0 0 0 0 0 0 0 0 0 0 0 0 0 0 127 0" result="hardAlpha"/>
<feOffset/>
<feGaussianBlur stdDeviation="6"/>
<feComposite in2="hardAlpha" operator="arithmetic" k2="-1" k3="1"/>
<feColorMatrix type="matrix" values="0 0 0 0 1 0 0 0 0 1 0 0 0 0 1 0 0 0 0.5 0"/>
<feBlend mode="normal" in2="shape" result="effect1_innerShadow_133_348"/>
</filter>
<radialGradient id="paint0_radial_133_348" cx="0" cy="0" r="1" gradientUnits="userSpaceOnUse" gradientTransform="translate(9.2943 27.5618) scale(25.3923)">
<stop offset="0.09" stop-color="#FA8F21"/>
<stop offset="0.78" stop-color="#D82D7E"/>
</radialGradient>
<radialGradient id="paint1_radial_133_348" cx="0" cy="0" r="1" gradientUnits="userSpaceOnUse" gradientTransform="translate(21.8532 26.9194) scale(22.3455)">
<stop offset="0.64" stop-color="#8C3AAA" stop-opacity="0"/>
<stop offset="1" stop-color="#8C3AAA"/>
</radialGradient>
</defs>
</svg>
