<svg width="35" height="35" viewBox="0 0 35 35" fill="none" xmlns="http://www.w3.org/2000/svg">
<g filter="url(#filter0_i_133_341)">
<circle cx="17.5" cy="17.5" r="17.5" transform="matrix(-1 0 0 1 35 0)" fill="black"/>
</g>
<path d="M8.83301 18C8.83301 11.3333 11.333 8.83334 17.9997 8.83334C24.6663 8.83334 27.1663 11.3333 27.1663 18C27.1663 24.6667 24.6663 27.1667 17.9997 27.1667C11.333 27.1667 8.83301 24.6667 8.83301 18Z" fill="#0076F4"/>
<path fill-rule="evenodd" clip-rule="evenodd" d="M21.5584 21.7333H15.5C15.1228 21.729 14.7625 21.576 14.4973 21.3077C14.2321 21.0394 14.0834 20.6773 14.0834 20.3V17.0083L13.0667 15.2667C13.0244 15.1933 13.002 15.1102 13.002 15.0255C13.0019 14.9408 13.024 14.8576 13.0662 14.7842C13.1084 14.7108 13.1692 14.6497 13.2424 14.6072C13.3156 14.5646 13.3987 14.542 13.4834 14.5417H21.5584C21.748 14.5406 21.936 14.5771 22.1114 14.6492C22.2868 14.7212 22.4462 14.8274 22.5803 14.9615C22.7143 15.0956 22.8205 15.2549 22.8926 15.4303C22.9646 15.6058 23.0011 15.7937 23 15.9833V20.3C23 20.4889 22.9627 20.676 22.8901 20.8505C22.8176 21.0249 22.7113 21.1833 22.5773 21.3165C22.4433 21.4497 22.2843 21.5551 22.1094 21.6266C21.9346 21.6982 21.7473 21.7344 21.5584 21.7333Z" fill="#005CC9"/>
<path fill-rule="evenodd" clip-rule="evenodd" d="M21.5588 21.4583H15.5004C15.1217 21.4539 14.7602 21.2998 14.4947 21.0297C14.2293 20.7596 14.0815 20.3954 14.0838 20.0167V16.725L13.0671 14.9833C13.0241 14.9106 13.0013 14.8278 13.001 14.7433C13.0007 14.6589 13.0229 14.5759 13.0653 14.5029C13.1078 14.4298 13.1689 14.3695 13.2425 14.328C13.316 14.2864 13.3993 14.2653 13.4838 14.2667H21.5588C21.7477 14.2656 21.935 14.3018 22.1098 14.3734C22.2847 14.4449 22.4437 14.5503 22.5777 14.6835C22.7116 14.8167 22.818 14.9751 22.8905 15.1496C22.9631 15.324 23.0004 15.5111 23.0004 15.7V20.0167C23.0015 20.2063 22.965 20.3943 22.8929 20.5697C22.8209 20.7451 22.7147 20.9045 22.5806 21.0385C22.4465 21.1726 22.2872 21.2788 22.1118 21.3508C21.9364 21.4229 21.7484 21.4594 21.5588 21.4583Z" fill="white"/>
<path d="M21.3835 15.8417H15.7085C15.4968 15.8417 15.3252 16.0133 15.3252 16.225C15.3252 16.4367 15.4968 16.6083 15.7085 16.6083H21.3835C21.5952 16.6083 21.7669 16.4367 21.7669 16.225C21.7669 16.0133 21.5952 15.8417 21.3835 15.8417Z" fill="#00B7FF"/>
<path d="M21.3835 17.3667H15.7085C15.4968 17.3667 15.3252 17.5383 15.3252 17.75C15.3252 17.9617 15.4968 18.1333 15.7085 18.1333H21.3835C21.5952 18.1333 21.7669 17.9617 21.7669 17.75C21.7669 17.5383 21.5952 17.3667 21.3835 17.3667Z" fill="#00B7FF"/>
<path d="M19.8419 18.925H15.7085C15.4968 18.925 15.3252 19.0966 15.3252 19.3083C15.3252 19.52 15.4968 19.6917 15.7085 19.6917H19.8419C20.0536 19.6917 20.2252 19.52 20.2252 19.3083C20.2252 19.0966 20.0536 18.925 19.8419 18.925Z" fill="#00B7FF"/>
<defs>
<filter id="filter0_i_133_341" x="0" y="0" width="35" height="35" filterUnits="userSpaceOnUse" color-interpolation-filters="sRGB">
<feFlood flood-opacity="0" result="BackgroundImageFix"/>
<feBlend mode="normal" in="SourceGraphic" in2="BackgroundImageFix" result="shape"/>
<feColorMatrix in="SourceAlpha" type="matrix" values="0 0 0 0 0 0 0 0 0 0 0 0 0 0 0 0 0 0 127 0" result="hardAlpha"/>
<feOffset/>
<feGaussianBlur stdDeviation="6"/>
<feComposite in2="hardAlpha" operator="arithmetic" k2="-1" k3="1"/>
<feColorMatrix type="matrix" values="0 0 0 0 1 0 0 0 0 1 0 0 0 0 1 0 0 0 0.5 0"/>
<feBlend mode="normal" in2="shape" result="effect1_innerShadow_133_341"/>
</filter>
</defs>
</svg>
