<svg width="620" height="245" viewBox="0 0 620 245" fill="none" xmlns="http://www.w3.org/2000/svg">
<g filter="url(#filter0_i_357_954)">
<rect width="620" height="245" rx="20" fill="black"/>
</g>
<rect x="0.25" y="0.25" width="619.5" height="244.5" rx="19.75" stroke="#494949" stroke-width="0.5"/>
<path d="M59.832 183H56.92L52.888 171.8H56.424L58.44 178.552L60.376 171.8H63.016L64.952 178.552L66.968 171.8H70.504L66.472 183H63.56L61.704 176.904L59.832 183ZM77.0146 174.824C78.9666 174.824 79.9266 175.928 79.9266 178.152V183H76.7266V178.952C76.7266 177.928 76.3906 177.448 75.6226 177.448C74.8386 177.448 74.4386 177.96 74.4386 179.016V183H71.3026V171.8H74.4386V176.216C74.8546 175.304 75.7506 174.824 77.0146 174.824ZM90.062 178.616C90.062 179.08 90.046 179.336 89.982 179.784H84.126C84.174 180.616 84.75 181.064 85.646 181.064C86.302 181.064 86.734 180.92 86.894 180.52H89.934C89.646 182.2 87.966 183.224 85.646 183.224C82.782 183.224 80.99 181.752 80.99 179.032C80.99 176.36 82.814 174.824 85.582 174.824C88.222 174.824 90.062 176.344 90.062 178.616ZM84.126 178.056H86.926C86.91 177.192 86.43 176.712 85.55 176.712C84.686 176.712 84.158 177.24 84.126 178.056ZM94.3449 183H91.2089V175.048H94.3449V176.824C94.6329 175.592 95.5449 174.888 96.6329 174.888C96.9049 174.888 97.0329 174.904 97.2249 174.936V177.896C96.9209 177.848 96.7449 177.832 96.4249 177.832C95.0169 177.832 94.3449 178.616 94.3449 180.328V183ZM106.921 178.616C106.921 179.08 106.905 179.336 106.841 179.784H100.985C101.033 180.616 101.609 181.064 102.505 181.064C103.161 181.064 103.593 180.92 103.753 180.52H106.793C106.505 182.2 104.825 183.224 102.505 183.224C99.6414 183.224 97.8494 181.752 97.8494 179.032C97.8494 176.36 99.6734 174.824 102.441 174.824C105.081 174.824 106.921 176.344 106.921 178.616ZM100.985 178.056H103.785C103.769 177.192 103.289 176.712 102.409 176.712C101.545 176.712 101.017 177.24 100.985 178.056ZM113.133 183H110.125L106.669 175.048H110.237L111.629 179.592L113.021 175.048H116.573L113.133 183ZM125.39 178.616C125.39 179.08 125.374 179.336 125.31 179.784H119.454C119.502 180.616 120.078 181.064 120.974 181.064C121.63 181.064 122.062 180.92 122.222 180.52H125.262C124.974 182.2 123.294 183.224 120.974 183.224C118.11 183.224 116.318 181.752 116.318 179.032C116.318 176.36 118.142 174.824 120.91 174.824C123.55 174.824 125.39 176.344 125.39 178.616ZM119.454 178.056H122.254C122.238 177.192 121.758 176.712 120.878 176.712C120.014 176.712 119.486 177.24 119.454 178.056ZM129.673 183H126.537V175.048H129.673V176.824C129.961 175.592 130.873 174.888 131.961 174.888C132.233 174.888 132.361 174.904 132.553 174.936V177.896C132.249 177.848 132.073 177.832 131.753 177.832C130.345 177.832 129.673 178.616 129.673 180.328V183ZM142.113 175.8L143.825 171.8H147.537L141.985 183H138.257L140.177 179.064L136.417 171.8H140.337L142.113 175.8ZM150.442 183.224C147.626 183.224 145.818 181.528 145.818 179.016C145.818 176.504 147.626 174.824 150.442 174.824C153.274 174.824 155.082 176.504 155.082 179.016C155.082 181.528 153.274 183.224 150.442 183.224ZM150.442 180.632C151.37 180.632 151.93 179.992 151.93 179.016C151.93 178.04 151.37 177.4 150.442 177.4C149.53 177.4 148.954 178.04 148.954 179.016C148.954 179.992 149.53 180.632 150.442 180.632ZM159.088 183.224C157.008 183.224 156.16 181.896 156.16 179.896V175.048H159.344V179.208C159.344 180.12 159.68 180.6 160.416 180.6C161.168 180.6 161.552 180.136 161.552 179.112V175.048H164.704V183H161.552V181.816C161.168 182.68 160.32 183.224 159.088 183.224ZM180.703 183H177.247L176.895 181.704H173.279L172.927 183H169.471L173.295 171.8H176.895L180.703 183ZM175.087 174.936L173.919 179.288H176.255L175.087 174.936ZM184.829 183H181.693V175.048H184.829V176.824C185.117 175.592 186.029 174.888 187.117 174.888C187.389 174.888 187.517 174.904 187.709 174.936V177.896C187.405 177.848 187.229 177.832 186.909 177.832C185.501 177.832 184.829 178.616 184.829 180.328V183ZM197.406 178.616C197.406 179.08 197.39 179.336 197.326 179.784H191.47C191.518 180.616 192.094 181.064 192.99 181.064C193.646 181.064 194.078 180.92 194.238 180.52H197.278C196.99 182.2 195.31 183.224 192.99 183.224C190.126 183.224 188.334 181.752 188.334 179.032C188.334 176.36 190.158 174.824 192.926 174.824C195.566 174.824 197.406 176.344 197.406 178.616ZM191.47 178.056H194.27C194.254 177.192 193.774 176.712 192.894 176.712C192.03 176.712 191.502 177.24 191.47 178.056ZM198.955 185.56C198.747 185.56 198.539 185.528 198.363 185.496V184.392C198.619 184.424 198.795 184.44 199.067 184.44C199.659 184.44 200.091 184.248 200.363 183.96C200.651 183.672 200.811 183.288 200.843 182.904C200.699 183.08 200.363 183.176 200.027 183.176C198.939 183.176 198.299 182.376 198.299 181.4C198.299 180.424 199.051 179.624 200.139 179.624C201.291 179.624 202.219 180.52 202.219 182.184C202.219 184.424 201.003 185.56 198.955 185.56ZM213.645 183H210.733L206.7 171.8H210.237L212.253 178.552L214.189 171.8H216.829L218.765 178.552L220.781 171.8H224.317L220.285 183H217.373L215.517 176.904L213.645 183ZM232.359 178.616C232.359 179.08 232.343 179.336 232.279 179.784H226.423C226.471 180.616 227.047 181.064 227.943 181.064C228.599 181.064 229.031 180.92 229.191 180.52H232.231C231.943 182.2 230.263 183.224 227.943 183.224C225.079 183.224 223.287 181.752 223.287 179.032C223.287 176.36 225.111 174.824 227.879 174.824C230.519 174.824 232.359 176.344 232.359 178.616ZM226.423 178.056H229.223C229.207 177.192 228.727 176.712 227.847 176.712C226.983 176.712 226.455 177.24 226.423 178.056ZM247.703 183H244.247L243.895 181.704H240.279L239.927 183H236.471L240.295 171.8H243.895L247.703 183ZM242.087 174.936L240.919 179.288H243.255L242.087 174.936ZM251.829 183H248.693V175.048H251.829V176.824C252.117 175.592 253.029 174.888 254.117 174.888C254.389 174.888 254.517 174.904 254.709 174.936V177.896C254.405 177.848 254.229 177.832 253.909 177.832C252.501 177.832 251.829 178.616 251.829 180.328V183ZM264.406 178.616C264.406 179.08 264.39 179.336 264.326 179.784H258.47C258.518 180.616 259.094 181.064 259.99 181.064C260.646 181.064 261.078 180.92 261.238 180.52H264.278C263.99 182.2 262.31 183.224 259.99 183.224C257.126 183.224 255.334 181.752 255.334 179.032C255.334 176.36 257.158 174.824 259.926 174.824C262.566 174.824 264.406 176.344 264.406 178.616ZM258.47 178.056H261.27C261.254 177.192 260.774 176.712 259.894 176.712C259.03 176.712 258.502 177.24 258.47 178.056Z" fill="white"/>
<path d="M72.85 204.17C71.23 204.17 70.3 203.28 70.3 201.71H71.45C71.45 202.62 71.97 203.17 72.84 203.17C73.6 203.17 74.02 202.82 74.02 202.19C74.02 201.66 73.77 201.39 72.98 201.07L71.84 200.61C70.96 200.27 70.5 199.64 70.5 198.75C70.5 197.61 71.42 196.83 72.74 196.83C74.13 196.83 75.05 197.7 75.05 199.02H73.9C73.9 198.25 73.48 197.81 72.7 197.81C72.04 197.81 71.66 198.15 71.66 198.68C71.66 199.16 72 199.48 72.82 199.81L73.85 200.23C74.73 200.59 75.17 201.21 75.17 202.16C75.17 203.36 74.24 204.17 72.85 204.17ZM80.9864 201.43C80.9864 201.62 80.9764 201.77 80.9564 202.03H77.4964C77.5264 202.77 78.0064 203.17 78.7964 203.17C79.3364 203.17 79.6564 203 79.8364 202.64H80.9364C80.7964 203.51 79.9164 204.12 78.7964 204.12C77.3264 204.12 76.4164 203.18 76.4164 201.67C76.4164 200.18 77.3364 199.22 78.7564 199.22C80.0864 199.22 80.9864 200.12 80.9864 201.43ZM77.4964 201.2H79.9164C79.9064 200.48 79.4864 200.08 78.7364 200.08C77.9664 200.08 77.5064 200.54 77.4964 201.2ZM84.4798 204.12C82.9798 204.12 82.1898 203.04 82.1898 201.67C82.1898 200.3 83.0598 199.22 84.5098 199.22C85.1298 199.22 85.6898 199.5 85.9798 199.97V199.34H87.0598V204H85.9798V203.37C85.6898 203.84 85.0498 204.12 84.4798 204.12ZM84.6398 203.15C85.5698 203.15 86.0198 202.47 86.0198 201.67C86.0198 200.87 85.5698 200.19 84.6398 200.19C83.7898 200.19 83.2798 200.82 83.2798 201.67C83.2798 202.52 83.7898 203.15 84.6398 203.15ZM90.0478 204H88.9578V199.34H90.0478V199.99C90.2478 199.56 90.7378 199.22 91.3478 199.22C92.1978 199.22 92.6178 199.59 92.8178 200.05C93.0378 199.58 93.5878 199.22 94.2478 199.22C95.6478 199.22 95.9278 200.18 95.9278 201.05V204H94.8378V201.26C94.8378 200.49 94.5378 200.15 93.9678 200.15C93.4178 200.15 92.9878 200.42 92.9878 201.53V204H91.8978V201.25C91.8978 200.48 91.6178 200.15 91.0478 200.15C90.4978 200.15 90.0478 200.42 90.0478 201.53V204ZM98.8291 204H97.7391V197H98.8291V204ZM104.949 201.43C104.949 201.62 104.939 201.77 104.919 202.03H101.459C101.489 202.77 101.969 203.17 102.759 203.17C103.299 203.17 103.619 203 103.799 202.64H104.899C104.759 203.51 103.879 204.12 102.759 204.12C101.289 204.12 100.379 203.18 100.379 201.67C100.379 200.18 101.299 199.22 102.719 199.22C104.049 199.22 104.949 200.12 104.949 201.43ZM101.459 201.2H103.879C103.869 200.48 103.449 200.08 102.699 200.08C101.929 200.08 101.469 200.54 101.459 201.2ZM108.133 204.12C106.993 204.12 106.153 203.46 106.153 202.57H107.243C107.243 202.97 107.633 203.25 108.193 203.25C108.603 203.25 108.863 203.03 108.863 202.7C108.863 202.44 108.753 202.28 108.253 202.15L107.323 201.9C106.673 201.72 106.303 201.25 106.303 200.59C106.303 199.8 107.053 199.22 108.093 199.22C109.233 199.22 109.933 199.77 109.933 200.67H108.863C108.863 200.28 108.563 200.05 108.053 200.05C107.663 200.05 107.383 200.25 107.383 200.53C107.383 200.78 107.533 200.95 107.963 201.07L108.893 201.34C109.553 201.53 109.973 202.01 109.973 202.67C109.973 203.58 109.263 204.12 108.133 204.12ZM113.203 204.12C112.063 204.12 111.223 203.46 111.223 202.57H112.313C112.313 202.97 112.703 203.25 113.263 203.25C113.673 203.25 113.933 203.03 113.933 202.7C113.933 202.44 113.823 202.28 113.323 202.15L112.393 201.9C111.743 201.72 111.373 201.25 111.373 200.59C111.373 199.8 112.123 199.22 113.163 199.22C114.303 199.22 115.003 199.77 115.003 200.67H113.933C113.933 200.28 113.633 200.05 113.123 200.05C112.733 200.05 112.453 200.25 112.453 200.53C112.453 200.78 112.603 200.95 113.033 201.07L113.963 201.34C114.623 201.53 115.043 202.01 115.043 202.67C115.043 203.58 114.333 204.12 113.203 204.12ZM117.733 204H116.643V197H117.733V204ZM122.804 201.75V199.34H123.894V204.02C123.894 204.75 123.674 205.3 123.284 205.68C122.904 206.03 122.364 206.22 121.704 206.22C121.014 206.22 120.474 206.05 120.104 205.74C119.774 205.45 119.594 205.04 119.584 204.53H120.684C120.734 205.04 120.984 205.32 121.684 205.32C122.334 205.32 122.804 204.93 122.804 203.94V203.35C122.514 203.85 121.994 204.12 121.304 204.12C120.154 204.12 119.584 203.3 119.584 202.18V199.34H120.674V201.95C120.674 202.64 120.904 203.16 121.684 203.16C122.444 203.16 122.804 202.55 122.804 201.75ZM130.768 204.12C129.318 204.12 128.448 203.12 128.448 201.67C128.448 200.22 129.318 199.22 130.768 199.22C132.068 199.22 132.878 199.93 132.978 201H131.888C131.768 200.47 131.428 200.19 130.768 200.19C129.998 200.19 129.538 200.72 129.538 201.67C129.538 202.62 129.998 203.15 130.768 203.15C131.428 203.15 131.768 202.88 131.888 202.39H132.978C132.878 203.43 132.068 204.12 130.768 204.12ZM136.74 204.12C135.2 204.12 134.28 203.04 134.28 201.67C134.28 200.3 135.2 199.22 136.74 199.22C138.28 199.22 139.2 200.3 139.2 201.67C139.2 203.04 138.28 204.12 136.74 204.12ZM136.74 203.15C137.62 203.15 138.11 202.52 138.11 201.67C138.11 200.82 137.62 200.19 136.74 200.19C135.86 200.19 135.37 200.82 135.37 201.67C135.37 202.52 135.86 203.15 136.74 203.15ZM141.835 204H140.745V199.34H141.835V199.99C142.125 199.49 142.665 199.22 143.355 199.22C144.475 199.22 145.055 199.85 145.055 201.07V204H143.965V201.57C143.965 200.58 143.705 200.15 142.945 200.15C142.235 200.15 141.835 200.62 141.835 201.44V204ZM147.999 204H146.909V199.34H147.999V199.99C148.289 199.49 148.829 199.22 149.519 199.22C150.639 199.22 151.219 199.85 151.219 201.07V204H150.129V201.57C150.129 200.58 149.869 200.15 149.109 200.15C148.399 200.15 147.999 200.62 147.999 201.44V204ZM157.293 201.43C157.293 201.62 157.283 201.77 157.263 202.03H153.803C153.833 202.77 154.313 203.17 155.103 203.17C155.643 203.17 155.963 203 156.143 202.64H157.243C157.103 203.51 156.223 204.12 155.103 204.12C153.633 204.12 152.723 203.18 152.723 201.67C152.723 200.18 153.643 199.22 155.063 199.22C156.393 199.22 157.293 200.12 157.293 201.43ZM153.803 201.2H156.223C156.213 200.48 155.793 200.08 155.043 200.08C154.273 200.08 153.813 200.54 153.803 201.2ZM160.914 204.12C159.464 204.12 158.594 203.12 158.594 201.67C158.594 200.22 159.464 199.22 160.914 199.22C162.214 199.22 163.024 199.93 163.124 201H162.034C161.914 200.47 161.574 200.19 160.914 200.19C160.144 200.19 159.684 200.72 159.684 201.67C159.684 202.62 160.144 203.15 160.914 203.15C161.574 203.15 161.914 202.88 162.034 202.39H163.124C163.024 203.43 162.214 204.12 160.914 204.12ZM166.74 203.08C166.91 203.08 167.18 203.06 167.29 203.04V204C167.12 204.03 166.8 204.06 166.48 204.06C165.95 204.06 164.97 203.99 164.97 202.42V200.25H164.18V199.34H164.97V197.93H166.06V199.34H167.13V200.25H166.06V202.17C166.06 202.98 166.31 203.08 166.74 203.08ZM169.332 198.67C168.852 198.67 168.522 198.31 168.522 197.86C168.522 197.41 168.852 197.05 169.332 197.05C169.812 197.05 170.142 197.41 170.142 197.86C170.142 198.31 169.812 198.67 169.332 198.67ZM169.872 204H168.792V199.34H169.872V204ZM172.862 204H171.772V199.34H172.862V199.99C173.152 199.49 173.692 199.22 174.382 199.22C175.502 199.22 176.082 199.85 176.082 201.07V204H174.992V201.57C174.992 200.58 174.732 200.15 173.972 200.15C173.262 200.15 172.862 200.62 172.862 201.44V204ZM181.366 199.97V199.34H182.456V203.8C182.456 204.72 182.166 205.41 181.616 205.81C181.226 206.1 180.686 206.22 180.016 206.22C179.396 206.22 178.806 206.09 178.376 205.8C177.936 205.5 177.656 205.05 177.636 204.53H178.776C178.866 205.01 179.256 205.32 180.006 205.32C180.896 205.32 181.366 204.93 181.366 203.88V203.37C181.086 203.84 180.446 204.12 179.876 204.12C178.426 204.12 177.586 203.04 177.586 201.67C177.586 200.3 178.506 199.22 179.906 199.22C180.526 199.22 181.086 199.5 181.366 199.97ZM180.036 203.15C180.926 203.15 181.416 202.47 181.416 201.67C181.416 200.87 180.926 200.19 180.036 200.19C179.216 200.19 178.676 200.82 178.676 201.67C178.676 202.52 179.216 203.15 180.036 203.15ZM189.294 204.12C187.794 204.12 187.004 203.04 187.004 201.67C187.004 200.3 187.874 199.22 189.324 199.22C189.944 199.22 190.504 199.5 190.794 199.97V199.34H191.874V204H190.794V203.37C190.504 203.84 189.864 204.12 189.294 204.12ZM189.454 203.15C190.384 203.15 190.834 202.47 190.834 201.67C190.834 200.87 190.384 200.19 189.454 200.19C188.604 200.19 188.094 200.82 188.094 201.67C188.094 202.52 188.604 203.15 189.454 203.15ZM194.862 204H193.772V197H194.862V204ZM197.853 204H196.763V197H197.853V204ZM205.923 201.75V199.34H207.013V204.02C207.013 204.75 206.793 205.3 206.403 205.68C206.023 206.03 205.483 206.22 204.823 206.22C204.133 206.22 203.593 206.05 203.223 205.74C202.893 205.45 202.713 205.04 202.703 204.53H203.803C203.853 205.04 204.103 205.32 204.803 205.32C205.453 205.32 205.923 204.93 205.923 203.94V203.35C205.633 203.85 205.113 204.12 204.423 204.12C203.273 204.12 202.703 203.3 202.703 202.18V199.34H203.793V201.95C203.793 202.64 204.023 203.16 204.803 203.16C205.563 203.16 205.923 202.55 205.923 201.75ZM211.027 204.12C209.487 204.12 208.567 203.04 208.567 201.67C208.567 200.3 209.487 199.22 211.027 199.22C212.567 199.22 213.487 200.3 213.487 201.67C213.487 203.04 212.567 204.12 211.027 204.12ZM211.027 203.15C211.907 203.15 212.397 202.52 212.397 201.67C212.397 200.82 211.907 200.19 211.027 200.19C210.147 200.19 209.657 200.82 209.657 201.67C209.657 202.52 210.147 203.15 211.027 203.15ZM216.712 204.12C215.692 204.12 214.982 203.52 214.982 202.27V199.34H216.072V202C216.072 202.75 216.312 203.19 217.022 203.19C217.852 203.19 218.152 202.64 218.152 201.97V199.34H219.242V204H218.152V203.35C217.872 203.85 217.382 204.12 216.712 204.12ZM222.228 204H221.138V199.34H222.228V200.24C222.398 199.58 222.958 199.28 223.468 199.28C223.638 199.28 223.778 199.29 223.898 199.32V200.32C223.728 200.3 223.638 200.3 223.468 200.3C222.698 200.3 222.228 200.88 222.228 201.94V204ZM73.35 210.22C74.68 210.22 75.57 211.2 75.57 212.67C75.57 214.11 74.63 215.12 73.28 215.12C72.66 215.12 72.07 214.82 71.78 214.37V215H70.7V208H71.78V210.97C72.07 210.52 72.69 210.22 73.35 210.22ZM73.12 214.15C73.92 214.15 74.48 213.54 74.48 212.67C74.48 211.8 73.92 211.19 73.12 211.19C72.3 211.19 71.74 211.79 71.74 212.67C71.74 213.55 72.3 214.15 73.12 214.15ZM78.798 215.12C77.778 215.12 77.068 214.52 77.068 213.27V210.34H78.158V213C78.158 213.75 78.398 214.19 79.108 214.19C79.938 214.19 80.238 213.64 80.238 212.97V210.34H81.328V215H80.238V214.35C79.958 214.85 79.468 215.12 78.798 215.12ZM84.8534 215.12C83.7134 215.12 82.8734 214.46 82.8734 213.57H83.9634C83.9634 213.97 84.3534 214.25 84.9134 214.25C85.3234 214.25 85.5834 214.03 85.5834 213.7C85.5834 213.44 85.4734 213.28 84.9734 213.15L84.0434 212.9C83.3934 212.72 83.0234 212.25 83.0234 211.59C83.0234 210.8 83.7734 210.22 84.8134 210.22C85.9534 210.22 86.6534 210.77 86.6534 211.67H85.5834C85.5834 211.28 85.2834 211.05 84.7734 211.05C84.3834 211.05 84.1034 211.25 84.1034 211.53C84.1034 211.78 84.2534 211.95 84.6834 212.07L85.6134 212.34C86.2734 212.53 86.6934 213.01 86.6934 213.67C86.6934 214.58 85.9834 215.12 84.8534 215.12ZM88.8338 209.67C88.3538 209.67 88.0238 209.31 88.0238 208.86C88.0238 208.41 88.3538 208.05 88.8338 208.05C89.3138 208.05 89.6438 208.41 89.6438 208.86C89.6438 209.31 89.3138 209.67 88.8338 209.67ZM89.3738 215H88.2938V210.34H89.3738V215ZM92.3642 215H91.2742V210.34H92.3642V210.99C92.6542 210.49 93.1942 210.22 93.8842 210.22C95.0042 210.22 95.5842 210.85 95.5842 212.07V215H94.4942V212.57C94.4942 211.58 94.2342 211.15 93.4742 211.15C92.7642 211.15 92.3642 211.62 92.3642 212.44V215ZM101.658 212.43C101.658 212.62 101.648 212.77 101.628 213.03H98.1683C98.1983 213.77 98.6783 214.17 99.4683 214.17C100.008 214.17 100.328 214 100.508 213.64H101.608C101.468 214.51 100.588 215.12 99.4683 215.12C97.9983 215.12 97.0883 214.18 97.0883 212.67C97.0883 211.18 98.0083 210.22 99.4283 210.22C100.758 210.22 101.658 211.12 101.658 212.43ZM98.1683 212.2H100.588C100.578 211.48 100.158 211.08 99.4083 211.08C98.6383 211.08 98.1783 211.54 98.1683 212.2ZM104.842 215.12C103.702 215.12 102.862 214.46 102.862 213.57H103.952C103.952 213.97 104.342 214.25 104.902 214.25C105.312 214.25 105.572 214.03 105.572 213.7C105.572 213.44 105.462 213.28 104.962 213.15L104.032 212.9C103.382 212.72 103.012 212.25 103.012 211.59C103.012 210.8 103.762 210.22 104.802 210.22C105.942 210.22 106.642 210.77 106.642 211.67H105.572C105.572 211.28 105.272 211.05 104.762 211.05C104.372 211.05 104.092 211.25 104.092 211.53C104.092 211.78 104.242 211.95 104.672 212.07L105.602 212.34C106.262 212.53 106.682 213.01 106.682 213.67C106.682 214.58 105.972 215.12 104.842 215.12ZM109.912 215.12C108.772 215.12 107.932 214.46 107.932 213.57H109.022C109.022 213.97 109.412 214.25 109.972 214.25C110.382 214.25 110.642 214.03 110.642 213.7C110.642 213.44 110.532 213.28 110.032 213.15L109.102 212.9C108.452 212.72 108.082 212.25 108.082 211.59C108.082 210.8 108.832 210.22 109.872 210.22C111.012 210.22 111.712 210.77 111.712 211.67H110.642C110.642 211.28 110.342 211.05 109.832 211.05C109.442 211.05 109.162 211.25 109.162 211.53C109.162 211.78 109.312 211.95 109.742 212.07L110.672 212.34C111.332 212.53 111.752 213.01 111.752 213.67C111.752 214.58 111.042 215.12 109.912 215.12ZM119.002 210.22C120.332 210.22 121.222 211.2 121.222 212.67C121.222 214.11 120.282 215.12 118.932 215.12C118.312 215.12 117.722 214.82 117.432 214.37V217.1H116.352V210.34H117.432V210.97C117.722 210.52 118.342 210.22 119.002 210.22ZM118.772 214.15C119.572 214.15 120.132 213.54 120.132 212.67C120.132 211.8 119.572 211.19 118.772 211.19C117.952 211.19 117.392 211.79 117.392 212.67C117.392 213.55 117.952 214.15 118.772 214.15ZM123.86 215H122.77V208H123.86V215ZM127.701 215.12C126.201 215.12 125.411 214.04 125.411 212.67C125.411 211.3 126.281 210.22 127.731 210.22C128.351 210.22 128.911 210.5 129.201 210.97V210.34H130.281V215H129.201V214.37C128.911 214.84 128.271 215.12 127.701 215.12ZM127.861 214.15C128.791 214.15 129.241 213.47 129.241 212.67C129.241 211.87 128.791 211.19 127.861 211.19C127.011 211.19 126.501 211.82 126.501 212.67C126.501 213.52 127.011 214.15 127.861 214.15ZM134.289 214.08C134.459 214.08 134.729 214.06 134.839 214.04V215C134.669 215.03 134.349 215.06 134.029 215.06C133.499 215.06 132.519 214.99 132.519 213.42V211.25H131.729V210.34H132.519V208.93H133.609V210.34H134.679V211.25H133.609V213.17C133.609 213.98 133.859 214.08 134.289 214.08ZM138.671 208.91C138.341 208.91 137.881 208.96 137.881 209.64V210.34H139.101V211.25H137.881V215H136.791V211.25H135.841V210.34H136.791V209.66C136.791 208.16 137.881 207.94 138.371 207.94C138.711 207.94 138.951 207.98 139.101 208.03V208.95C138.951 208.94 138.831 208.91 138.671 208.91ZM142.466 215.12C140.926 215.12 140.006 214.04 140.006 212.67C140.006 211.3 140.926 210.22 142.466 210.22C144.006 210.22 144.926 211.3 144.926 212.67C144.926 214.04 144.006 215.12 142.466 215.12ZM142.466 214.15C143.346 214.15 143.836 213.52 143.836 212.67C143.836 211.82 143.346 211.19 142.466 211.19C141.586 211.19 141.096 211.82 141.096 212.67C141.096 213.52 141.586 214.15 142.466 214.15ZM147.561 215H146.471V210.34H147.561V211.24C147.731 210.58 148.291 210.28 148.801 210.28C148.971 210.28 149.111 210.29 149.231 210.32V211.32C149.061 211.3 148.971 211.3 148.801 211.3C148.031 211.3 147.561 211.88 147.561 212.94V215ZM151.724 215H150.634V210.34H151.724V210.99C151.924 210.56 152.414 210.22 153.024 210.22C153.874 210.22 154.294 210.59 154.494 211.05C154.714 210.58 155.264 210.22 155.924 210.22C157.324 210.22 157.604 211.18 157.604 212.05V215H156.514V212.26C156.514 211.49 156.214 211.15 155.644 211.15C155.094 211.15 154.664 211.42 154.664 212.53V215H153.574V212.25C153.574 211.48 153.294 211.15 152.724 211.15C152.174 211.15 151.724 211.42 151.724 212.53V215ZM161.084 215.12C159.944 215.12 159.104 214.46 159.104 213.57H160.194C160.194 213.97 160.584 214.25 161.144 214.25C161.554 214.25 161.814 214.03 161.814 213.7C161.814 213.44 161.704 213.28 161.204 213.15L160.274 212.9C159.624 212.72 159.254 212.25 159.254 211.59C159.254 210.8 160.004 210.22 161.044 210.22C162.184 210.22 162.884 210.77 162.884 211.67H161.814C161.814 211.28 161.514 211.05 161.004 211.05C160.614 211.05 160.334 211.25 160.334 211.53C160.334 211.78 160.484 211.95 160.914 212.07L161.844 212.34C162.504 212.53 162.924 213.01 162.924 213.67C162.924 214.58 162.214 215.12 161.084 215.12ZM169.514 215H168.594L166.874 210.34H168.074L169.044 213.42L170.054 210.34H171.234L172.244 213.42L173.214 210.34H174.414L172.694 215H171.774L170.644 211.68L169.514 215ZM176.201 209.67C175.721 209.67 175.391 209.31 175.391 208.86C175.391 208.41 175.721 208.05 176.201 208.05C176.681 208.05 177.011 208.41 177.011 208.86C177.011 209.31 176.681 209.67 176.201 209.67ZM176.741 215H175.661V210.34H176.741V215ZM180.751 214.08C180.921 214.08 181.191 214.06 181.301 214.04V215C181.131 215.03 180.811 215.06 180.491 215.06C179.961 215.06 178.981 214.99 178.981 213.42V211.25H178.191V210.34H178.981V208.93H180.071V210.34H181.141V211.25H180.071V213.17C180.071 213.98 180.321 214.08 180.751 214.08ZM185.414 210.22C186.534 210.22 187.114 210.85 187.114 212.07V215H186.024V212.57C186.024 211.58 185.764 211.15 185.004 211.15C184.294 211.15 183.894 211.62 183.894 212.44V215H182.804V208H183.894V210.99C184.184 210.49 184.724 210.22 185.414 210.22ZM196.058 215H192.018V208H196.058V209.03H193.168V211.01H196.058V212.04H193.168V213.97H196.058V215ZM200.017 214.08C200.187 214.08 200.457 214.06 200.567 214.04V215C200.397 215.03 200.077 215.06 199.757 215.06C199.227 215.06 198.247 214.99 198.247 213.42V211.25H197.457V210.34H198.247V208.93H199.337V210.34H200.407V211.25H199.337V213.17C199.337 213.98 199.587 214.08 200.017 214.08ZM206.24 212.43C206.24 212.62 206.23 212.77 206.21 213.03H202.75C202.78 213.77 203.26 214.17 204.05 214.17C204.59 214.17 204.91 214 205.09 213.64H206.19C206.05 214.51 205.17 215.12 204.05 215.12C202.58 215.12 201.67 214.18 201.67 212.67C201.67 211.18 202.59 210.22 204.01 210.22C205.34 210.22 206.24 211.12 206.24 212.43ZM202.75 212.2H205.17C205.16 211.48 204.74 211.08 203.99 211.08C203.22 211.08 202.76 211.54 202.75 212.2ZM208.884 215H207.794V210.34H208.884V211.24C209.054 210.58 209.614 210.28 210.124 210.28C210.294 210.28 210.434 210.29 210.554 210.32V211.32C210.384 211.3 210.294 211.3 210.124 211.3C209.354 211.3 208.884 211.88 208.884 212.94V215ZM213.046 215H211.956V210.34H213.046V210.99C213.336 210.49 213.876 210.22 214.566 210.22C215.686 210.22 216.266 210.85 216.266 212.07V215H215.176V212.57C215.176 211.58 214.916 211.15 214.156 211.15C213.446 211.15 213.046 211.62 213.046 212.44V215ZM218.66 209.67C218.18 209.67 217.85 209.31 217.85 208.86C217.85 208.41 218.18 208.05 218.66 208.05C219.14 208.05 219.47 208.41 219.47 208.86C219.47 209.31 219.14 209.67 218.66 209.67ZM219.2 215H218.12V210.34H219.2V215ZM223.21 214.08C223.38 214.08 223.65 214.06 223.76 214.04V215C223.59 215.03 223.27 215.06 222.95 215.06C222.42 215.06 221.44 214.99 221.44 213.42V211.25H220.65V210.34H221.44V208.93H222.53V210.34H223.6V211.25H222.53V213.17C222.53 213.98 222.78 214.08 223.21 214.08ZM228.433 212.75V210.34H229.523V215.02C229.523 215.75 229.303 216.3 228.913 216.68C228.533 217.03 227.993 217.22 227.333 217.22C226.643 217.22 226.103 217.05 225.733 216.74C225.403 216.45 225.222 216.04 225.213 215.53H226.313C226.363 216.04 226.613 216.32 227.313 216.32C227.963 216.32 228.433 215.93 228.433 214.94V214.35C228.143 214.85 227.623 215.12 226.933 215.12C225.783 215.12 225.213 214.3 225.213 213.18V210.34H226.303V212.95C226.303 213.64 226.533 214.16 227.313 214.16C228.073 214.16 228.433 213.55 228.433 212.75ZM239.607 215H238.357L238.087 214.11H235.397L235.127 215H233.877L236.237 208H237.247L239.607 215ZM236.737 209.61L235.697 213.08H237.777L236.737 209.61ZM242.152 215H241.002V208H242.152V215ZM244.838 215.08C244.368 215.08 243.998 214.69 243.998 214.23C243.998 213.77 244.368 213.39 244.838 213.39C245.308 213.39 245.688 213.77 245.688 214.23C245.688 214.69 245.308 215.08 244.838 215.08Z" fill="white"/>
<defs>
<filter id="filter0_i_357_954" x="0" y="-5" width="620" height="250" filterUnits="userSpaceOnUse" color-interpolation-filters="sRGB">
<feFlood flood-opacity="0" result="BackgroundImageFix"/>
<feBlend mode="normal" in="SourceGraphic" in2="BackgroundImageFix" result="shape"/>
<feColorMatrix in="SourceAlpha" type="matrix" values="0 0 0 0 0 0 0 0 0 0 0 0 0 0 0 0 0 0 127 0" result="hardAlpha"/>
<feOffset dy="-5"/>
<feGaussianBlur stdDeviation="10"/>
<feComposite in2="hardAlpha" operator="arithmetic" k2="-1" k3="1"/>
<feColorMatrix type="matrix" values="0 0 0 0 1 0 0 0 0 1 0 0 0 0 1 0 0 0 0.25 0"/>
<feBlend mode="normal" in2="shape" result="effect1_innerShadow_357_954"/>
</filter>
</defs>
</svg>
