<svg width="150" height="166" viewBox="0 0 150 166" fill="none" xmlns="http://www.w3.org/2000/svg">
<g filter="url(#filter0_d_199_1466)">
<path fill-rule="evenodd" clip-rule="evenodd" d="M73.8001 101.92C73.2241 103.36 71.7841 104.416 70.1521 104.416C69.7681 104.416 69.3841 104.32 69.0001 104.224L61.2241 101.536C60.2641 101.248 59.4961 100.576 59.0161 99.6163C58.5361 98.7523 58.5361 97.6963 58.8241 96.7363L59.8801 93.6643C59.1121 93.0883 58.4401 92.5123 57.7681 91.8403L54.8881 93.2803C54.4081 93.4723 53.8321 93.6643 53.2561 93.6643C51.8161 93.6643 50.4721 92.8003 49.8001 91.4563L46.2481 84.0643C45.2881 82.2403 46.1521 79.9363 47.9761 79.0723L50.8561 77.6323C50.7601 76.6723 50.6641 75.8083 50.6641 74.8483L47.6881 73.7923C45.6721 73.1203 44.6161 70.9123 45.2881 68.9923L47.9761 61.2163C48.5521 59.6803 49.9921 58.6243 51.6241 58.6243C52.0081 58.6243 52.3921 58.7203 52.7761 58.8163L55.8481 59.8723C56.4241 59.2003 57.0961 58.4323 57.6721 57.7603L56.3281 54.8803C55.8481 54.0163 55.8481 52.9603 56.1361 52.0003C56.4241 51.0403 57.0961 50.2723 58.0561 49.8883L65.4481 46.2403C65.9281 46.0483 66.5041 45.8563 67.0801 45.8563C68.5201 45.8563 69.8641 46.7203 70.5361 47.9683L71.8801 50.8483C72.8401 50.7523 73.8001 50.7523 74.7601 50.7523L75.7201 47.6803C76.2961 46.1443 77.7361 45.1843 79.3681 45.1843C79.7521 45.1843 80.1361 45.1843 80.5201 45.3763L88.2961 48.0643C89.2561 48.3523 90.0241 49.0243 90.5041 49.9843C90.9841 50.8483 90.9841 51.9043 90.6961 52.8643L89.6401 55.8403C90.4081 56.4163 91.0801 57.0883 91.7521 57.7603L94.6321 56.3203C95.1121 56.0323 95.6881 55.9363 96.2641 55.9363C97.7041 55.9363 99.0481 56.8003 99.7201 58.0483L103.272 65.4403C103.752 66.4003 103.752 67.3603 103.464 68.3203C103.176 69.2803 102.408 70.0483 101.544 70.5283L98.6641 71.9683C98.7601 72.8323 98.8561 73.7923 98.8561 74.7523L101.832 75.8083C103.848 76.4803 104.904 78.5923 104.232 80.6083L101.544 88.3843C100.968 89.9203 99.5281 90.8803 97.8961 90.8803C97.5121 90.8803 97.1281 90.8803 96.7441 90.6883L93.6721 89.6323C93.0961 90.4003 92.4241 91.0723 91.8481 91.7443L93.1921 94.6243C94.1521 96.5443 93.3841 98.7523 91.4641 99.7123L84.0721 103.264C83.5921 103.552 83.0161 103.648 82.4401 103.648C81.0001 103.648 79.6561 102.88 78.9841 101.536L77.6401 98.6563C76.6801 98.7523 75.7201 98.8483 74.7601 98.8483L73.8001 101.92ZM53.8321 135.136H96.0721C96.3601 124.192 100.68 113.536 108.264 105.184C115.752 96.9283 119.88 86.1763 119.88 75.0403C119.88 50.2723 99.7201 30.1123 74.9521 30.1123H74.6641C50.5681 30.3043 30.9841 49.2163 30.1201 73.3123C29.6401 85.2163 33.7681 96.6403 41.9281 105.472C49.3201 113.536 53.5441 124 53.8321 135.136Z" fill="#FFD000"/>
</g>
<defs>
<filter id="filter0_d_199_1466" x="0.08255" y="0.112305" width="149.798" height="165.024" filterUnits="userSpaceOnUse" color-interpolation-filters="sRGB">
<feFlood flood-opacity="0" result="BackgroundImageFix"/>
<feColorMatrix in="SourceAlpha" type="matrix" values="0 0 0 0 0 0 0 0 0 0 0 0 0 0 0 0 0 0 127 0" result="hardAlpha"/>
<feOffset/>
<feGaussianBlur stdDeviation="15"/>
<feComposite in2="hardAlpha" operator="out"/>
<feColorMatrix type="matrix" values="0 0 0 0 1 0 0 0 0 0.683483 0 0 0 0 0.000472005 0 0 0 1 0"/>
<feBlend mode="normal" in2="BackgroundImageFix" result="effect1_dropShadow_199_1466"/>
<feBlend mode="normal" in="SourceGraphic" in2="effect1_dropShadow_199_1466" result="shape"/>
</filter>
</defs>
</svg>
