<svg width="35" height="35" viewBox="0 0 35 35" fill="none" xmlns="http://www.w3.org/2000/svg">
<g filter="url(#filter0_i_133_329)">
<circle cx="17.5" cy="17.5" r="17.5" fill="black"/>
</g>
<path d="M25.086 10.9194C23.2057 9.03791 20.7056 8.00115 18.0418 8C12.5528 8 8.0858 12.4656 8.0836 17.9544C8.08297 19.7089 8.5414 21.4216 9.41275 22.9312L8 28.0897L13.279 26.7055C14.7334 27.4987 16.3711 27.9167 18.0376 27.9173H18.0418H18.0418C23.53 27.9173 27.9977 23.451 28 17.9624C28.0009 15.3023 26.966 12.8011 25.086 10.9194ZM18.0418 26.236H18.0386C16.5532 26.2352 15.0965 25.8364 13.8259 25.0825L13.5236 24.9032L10.3909 25.7246L11.2273 22.6714L11.0303 22.3583C10.2017 21.0409 9.76426 19.5184 9.76488 17.955C9.76671 13.3929 13.4795 9.68139 18.045 9.68139C20.2558 9.68231 22.3338 10.5441 23.8966 12.108C25.4593 13.6718 26.3192 15.7507 26.3186 17.9617C26.3166 22.524 22.6037 26.236 18.0418 26.236Z" fill="#E0E0E0"/>
<path d="M8.45703 27.5173L9.80525 22.5945C8.97349 21.1538 8.53608 19.5192 8.5366 17.8452C8.53878 12.6072 12.8018 8.34576 18.0396 8.34576C20.5818 8.34691 22.9678 9.33626 24.7618 11.1319C26.5561 12.9275 27.5437 15.3143 27.5426 17.8526C27.5404 23.0907 23.2772 27.3526 18.04 27.3526C18.0396 27.3526 18.0403 27.3526 18.04 27.3526H18.0358C16.4454 27.3521 14.8827 26.9528 13.4948 26.1964L8.45703 27.5173Z" fill="url(#paint0_linear_133_329)"/>
<path fill-rule="evenodd" clip-rule="evenodd" d="M15.5807 13.7283C15.3965 13.3187 15.2025 13.3105 15.0272 13.3033C14.8839 13.2971 14.7198 13.2975 14.5559 13.2975C14.3919 13.2975 14.1254 13.3591 13.9 13.6053C13.6745 13.8514 13.0391 14.4464 13.0391 15.6565C13.0391 16.8667 13.9205 18.0361 14.0434 18.2003C14.1664 18.3643 15.745 20.927 18.245 21.9129C20.3228 22.7323 20.7456 22.5693 21.1966 22.5283C21.6475 22.4873 22.6517 21.9334 22.8567 21.359C23.0617 20.7848 23.0617 20.2926 23.0002 20.1897C22.9387 20.0872 22.7747 20.0257 22.5288 19.9027C22.2828 19.7797 21.0736 19.1846 20.8481 19.1026C20.6226 19.0206 20.4586 18.9796 20.2946 19.2258C20.1306 19.4718 19.6595 20.0257 19.516 20.1897C19.3725 20.354 19.229 20.3745 18.983 20.2515C18.737 20.1282 17.9448 19.8687 17.0051 19.0308C16.2739 18.3789 15.7802 17.5738 15.6367 17.3276C15.4932 17.0816 15.6213 16.9483 15.7447 16.8257C15.8552 16.7155 15.9907 16.5386 16.1137 16.3949C16.2364 16.2513 16.2774 16.1488 16.3594 15.9848C16.4414 15.8206 16.4004 15.677 16.3389 15.554C16.2774 15.431 15.7994 14.2146 15.5807 13.7283Z" fill="white"/>
<path d="M25.0051 10.8878C23.1464 9.02787 20.675 8.00303 18.0418 8.00186C12.6158 8.00186 8.20005 12.4162 8.19787 17.842C8.19723 19.5764 8.6504 21.2693 9.51175 22.7617L8.11523 27.8609L13.3336 26.4926C14.7714 27.2767 16.3902 27.6899 18.0376 27.6905H18.0418H18.0418C23.467 27.6905 27.8833 23.2755 27.8856 17.8499C27.8865 15.2203 26.8635 12.7479 25.0051 10.8878ZM18.0418 26.0285H18.0386C16.5702 26.0278 15.1303 25.6335 13.8743 24.8883L13.5754 24.7111L10.4787 25.523L11.3055 22.5048L11.1107 22.1954C10.2916 20.8931 9.85923 19.388 9.85987 17.8426C9.86165 13.3329 13.5318 9.66399 18.0449 9.66399C20.2304 9.66489 22.2844 10.5168 23.8293 12.0627C25.3741 13.6086 26.2242 15.6637 26.2235 17.8493C26.2216 22.3591 22.5513 26.0285 18.0418 26.0285Z" fill="white"/>
<defs>
<filter id="filter0_i_133_329" x="0" y="0" width="35" height="35" filterUnits="userSpaceOnUse" color-interpolation-filters="sRGB">
<feFlood flood-opacity="0" result="BackgroundImageFix"/>
<feBlend mode="normal" in="SourceGraphic" in2="BackgroundImageFix" result="shape"/>
<feColorMatrix in="SourceAlpha" type="matrix" values="0 0 0 0 0 0 0 0 0 0 0 0 0 0 0 0 0 0 127 0" result="hardAlpha"/>
<feOffset/>
<feGaussianBlur stdDeviation="6"/>
<feComposite in2="hardAlpha" operator="arithmetic" k2="-1" k3="1"/>
<feColorMatrix type="matrix" values="0 0 0 0 1 0 0 0 0 1 0 0 0 0 1 0 0 0 0.5 0"/>
<feBlend mode="normal" in2="shape" result="effect1_innerShadow_133_329"/>
</filter>
<linearGradient id="paint0_linear_133_329" x1="17.9998" y1="27.5173" x2="17.9998" y2="8.3458" gradientUnits="userSpaceOnUse">
<stop stop-color="#20B038"/>
<stop offset="1" stop-color="#60D66A"/>
</linearGradient>
</defs>
</svg>
