<svg width="20" height="21" viewBox="0 0 20 21" fill="none" xmlns="http://www.w3.org/2000/svg">
<path d="M17.086 2.91944C15.2057 1.03791 12.7056 0.00114797 10.0418 0C4.55279 0 0.0858024 4.46556 0.0836048 9.95437C0.0829652 11.7089 0.541398 13.4216 1.41275 14.9312L0 20.0897L5.27898 18.7055C6.73344 19.4987 8.37106 19.9167 10.0376 19.9173H10.0418H10.0418C15.53 19.9173 19.9977 15.451 20 9.96244C20.0009 7.3023 18.966 4.80111 17.086 2.91944ZM10.0418 18.236H10.0386C8.55318 18.2352 7.0965 17.8364 5.82593 17.0825L5.52356 16.9032L2.3909 17.7246L3.22728 14.6714L3.03027 14.3583C2.20169 13.0409 1.76426 11.5184 1.76488 9.95501C1.76671 5.39289 5.47949 1.68139 10.045 1.68139C12.2558 1.68231 14.3338 2.54408 15.8966 4.10795C17.4593 5.67181 18.3192 7.75075 18.3186 9.96173C18.3166 14.524 14.6037 18.236 10.0418 18.236Z" fill="#E0E0E0"/>
<path d="M0.457031 19.5173L1.80525 14.5945C0.973485 13.1538 0.536077 11.5192 0.536602 9.84519C0.538783 4.60722 4.80176 0.345764 10.0396 0.345764C12.5818 0.346912 14.9678 1.33626 16.7618 3.1319C18.5561 4.92752 19.5437 7.31429 19.5426 9.85262C19.5404 15.0907 15.2772 19.3526 10.04 19.3526C10.0396 19.3526 10.0403 19.3526 10.04 19.3526H10.0358C8.44539 19.3521 6.8827 18.9528 5.49477 18.1964L0.457031 19.5173Z" fill="url(#paint0_linear_133_264)"/>
<path fill-rule="evenodd" clip-rule="evenodd" d="M7.58073 5.72827C7.3965 5.31866 7.20252 5.31046 7.02724 5.30329C6.88388 5.29714 6.71975 5.29752 6.55589 5.29752C6.39189 5.29752 6.1254 5.35915 5.90004 5.60527C5.67454 5.8514 5.03906 6.44639 5.03906 7.65649C5.03906 8.86673 5.92054 10.0361 6.0434 10.2003C6.1664 10.3643 7.74499 12.927 10.245 13.9129C12.3228 14.7323 12.7456 14.5693 13.1966 14.5283C13.6475 14.4873 14.6517 13.9334 14.8567 13.359C15.0617 12.7848 15.0617 12.2926 15.0002 12.1897C14.9387 12.0872 14.7747 12.0257 14.5288 11.9027C14.2828 11.7797 13.0736 11.1846 12.8481 11.1026C12.6226 11.0206 12.4586 10.9796 12.2946 11.2258C12.1306 11.4718 11.6595 12.0257 11.516 12.1897C11.3725 12.354 11.229 12.3745 10.983 12.2515C10.737 12.1282 9.94482 11.8687 9.00506 11.0308C8.27387 10.3789 7.78021 9.5738 7.63672 9.32756C7.49322 9.08156 7.62133 8.94832 7.74472 8.8257C7.85516 8.71551 7.99072 8.53858 8.11371 8.39495C8.23645 8.25132 8.27745 8.14882 8.35944 7.98483C8.44144 7.82057 8.40044 7.67696 8.33894 7.55396C8.27745 7.43097 7.79943 6.21461 7.58073 5.72827Z" fill="white"/>
<path d="M17.0051 2.8878C15.1464 1.02787 12.675 0.00302594 10.0418 0.00186157C4.61576 0.00186157 0.200053 4.41616 0.197872 9.84196C0.197232 11.5764 0.6504 13.2693 1.51175 14.7617L0.115234 19.8609L5.33361 18.4926C6.77139 19.2767 8.39021 19.6899 10.0376 19.6905H10.0418H10.0418C15.467 19.6905 19.8833 15.2755 19.8856 9.84989C19.8865 7.22034 18.8635 4.74787 17.0051 2.8878ZM10.0418 18.0285H10.0386C8.57023 18.0278 7.13027 17.6335 5.87429 16.8883L5.57538 16.7111L2.47869 17.523L3.30545 14.5048L3.11071 14.1954C2.29163 12.8931 1.85923 11.388 1.85987 9.84261C1.86165 5.33287 5.53182 1.66399 10.0449 1.66399C12.2304 1.66489 14.2844 2.51676 15.8293 4.06268C17.3741 5.6086 18.2242 7.66366 18.2235 9.84929C18.2216 14.3591 14.5513 18.0285 10.0418 18.0285Z" fill="white"/>
<defs>
<linearGradient id="paint0_linear_133_264" x1="9.99984" y1="19.5173" x2="9.99984" y2="0.345796" gradientUnits="userSpaceOnUse">
<stop stop-color="#20B038"/>
<stop offset="1" stop-color="#60D66A"/>
</linearGradient>
</defs>
</svg>
